<?xml version="1.0" encoding="UTF-8" standalone="no"?>
<!DOCTYPE svg PUBLIC "-//W3C//DTD SVG 1.1//EN"
 "http://www.w3.org/Graphics/SVG/1.1/DTD/svg11.dtd">
<!-- Generated by graphviz version 2.40.1 (20161225.0304)
 -->
<!-- Title: G Pages: 1 -->
<svg width="1824pt" height="129pt"
 viewBox="0.00 0.00 1824.00 129.00" xmlns="http://www.w3.org/2000/svg" xmlns:xlink="http://www.w3.org/1999/xlink">
<g id="graph0" class="graph" transform="scale(1 1) rotate(0) translate(4 125)">
<title>G</title>
<polygon fill="#ffffff" stroke="transparent" points="-4,4 -4,-125 1820,-125 1820,4 -4,4"/>
<!-- 9&#45;&gt;10 -->
<g id="edge1" class="edge">
<title>9&#45;&gt;10</title>
<path fill="none" stroke="#000000" d="M131.2376,-34.3642C134.3607,-34.9567 137.4599,-35.5067 140.5,-36 397.562,-77.7166 712.7148,-91.9305 810.2778,-95.5004"/>
<polygon fill="#000000" stroke="#000000" points="810.1998,-98.9998 820.318,-95.8579 810.449,-92.0042 810.1998,-98.9998"/>
</g>
<!-- 8&#45;&gt;10 -->
<g id="edge2" class="edge">
<title>8&#45;&gt;10</title>
<path fill="none" stroke="#000000" d="M371.6332,-34.7424C374.6195,-35.169 377.5795,-35.5889 380.5,-36 542.4307,-58.7916 736.8219,-83.4826 810.3518,-92.7269"/>
<polygon fill="#000000" stroke="#000000" points="809.947,-96.2034 820.3052,-93.9766 810.8192,-89.258 809.947,-96.2034"/>
</g>
<!-- 7&#45;&gt;10 -->
<g id="edge3" class="edge">
<title>7&#45;&gt;10</title>
<path fill="none" stroke="#000000" d="M558.4678,-36.0095C638.7973,-53.2386 755.5583,-78.2816 810.1893,-89.9989"/>
<polygon fill="#000000" stroke="#000000" points="809.7462,-93.4834 820.2579,-92.1585 811.2143,-86.6391 809.7462,-93.4834"/>
</g>
<!-- 6&#45;&gt;10 -->
<g id="edge4" class="edge">
<title>6&#45;&gt;10</title>
<path fill="none" stroke="#000000" d="M684.0723,-36.0095C723.0043,-51.0645 777.3649,-72.0857 810.6809,-84.969"/>
<polygon fill="#000000" stroke="#000000" points="809.7151,-88.348 820.3044,-88.6904 812.2398,-81.8192 809.7151,-88.348"/>
</g>
<!-- 5&#45;&gt;10 -->
<g id="edge5" class="edge">
<title>5&#45;&gt;10</title>
<path fill="none" stroke="#000000" d="M790.5757,-36.2068C797.4903,-44.5576 805.899,-54.7127 813.829,-64.2897"/>
<polygon fill="#000000" stroke="#000000" points="811.2608,-66.676 820.3343,-72.1461 816.6524,-62.2116 811.2608,-66.676"/>
</g>
<!-- 4&#45;&gt;10 -->
<g id="edge6" class="edge">
<title>4&#45;&gt;10</title>
<path fill="none" stroke="#000000" d="M891.1924,-36.2068C884.1118,-44.6283 875.4885,-54.8849 867.3767,-64.533"/>
<polygon fill="#000000" stroke="#000000" points="864.4846,-62.5341 860.7282,-72.4407 869.8426,-67.0389 864.4846,-62.5341"/>
</g>
<!-- 3&#45;&gt;10 -->
<g id="edge7" class="edge">
<title>3&#45;&gt;10</title>
<path fill="none" stroke="#000000" d="M1026.2097,-36.0095C977.7339,-51.7993 909.1096,-74.152 870.2927,-86.7957"/>
<polygon fill="#000000" stroke="#000000" points="869.0605,-83.516 860.6362,-89.9411 871.2286,-90.1718 869.0605,-83.516"/>
</g>
<!-- 2&#45;&gt;10 -->
<g id="edge8" class="edge">
<title>2&#45;&gt;10</title>
<path fill="none" stroke="#000000" d="M1223.4782,-36.0095C1108.6808,-54.1415 939.0917,-80.9277 870.7117,-91.7281"/>
<polygon fill="#000000" stroke="#000000" points="869.9615,-88.3031 860.63,-93.3205 871.0537,-95.2174 869.9615,-88.3031"/>
</g>
<!-- 1&#45;&gt;10 -->
<g id="edge9" class="edge">
<title>1&#45;&gt;10</title>
<path fill="none" stroke="#000000" d="M1489.8191,-34.4565C1486.6761,-35.0074 1483.5598,-35.5253 1480.5,-36 1247.3458,-72.1698 962.8205,-89.8594 870.7699,-94.9248"/>
<polygon fill="#000000" stroke="#000000" points="870.3108,-91.4444 860.5148,-95.4803 870.6895,-98.4342 870.3108,-91.4444"/>
</g>
<!-- 0&#45;&gt;10 -->
<g id="edge10" class="edge">
<title>0&#45;&gt;10</title>
<path fill="none" stroke="#000000" d="M1654.5668,-34.8137C1651.8493,-35.236 1649.1547,-35.6334 1646.5,-36 1345.4677,-77.5745 976.9551,-92.1048 870.5586,-95.5949"/>
<polygon fill="#000000" stroke="#000000" points="870.42,-92.0975 860.5373,-95.9161 870.6443,-99.0939 870.42,-92.0975"/>
</g>
<!-- 10 -->
<g id="node1" class="node">
<title>10</title>
<image xlink:href="or.png" width="40px" height="49px" preserveAspectRatio="xMinYMin meet" x="820.5" y="-121"/>
<text text-anchor="middle" x="840.5" y="-92.8" font-family="Times,serif" font-size="14.00" fill="#000000">Or</text>
</g>
<!-- 9 -->
<g id="node2" class="node">
<title>9</title>
<polygon fill="none" stroke="#000000" points="131,-36 0,-36 0,0 131,0 131,-36"/>
<text text-anchor="middle" x="65.5" y="-14.3" font-family="Times,serif" font-size="14.00" fill="#000000">radio: loa_event</text>
</g>
<!-- 8 -->
<g id="node3" class="node">
<title>8</title>
<polygon fill="none" stroke="#000000" points="371.5,-36 149.5,-36 149.5,0 371.5,0 371.5,-36"/>
<text text-anchor="middle" x="260.5" y="-14.3" font-family="Times,serif" font-size="14.00" fill="#000000">positionEstimator: loa_event</text>
</g>
<!-- 7 -->
<g id="node4" class="node">
<title>7</title>
<polygon fill="none" stroke="#000000" points="559,-36 390,-36 390,0 559,0 559,-36"/>
<text text-anchor="middle" x="474.5" y="-14.3" font-family="Times,serif" font-size="14.00" fill="#000000">navigation: loa_event</text>
</g>
<!-- 6 -->
<g id="node5" class="node">
<title>6</title>
<polygon fill="none" stroke="#000000" points="698,-36 577,-36 577,0 698,0 698,-36"/>
<text text-anchor="middle" x="637.5" y="-14.3" font-family="Times,serif" font-size="14.00" fill="#000000">imu: loa_event</text>
</g>
<!-- 5 -->
<g id="node6" class="node">
<title>5</title>
<polygon fill="none" stroke="#000000" points="835,-36 716,-36 716,0 835,0 835,-36"/>
<text text-anchor="middle" x="775.5" y="-14.3" font-family="Times,serif" font-size="14.00" fill="#000000">gps: loa_event</text>
</g>
<!-- 4 -->
<g id="node7" class="node">
<title>4</title>
<polygon fill="none" stroke="#000000" points="960,-36 853,-36 853,0 960,0 960,-36"/>
<text text-anchor="middle" x="906.5" y="-14.3" font-family="Times,serif" font-size="14.00" fill="#000000">fc: loa_event</text>
</g>
<!-- 3 -->
<g id="node8" class="node">
<title>3</title>
<polygon fill="none" stroke="#000000" points="1185,-36 978,-36 978,0 1185,0 1185,-36"/>
<text text-anchor="middle" x="1081.5" y="-14.3" font-family="Times,serif" font-size="14.00" fill="#000000">deliveryPlanner: loa_event</text>
</g>
<!-- 2 -->
<g id="node9" class="node">
<title>2</title>
<polygon fill="none" stroke="#000000" points="1471.5,-36 1203.5,-36 1203.5,0 1471.5,0 1471.5,-36"/>
<text text-anchor="middle" x="1337.5" y="-14.3" font-family="Times,serif" font-size="14.00" fill="#000000">deliveryItemMechanism: loa_event</text>
</g>
<!-- 1 -->
<g id="node10" class="node">
<title>1</title>
<polygon fill="none" stroke="#000000" points="1637,-36 1490,-36 1490,0 1637,0 1637,-36"/>
<text text-anchor="middle" x="1563.5" y="-14.3" font-family="Times,serif" font-size="14.00" fill="#000000">camera: loa_event</text>
</g>
<!-- 0 -->
<g id="node11" class="node">
<title>0</title>
<polygon fill="none" stroke="#000000" points="1816,-36 1655,-36 1655,0 1816,0 1816,-36"/>
<text text-anchor="middle" x="1735.5" y="-14.3" font-family="Times,serif" font-size="14.00" fill="#000000">actuation: loa_event</text>
</g>
</g>
</svg>
