<?xml version="1.0" encoding="UTF-8" standalone="no"?>
<!DOCTYPE svg PUBLIC "-//W3C//DTD SVG 1.1//EN"
 "http://www.w3.org/Graphics/SVG/1.1/DTD/svg11.dtd">
<!-- Generated by graphviz version 2.40.1 (20161225.0304)
 -->
<!-- Title: G Pages: 1 -->
<svg width="1562pt" height="129pt"
 viewBox="0.00 0.00 1562.00 129.00" xmlns="http://www.w3.org/2000/svg" xmlns:xlink="http://www.w3.org/1999/xlink">
<g id="graph0" class="graph" transform="scale(1 1) rotate(0) translate(4 125)">
<title>G</title>
<polygon fill="#ffffff" stroke="transparent" points="-4,4 -4,-125 1558,-125 1558,4 -4,4"/>
<!-- 7&#45;&gt;8 -->
<g id="edge1" class="edge">
<title>7&#45;&gt;8</title>
<path fill="none" stroke="#000000" d="M136.3433,-34.4478C139.2622,-35.0011 142.1569,-35.5219 145,-36 354.4337,-71.2205 609.9372,-89.2634 696.5963,-94.6961"/>
<polygon fill="#000000" stroke="#000000" points="696.5754,-98.2014 706.7721,-95.3243 697.0068,-91.2147 696.5754,-98.2014"/>
</g>
<!-- 6&#45;&gt;8 -->
<g id="edge2" class="edge">
<title>6&#45;&gt;8</title>
<path fill="none" stroke="#000000" d="M373.3039,-36.0095C478.1029,-53.9326 632.3456,-80.3118 696.8793,-91.3486"/>
<polygon fill="#000000" stroke="#000000" points="696.3521,-94.8092 706.7991,-93.0452 697.5322,-87.9094 696.3521,-94.8092"/>
</g>
<!-- 5&#45;&gt;8 -->
<g id="edge3" class="edge">
<title>5&#45;&gt;8</title>
<path fill="none" stroke="#000000" d="M542.0608,-36.0095C590.3355,-51.7993 658.675,-74.152 697.3309,-86.7957"/>
<polygon fill="#000000" stroke="#000000" points="696.3547,-90.1588 706.9473,-89.9411 698.5309,-83.5057 696.3547,-90.1588"/>
</g>
<!-- 4&#45;&gt;8 -->
<g id="edge4" class="edge">
<title>4&#45;&gt;8</title>
<path fill="none" stroke="#000000" d="M671.6992,-36.2068C680.0414,-45.3021 690.3467,-56.5377 699.7919,-66.8356"/>
<polygon fill="#000000" stroke="#000000" points="697.4616,-69.4729 706.8003,-74.4767 702.6203,-64.7413 697.4616,-69.4729"/>
</g>
<!-- 3&#45;&gt;8 -->
<g id="edge5" class="edge">
<title>3&#45;&gt;8</title>
<path fill="none" stroke="#000000" d="M782.3008,-36.2068C773.9586,-45.3021 763.6533,-56.5377 754.2081,-66.8356"/>
<polygon fill="#000000" stroke="#000000" points="751.3797,-64.7413 747.1997,-74.4767 756.5384,-69.4729 751.3797,-64.7413"/>
</g>
<!-- 2&#45;&gt;8 -->
<g id="edge6" class="edge">
<title>2&#45;&gt;8</title>
<path fill="none" stroke="#000000" d="M926.5802,-36.0095C873.5737,-52.0752 798.1507,-74.935 756.8613,-87.4494"/>
<polygon fill="#000000" stroke="#000000" points="755.6887,-84.1475 747.1338,-90.3977 757.7191,-90.8465 755.6887,-84.1475"/>
</g>
<!-- 1&#45;&gt;8 -->
<g id="edge7" class="edge">
<title>1&#45;&gt;8</title>
<path fill="none" stroke="#000000" d="M1127.7015,-36.0095C1006.774,-54.2649 827.7361,-81.2927 757.1637,-91.9464"/>
<polygon fill="#000000" stroke="#000000" points="756.5408,-88.5007 747.1753,-93.4543 757.5857,-95.4223 756.5408,-88.5007"/>
</g>
<!-- 0&#45;&gt;8 -->
<g id="edge8" class="edge">
<title>0&#45;&gt;8</title>
<path fill="none" stroke="#000000" d="M1401.6219,-34.6187C1398.7155,-35.1097 1395.834,-35.5727 1393,-36 1149.2518,-72.7484 851.7106,-90.1558 757.2656,-95.0265"/>
<polygon fill="#000000" stroke="#000000" points="757.0753,-91.5315 747.2657,-95.5341 757.4303,-98.5225 757.0753,-91.5315"/>
</g>
<!-- 8 -->
<g id="node1" class="node">
<title>8</title>
<image xlink:href="or.png" width="40px" height="49px" preserveAspectRatio="xMinYMin meet" x="707" y="-121"/>
<text text-anchor="middle" x="727" y="-92.8" font-family="Times,serif" font-size="14.00" fill="#000000">Or</text>
</g>
<!-- 7 -->
<g id="node2" class="node">
<title>7</title>
<polygon fill="none" stroke="#000000" points="136,-36 0,-36 0,0 136,0 136,-36"/>
<text text-anchor="middle" x="68" y="-14.3" font-family="Times,serif" font-size="14.00" fill="#000000">radio: ued_event</text>
</g>
<!-- 6 -->
<g id="node3" class="node">
<title>6</title>
<polygon fill="none" stroke="#000000" points="381.5,-36 154.5,-36 154.5,0 381.5,0 381.5,-36"/>
<text text-anchor="middle" x="268" y="-14.3" font-family="Times,serif" font-size="14.00" fill="#000000">positionEstimator: ued_event</text>
</g>
<!-- 5 -->
<g id="node4" class="node">
<title>5</title>
<polygon fill="none" stroke="#000000" points="574,-36 400,-36 400,0 574,0 574,-36"/>
<text text-anchor="middle" x="487" y="-14.3" font-family="Times,serif" font-size="14.00" fill="#000000">navigation: ued_event</text>
</g>
<!-- 4 -->
<g id="node5" class="node">
<title>4</title>
<polygon fill="none" stroke="#000000" points="718,-36 592,-36 592,0 718,0 718,-36"/>
<text text-anchor="middle" x="655" y="-14.3" font-family="Times,serif" font-size="14.00" fill="#000000">imu: ued_event</text>
</g>
<!-- 3 -->
<g id="node6" class="node">
<title>3</title>
<polygon fill="none" stroke="#000000" points="861.5,-36 736.5,-36 736.5,0 861.5,0 861.5,-36"/>
<text text-anchor="middle" x="799" y="-14.3" font-family="Times,serif" font-size="14.00" fill="#000000">gps: ued_event</text>
</g>
<!-- 2 -->
<g id="node7" class="node">
<title>2</title>
<polygon fill="none" stroke="#000000" points="1092,-36 880,-36 880,0 1092,0 1092,-36"/>
<text text-anchor="middle" x="986" y="-14.3" font-family="Times,serif" font-size="14.00" fill="#000000">deliveryPlanner: ued_event</text>
</g>
<!-- 1 -->
<g id="node8" class="node">
<title>1</title>
<polygon fill="none" stroke="#000000" points="1383.5,-36 1110.5,-36 1110.5,0 1383.5,0 1383.5,-36"/>
<text text-anchor="middle" x="1247" y="-14.3" font-family="Times,serif" font-size="14.00" fill="#000000">deliveryItemMechanism: ued_event</text>
</g>
<!-- 0 -->
<g id="node9" class="node">
<title>0</title>
<polygon fill="none" stroke="#000000" points="1554,-36 1402,-36 1402,0 1554,0 1554,-36"/>
<text text-anchor="middle" x="1478" y="-14.3" font-family="Times,serif" font-size="14.00" fill="#000000">camera: ued_event</text>
</g>
</g>
</svg>
