<?xml version="1.0" encoding="UTF-8" standalone="no"?>
<!DOCTYPE svg PUBLIC "-//W3C//DTD SVG 1.1//EN"
 "http://www.w3.org/Graphics/SVG/1.1/DTD/svg11.dtd">
<!-- Generated by graphviz version 2.40.1 (20161225.0304)
 -->
<!-- Title: gRun_sadl12 Pages: 1 -->
<svg width="532pt" height="776pt"
 viewBox="0.00 0.00 531.78 776.00" xmlns="http://www.w3.org/2000/svg" xmlns:xlink="http://www.w3.org/1999/xlink">
<g id="graph0" class="graph" transform="scale(1 1) rotate(0) translate(4 772)">
<title>gRun_sadl12</title>
<polygon fill="#ffffff" stroke="transparent" points="-4,4 -4,-772 527.7793,-772 527.7793,4 -4,4"/>
<text text-anchor="middle" x="56.019" y="-752.8" font-family="Times,serif" font-size="14.00" fill="#000000">Cmd 13 &#160;(Graph)</text>
<!-- n1 -->
<g id="node1" class="node">
<title>n1</title>
<g id="a_node1"><a xlink:title="CAPEC&#45;148:Content Spoofing; &#10; CAPEC&#45;601:Jamming; &#10; antiJamming; &#10; heterogeneity; &#10; insideTrustedBoundary; &#10; broadcastFromOutsideTB">
<polygon fill="#ffff00" stroke="#000000" points="264.766,-746 199.234,-746 199.234,-710 264.766,-710 264.766,-746"/>
<text text-anchor="middle" x="232" y="-723.8" font-family="Times,serif" font-size="14.00" fill="#000000">dme_vor</text>
</a>
</g>
</g>
<!-- n2 -->
<g id="node2" class="node">
<title>n2</title>
<g id="a_node2"><a xlink:title="&#10; insideTrustedBoundary">
<polygon fill="#d3d3d3" stroke="#000000" points="354.3111,-660 265.6889,-660 265.6889,-624 354.3111,-624 354.3111,-660"/>
<text text-anchor="middle" x="310" y="-637.8" font-family="Times,serif" font-size="14.00" fill="#000000">triplex_voter</text>
</a>
</g>
</g>
<!-- n1&#45;&gt;n2 -->
<g id="edge1" class="edge">
<title>n1&#45;&gt;n2</title>
<path fill="none" stroke="#000000" d="M245.755,-709.9689C253.3799,-700.2559 263.1921,-688.206 272.5723,-678 275.8324,-674.4528 279.3624,-670.8179 282.9074,-667.2864"/>
<polygon fill="#000000" stroke="#000000" points="285.4113,-669.7334 290.1237,-660.2442 280.5223,-664.7236 285.4113,-669.7334"/>
<text text-anchor="middle" x="288.7139" y="-680.8" font-family="Times,serif" font-size="14.00" fill="#000000">Xdata</text>
</g>
<!-- n6 -->
<g id="node6" class="node">
<title>n6</title>
<g id="a_node6"><a xlink:title="&#10; insideTrustedBoundary">
<polygon fill="#d3d3d3" stroke="#000000" points="370.2141,-574 249.7859,-574 249.7859,-538 370.2141,-538 370.2141,-574"/>
<text text-anchor="middle" x="310" y="-551.8" font-family="Times,serif" font-size="14.00" fill="#000000">position_estimator</text>
</a>
</g>
</g>
<!-- n2&#45;&gt;n6 -->
<g id="edge5" class="edge">
<title>n2&#45;&gt;n6</title>
<path fill="none" stroke="#000000" d="M310,-623.7616C310,-612.3597 310,-597.4342 310,-584.494"/>
<polygon fill="#000000" stroke="#000000" points="313.5001,-584.2121 310,-574.2121 306.5001,-584.2121 313.5001,-584.2121"/>
<text text-anchor="middle" x="326.7139" y="-594.8" font-family="Times,serif" font-size="14.00" fill="#000000">Xdata</text>
</g>
<!-- n3 -->
<g id="node3" class="node">
<title>n3</title>
<g id="a_node3"><a xlink:title="&#10; insideTrustedBoundary">
<polygon fill="#d3d3d3" stroke="#000000" points="143.3693,-488 74.6307,-488 74.6307,-452 143.3693,-452 143.3693,-488"/>
<text text-anchor="middle" x="109" y="-465.8" font-family="Times,serif" font-size="14.00" fill="#000000">navigator</text>
</a>
</g>
</g>
<!-- n4 -->
<g id="node4" class="node">
<title>n4</title>
<g id="a_node4"><a xlink:title="&#10; insideTrustedBoundary">
<polygon fill="#d3d3d3" stroke="#000000" points="319,-402 265,-402 265,-366 319,-366 319,-402"/>
<text text-anchor="middle" x="292" y="-379.8" font-family="Times,serif" font-size="14.00" fill="#000000">mixer</text>
</a>
</g>
</g>
<!-- n3&#45;&gt;n4 -->
<g id="edge2" class="edge">
<title>n3&#45;&gt;n4</title>
<path fill="none" stroke="#000000" d="M122.0951,-451.8476C130.7438,-441.1057 142.9666,-428.0643 156.5723,-420 186.9543,-401.9922 226.4288,-392.8312 254.9134,-388.2743"/>
<polygon fill="#000000" stroke="#000000" points="255.4956,-391.7264 264.8733,-386.796 254.4677,-384.8022 255.4956,-391.7264"/>
<text text-anchor="middle" x="173.7139" y="-422.8" font-family="Times,serif" font-size="14.00" fill="#000000">Xdata</text>
</g>
<!-- n10 -->
<g id="node10" class="node">
<title>n10</title>
<g id="a_node10"><a xlink:title="&#10; insideTrustedBoundary">
<polygon fill="#d3d3d3" stroke="#000000" points="357.4863,-36 250.5137,-36 250.5137,0 357.4863,0 357.4863,-36"/>
<text text-anchor="middle" x="304" y="-13.8" font-family="Times,serif" font-size="14.00" fill="#000000">flight_controller</text>
</a>
</g>
</g>
<!-- n3&#45;&gt;n10 -->
<g id="edge22" class="edge">
<title>n3&#45;&gt;n10</title>
<path fill="none" stroke="#000000" d="M74.5117,-459.0596C42.5781,-446.5191 0,-422.5671 0,-384 0,-384 0,-384 0,-104 0,-54.4872 151.1994,-32.0379 240.3338,-23.1055"/>
<polygon fill="#000000" stroke="#000000" points="240.7361,-26.583 250.3507,-22.1322 240.059,-19.6158 240.7361,-26.583"/>
<text text-anchor="middle" x="16.7139" y="-228.8" font-family="Times,serif" font-size="14.00" fill="#000000">Xdata</text>
</g>
<!-- n8 -->
<g id="node8" class="node">
<title>n8</title>
<g id="a_node8"><a xlink:title="&#10; insideTrustedBoundary">
<polygon fill="#d3d3d3" stroke="#000000" points="430.0329,-294 363.9671,-294 363.9671,-258 430.0329,-258 430.0329,-294"/>
<text text-anchor="middle" x="397" y="-271.8" font-family="Times,serif" font-size="14.00" fill="#000000">actuators</text>
</a>
</g>
</g>
<!-- n4&#45;&gt;n8 -->
<g id="edge18" class="edge">
<title>n4&#45;&gt;n8</title>
<path fill="none" stroke="#000000" d="M296.9879,-365.7813C302.1114,-349.9272 311.4498,-327.1727 326.2207,-312 334.1724,-303.8319 344.3716,-297.1846 354.5368,-291.9278"/>
<polygon fill="#000000" stroke="#000000" points="356.2936,-294.967 363.7972,-287.4873 353.267,-288.6551 356.2936,-294.967"/>
<text text-anchor="middle" x="347.3896" y="-325.8" font-family="Times,serif" font-size="14.00" fill="#000000">Control</text>
</g>
<!-- n5 -->
<g id="node5" class="node">
<title>n5</title>
<g id="a_node5"><a xlink:title="CAPEC&#45;148:Content Spoofing; &#10; CAPEC&#45;601:Jamming; &#10; antiJamming; &#10; heterogeneity; &#10; insideTrustedBoundary; &#10; broadcastFromOutsideTB">
<polygon fill="#ffff00" stroke="#000000" points="337,-746 283,-746 283,-710 337,-710 337,-746"/>
<text text-anchor="middle" x="310" y="-723.8" font-family="Times,serif" font-size="14.00" fill="#000000">gps</text>
</a>
</g>
</g>
<!-- n5&#45;&gt;n2 -->
<g id="edge3" class="edge">
<title>n5&#45;&gt;n2</title>
<path fill="none" stroke="#000000" d="M310,-709.7616C310,-698.3597 310,-683.4342 310,-670.494"/>
<polygon fill="#000000" stroke="#000000" points="313.5001,-670.2121 310,-660.2121 306.5001,-670.2121 313.5001,-670.2121"/>
<text text-anchor="middle" x="326.7139" y="-680.8" font-family="Times,serif" font-size="14.00" fill="#000000">Xdata</text>
</g>
<!-- n6&#45;&gt;n3 -->
<g id="edge4" class="edge">
<title>n6&#45;&gt;n3</title>
<path fill="none" stroke="#000000" d="M267.8638,-537.9716C234.087,-523.5198 186.8503,-503.3091 152.6735,-488.6862"/>
<polygon fill="#000000" stroke="#000000" points="153.9729,-485.4353 143.4023,-484.7194 151.2193,-491.871 153.9729,-485.4353"/>
<text text-anchor="middle" x="238.7139" y="-508.8" font-family="Times,serif" font-size="14.00" fill="#000000">Xdata</text>
</g>
<!-- n6&#45;&gt;n4 -->
<g id="edge16" class="edge">
<title>n6&#45;&gt;n4</title>
<path fill="none" stroke="#000000" d="M314.532,-537.9234C320.3533,-511.4114 328.3278,-460.716 316,-420 315.0933,-417.0052 313.8461,-414.0319 312.3934,-411.1523"/>
<polygon fill="#000000" stroke="#000000" points="315.3076,-409.2034 307.2178,-402.362 309.2756,-412.7551 315.3076,-409.2034"/>
<text text-anchor="middle" x="338.7139" y="-465.8" font-family="Times,serif" font-size="14.00" fill="#000000">Xdata</text>
</g>
<!-- n7 -->
<g id="node7" class="node">
<title>n7</title>
<g id="a_node7"><a xlink:title="&#10; insideTrustedBoundary">
<polygon fill="#d3d3d3" stroke="#000000" points="262.5762,-122 159.4238,-122 159.4238,-86 262.5762,-86 262.5762,-122"/>
<text text-anchor="middle" x="211" y="-99.8" font-family="Times,serif" font-size="14.00" fill="#000000">state_controller</text>
</a>
</g>
</g>
<!-- n7&#45;&gt;n4 -->
<g id="edge20" class="edge">
<title>n7&#45;&gt;n4</title>
<path fill="none" stroke="#000000" d="M212.9386,-122.3738C215.4829,-143.4236 220.75,-178.7772 230,-208 245.3627,-256.5344 262.3622,-263.5535 278,-312 282.5681,-326.1521 285.8818,-342.3754 288.135,-355.8354"/>
<polygon fill="#000000" stroke="#000000" points="284.7131,-356.6071 289.7184,-365.9451 291.6288,-355.524 284.7131,-356.6071"/>
<text text-anchor="middle" x="259.7139" y="-228.8" font-family="Times,serif" font-size="14.00" fill="#000000">Xdata</text>
</g>
<!-- n7&#45;&gt;n8 -->
<g id="edge6" class="edge">
<title>n7&#45;&gt;n8</title>
<path fill="none" stroke="#000000" d="M262.7235,-121.4709C310.6705,-138.1192 375.8119,-162.0729 384,-172 401.2918,-192.9642 402.8324,-224.8635 401.1147,-247.804"/>
<polygon fill="#000000" stroke="#000000" points="397.6126,-247.6523 400.1031,-257.9503 404.5781,-248.3469 397.6126,-247.6523"/>
<text text-anchor="middle" x="415.7139" y="-185.8" font-family="Times,serif" font-size="14.00" fill="#000000">Xdata</text>
</g>
<!-- n7&#45;&gt;n10 -->
<g id="edge23" class="edge">
<title>n7&#45;&gt;n10</title>
<path fill="none" stroke="#000000" d="M230.7229,-85.7616C244.1626,-73.3335 262.1294,-56.719 276.9085,-43.0524"/>
<polygon fill="#000000" stroke="#000000" points="279.3398,-45.5712 284.3055,-36.2121 274.5872,-40.4318 279.3398,-45.5712"/>
<text text-anchor="middle" x="280.7139" y="-56.8" font-family="Times,serif" font-size="14.00" fill="#000000">Xdata</text>
</g>
<!-- n8&#45;&gt;n10 -->
<g id="edge11" class="edge">
<title>n8&#45;&gt;n10</title>
<path fill="none" stroke="#000000" d="M410.9409,-257.8265C420.0509,-244.756 431.1301,-226.2795 436,-208 440.1189,-192.5393 439.3046,-187.655 436,-172 427.3695,-131.1137 423.4902,-119.1123 398,-86 384.1123,-67.9597 376.3777,-67.4381 358,-54 352.4391,-49.9338 346.4543,-45.7564 340.5652,-41.7529"/>
<polygon fill="#000000" stroke="#000000" points="342.3191,-38.7147 332.0661,-36.0449 338.4163,-44.5258 342.3191,-38.7147"/>
<text text-anchor="middle" x="452.3896" y="-142.8" font-family="Times,serif" font-size="14.00" fill="#000000">Control</text>
</g>
<!-- n12 -->
<g id="node12" class="node">
<title>n12</title>
<g id="a_node12"><a xlink:title="&#10; insideTrustedBoundary">
<polygon fill="#d3d3d3" stroke="#000000" points="374.7181,-208 239.2819,-208 239.2819,-172 374.7181,-172 374.7181,-208"/>
<text text-anchor="middle" x="307" y="-185.8" font-family="Times,serif" font-size="14.00" fill="#000000">battery_health_check</text>
</a>
</g>
</g>
<!-- n8&#45;&gt;n12 -->
<g id="edge12" class="edge">
<title>n8&#45;&gt;n12</title>
<path fill="none" stroke="#000000" d="M377.9133,-257.7616C365.0265,-245.4475 347.8386,-229.0235 333.612,-215.4293"/>
<polygon fill="#000000" stroke="#000000" points="335.7071,-212.5902 326.0592,-208.2121 330.8711,-217.6512 335.7071,-212.5902"/>
<text text-anchor="middle" x="373.7139" y="-228.8" font-family="Times,serif" font-size="14.00" fill="#000000">Xdata</text>
</g>
<!-- n9 -->
<g id="node9" class="node">
<title>n9</title>
<g id="a_node9"><a xlink:title="&#10; hasSensitiveInfo; &#10; insideTrustedBoundary">
<polygon fill="#d3d3d3" stroke="#000000" points="389.0459,-122 280.9541,-122 280.9541,-86 389.0459,-86 389.0459,-122"/>
<text text-anchor="middle" x="335" y="-99.8" font-family="Times,serif" font-size="14.00" fill="#000000">mission_planner</text>
</a>
</g>
</g>
<!-- n9&#45;&gt;n10 -->
<g id="edge7" class="edge">
<title>n9&#45;&gt;n10</title>
<path fill="none" stroke="#000000" d="M328.4257,-85.7616C324.2335,-74.1316 318.7199,-58.8357 313.9921,-45.72"/>
<polygon fill="#000000" stroke="#000000" points="317.2486,-44.4327 310.5648,-36.2121 310.6633,-46.8065 317.2486,-44.4327"/>
<text text-anchor="middle" x="337.7139" y="-56.8" font-family="Times,serif" font-size="14.00" fill="#000000">Xdata</text>
</g>
<!-- n10&#45;&gt;n3 -->
<g id="edge17" class="edge">
<title>n10&#45;&gt;n3</title>
<path fill="none" stroke="#000000" d="M250.493,-25.5416C177.5878,-37.3467 56,-63.1571 56,-104 56,-384 56,-384 56,-384 56,-406.5516 69.3716,-428.1457 82.682,-444.0545"/>
<polygon fill="#000000" stroke="#000000" points="80.3166,-446.6628 89.5657,-451.8305 85.5579,-442.0229 80.3166,-446.6628"/>
<text text-anchor="middle" x="72.7139" y="-228.8" font-family="Times,serif" font-size="14.00" fill="#000000">Xdata</text>
</g>
<!-- n10&#45;&gt;n8 -->
<g id="edge13" class="edge">
<title>n10&#45;&gt;n8</title>
<path fill="none" stroke="#000000" d="M355.2291,-36.0779C398.2736,-54.5375 456.1594,-87.9488 478,-140 495.2767,-181.1745 457.9935,-224.8679 428.4479,-251.2964"/>
<polygon fill="#000000" stroke="#000000" points="426.0272,-248.7627 420.757,-257.9538 430.6085,-254.0553 426.0272,-248.7627"/>
<text text-anchor="middle" x="502.3896" y="-142.8" font-family="Times,serif" font-size="14.00" fill="#000000">Control</text>
</g>
<!-- n11 -->
<g id="node11" class="node">
<title>n11</title>
<g id="a_node11"><a xlink:title="CAPEC&#45;125:Flooding; &#10; CAPEC&#45;601:Jamming; &#10; CAPEC&#45;151:Identity Spoofing; &#10; CAPEC&#45;28:Fuzzing; &#10; CAPEC&#45;148:Content Spoofing; &#10; antiFlooding; &#10; encryption; &#10; antiJamming; &#10; antiFuzzing; &#10; insideTrustedBoundary; &#10; wifiFromOutsideTB">
<polygon fill="#ffff00" stroke="#000000" points="282.2455,-488 195.7545,-488 195.7545,-452 282.2455,-452 282.2455,-488"/>
<text text-anchor="middle" x="239" y="-465.8" font-family="Times,serif" font-size="14.00" fill="#000000">RC_receiver</text>
</a>
</g>
</g>
<!-- n11&#45;&gt;n4 -->
<g id="edge10" class="edge">
<title>n11&#45;&gt;n4</title>
<path fill="none" stroke="#000000" d="M250.2399,-451.7616C257.5478,-439.9036 267.2043,-424.2345 275.3906,-410.951"/>
<polygon fill="#000000" stroke="#000000" points="278.5093,-412.5616 280.7763,-402.2121 272.5501,-408.889 278.5093,-412.5616"/>
<text text-anchor="middle" x="290.3896" y="-422.8" font-family="Times,serif" font-size="14.00" fill="#000000">Control</text>
</g>
<!-- n11&#45;&gt;n7 -->
<g id="edge9" class="edge">
<title>n11&#45;&gt;n7</title>
<path fill="none" stroke="#000000" d="M195.6575,-464.2394C174.8255,-459.3843 150.9755,-450.4462 135,-434 107.0863,-405.2639 114.0701,-387.5991 108,-348 95.0676,-263.6337 155.0437,-173.328 188.9961,-130.0531"/>
<polygon fill="#000000" stroke="#000000" points="191.893,-132.0349 195.4103,-122.0409 186.4284,-127.6601 191.893,-132.0349"/>
<text text-anchor="middle" x="133.7139" y="-271.8" font-family="Times,serif" font-size="14.00" fill="#000000">Xdata</text>
</g>
<!-- n11&#45;&gt;n8 -->
<g id="edge8" class="edge">
<title>n11&#45;&gt;n8</title>
<path fill="none" stroke="#000000" d="M282.4336,-454.9998C294.1767,-449.5937 306.3051,-442.6399 316,-434 355.7296,-398.5941 378.7113,-339.0861 389.4655,-304.0858"/>
<polygon fill="#000000" stroke="#000000" points="392.9491,-304.6457 392.4154,-294.0643 386.234,-302.669 392.9491,-304.6457"/>
<text text-anchor="middle" x="385.3896" y="-379.8" font-family="Times,serif" font-size="14.00" fill="#000000">Control</text>
</g>
<!-- n14 -->
<g id="node14" class="node">
<title>n14</title>
<g id="a_node14"><a xlink:title="&#10; insideTrustedBoundary">
<polygon fill="#d3d3d3" stroke="#000000" points="276.5942,-348 109.4058,-348 109.4058,-312 276.5942,-312 276.5942,-348"/>
<text text-anchor="middle" x="193" y="-325.8" font-family="Times,serif" font-size="14.00" fill="#000000">RC_receiver_health_check</text>
</a>
</g>
</g>
<!-- n11&#45;&gt;n14 -->
<g id="edge21" class="edge">
<title>n11&#45;&gt;n14</title>
<path fill="none" stroke="#000000" d="M231.9787,-451.754C229.8564,-446.0875 227.5624,-439.8053 225.5723,-434 216.7665,-408.3138 207.5971,-378.7421 201.2392,-357.7141"/>
<polygon fill="#000000" stroke="#000000" points="204.5893,-356.7005 198.3578,-348.132 197.8858,-358.7164 204.5893,-356.7005"/>
<text text-anchor="middle" x="242.7139" y="-422.8" font-family="Times,serif" font-size="14.00" fill="#000000">Xdata</text>
</g>
<!-- n12&#45;&gt;n7 -->
<g id="edge15" class="edge">
<title>n12&#45;&gt;n7</title>
<path fill="none" stroke="#000000" d="M286.6409,-171.7616C272.7676,-159.3335 254.2213,-142.719 238.9655,-129.0524"/>
<polygon fill="#000000" stroke="#000000" points="241.1135,-126.2777 231.3298,-122.2121 236.4428,-131.4915 241.1135,-126.2777"/>
<text text-anchor="middle" x="281.7139" y="-142.8" font-family="Times,serif" font-size="14.00" fill="#000000">Xdata</text>
</g>
<!-- n13 -->
<g id="node13" class="node">
<title>n13</title>
<g id="a_node13"><a xlink:title="&#10; heterogeneity; &#10; insideTrustedBoundary">
<polygon fill="#d3d3d3" stroke="#000000" points="409,-746 355,-746 355,-710 409,-710 409,-746"/>
<text text-anchor="middle" x="382" y="-723.8" font-family="Times,serif" font-size="14.00" fill="#000000">iru</text>
</a>
</g>
</g>
<!-- n13&#45;&gt;n2 -->
<g id="edge14" class="edge">
<title>n13&#45;&gt;n2</title>
<path fill="none" stroke="#000000" d="M370.4705,-709.8106C363.9913,-700.0513 355.5136,-688.0076 347,-678 343.8967,-674.3521 340.4768,-670.6586 337.0076,-667.0973"/>
<polygon fill="#000000" stroke="#000000" points="339.4614,-664.6014 329.9033,-660.0303 334.5246,-669.5642 339.4614,-664.6014"/>
<text text-anchor="middle" x="373.7139" y="-680.8" font-family="Times,serif" font-size="14.00" fill="#000000">Xdata</text>
</g>
<!-- n14&#45;&gt;n7 -->
<g id="edge19" class="edge">
<title>n14&#45;&gt;n7</title>
<path fill="none" stroke="#000000" d="M191.0682,-311.9117C187.9318,-277.8061 183.3637,-201.8623 197,-140 197.5887,-137.3293 198.3451,-134.596 199.2009,-131.8877"/>
<polygon fill="#000000" stroke="#000000" points="202.5415,-132.9401 202.6132,-122.3455 195.9503,-130.583 202.5415,-132.9401"/>
<text text-anchor="middle" x="204.7139" y="-228.8" font-family="Times,serif" font-size="14.00" fill="#000000">Xdata</text>
</g>
</g>
</svg>
