<?xml version="1.0" encoding="UTF-8" standalone="no"?>
<!DOCTYPE svg PUBLIC "-//W3C//DTD SVG 1.1//EN"
 "http://www.w3.org/Graphics/SVG/1.1/DTD/svg11.dtd">
<!-- Generated by graphviz version 2.40.1 (20161225.0304)
 -->
<!-- Title: gRun_sadl11 Pages: 1 -->
<svg width="435pt" height="754pt"
 viewBox="0.00 0.00 435.00 754.00" xmlns="http://www.w3.org/2000/svg" xmlns:xlink="http://www.w3.org/1999/xlink">
<g id="graph0" class="graph" transform="scale(1 1) rotate(0) translate(4 750)">
<title>gRun_sadl11</title>
<polygon fill="#ffffff" stroke="transparent" points="-4,4 -4,-750 431,-750 431,4 -4,4"/>
<text text-anchor="middle" x="56.019" y="-730.8" font-family="Times,serif" font-size="14.00" fill="#000000">Cmd 13 &#160;(Graph)</text>
<!-- n1 -->
<g id="node1" class="node">
<title>n1</title>
<g id="a_node1"><a xlink:title="&#10; ">
<polygon fill="#d3d3d3" stroke="#000000" points="235.8966,-724 174.1034,-724 174.1034,-688 235.8966,-688 235.8966,-724"/>
<text text-anchor="middle" x="205" y="-701.8" font-family="Times,serif" font-size="14.00" fill="#000000">posSens</text>
</a>
</g>
</g>
<!-- n2 -->
<g id="node2" class="node">
<title>n2</title>
<g id="a_node2"><a xlink:title="CAPEC&#45;439:Manipulation During Distribution; &#10; CAPEC&#45;507:Physical Theft; &#10; CAPEC&#45;440:Hardware Integrity Attack; &#10; hasSensitiveInfo; &#10; insideTrustedBoundary">
<polygon fill="#ff0000" stroke="#000000" points="182.5526,-638 67.4474,-638 67.4474,-602 182.5526,-602 182.5526,-638"/>
<text text-anchor="middle" x="125" y="-615.8" font-family="Times,serif" font-size="14.00" fill="#000000">positionEstimator</text>
</a>
</g>
</g>
<!-- n1&#45;&gt;n2 -->
<g id="edge1" class="edge">
<title>n1&#45;&gt;n2</title>
<path fill="none" stroke="#000000" d="M173.9621,-699.6383C157.4015,-694.5364 138.3162,-685.555 127.7861,-670 123.4972,-663.6645 121.8277,-655.7764 121.4836,-648.1518"/>
<polygon fill="#000000" stroke="#000000" points="124.9841,-648.1661 121.7143,-638.0885 117.9859,-648.0056 124.9841,-648.1661"/>
<text text-anchor="middle" x="138.1069" y="-658.8" font-family="Times,serif" font-size="14.00" fill="#000000">c12</text>
</g>
<!-- n1&#45;&gt;n2 -->
<g id="edge16" class="edge">
<title>n1&#45;&gt;n2</title>
<path fill="none" stroke="#000000" d="M187.4004,-687.7665C181.9752,-682.1005 176.0018,-675.8155 170.5723,-670 163.2382,-662.1446 155.325,-653.5171 148.1836,-645.6729"/>
<polygon fill="#000000" stroke="#000000" points="150.6633,-643.1974 141.3494,-638.1475 145.4813,-647.9034 150.6633,-643.1974"/>
<text text-anchor="middle" x="184.2139" y="-658.8" font-family="Times,serif" font-size="14.00" fill="#000000">c18a</text>
</g>
<!-- n5 -->
<g id="node5" class="node">
<title>n5</title>
<g id="a_node5"><a xlink:title="CAPEC&#45;507:Physical Theft; &#10; CAPEC&#45;439:Manipulation During Distribution; &#10; CAPEC&#45;440:Hardware Integrity Attack; &#10; insideTrustedBoundary">
<polygon fill="#ff0000" stroke="#000000" points="126.5967,-552 51.4033,-552 51.4033,-516 126.5967,-516 126.5967,-552"/>
<text text-anchor="middle" x="89" y="-529.8" font-family="Times,serif" font-size="14.00" fill="#000000">navigation</text>
</a>
</g>
</g>
<!-- n2&#45;&gt;n5 -->
<g id="edge13" class="edge">
<title>n2&#45;&gt;n5</title>
<path fill="none" stroke="#000000" d="M100.3975,-601.7377C95.2799,-596.6193 90.5931,-590.6208 87.7861,-584 84.9625,-577.3397 84.1052,-569.7189 84.2335,-562.4682"/>
<polygon fill="#000000" stroke="#000000" points="87.741,-562.5023 85.0125,-552.2648 80.7614,-561.9694 87.741,-562.5023"/>
<text text-anchor="middle" x="94.6069" y="-572.8" font-family="Times,serif" font-size="14.00" fill="#000000">c1</text>
</g>
<!-- n3 -->
<g id="node3" class="node">
<title>n3</title>
<g id="a_node3"><a xlink:title="CAPEC&#45;507:Physical Theft; &#10; CAPEC&#45;184:Software Integrity Attack; &#10; CAPEC&#45;438:Modification During Manufacture; &#10; CAPEC&#45;440:Hardware Integrity Attack; &#10; CAPEC&#45;439:Manipulation During Distribution; &#10; CAPEC&#45;624:Fault Injection; &#10; insideTrustedBoundary">
<polygon fill="#ff0000" stroke="#000000" points="237.1354,-122 132.8646,-122 132.8646,-86 237.1354,-86 237.1354,-122"/>
<text text-anchor="middle" x="185" y="-99.8" font-family="Times,serif" font-size="14.00" fill="#000000">deliveryPlanner</text>
</a>
</g>
</g>
<!-- n4 -->
<g id="node4" class="node">
<title>n4</title>
<g id="a_node4"><a xlink:title="&#10; ">
<polygon fill="#d3d3d3" stroke="#000000" points="326.6348,-294 155.3652,-294 155.3652,-258 326.6348,-258 326.6348,-294"/>
<text text-anchor="middle" x="241" y="-271.8" font-family="Times,serif" font-size="14.00" fill="#000000">DeliveryDroneSystem.Impl</text>
</a>
</g>
</g>
<!-- n3&#45;&gt;n4 -->
<g id="edge2" class="edge">
<title>n3&#45;&gt;n4</title>
<path fill="none" stroke="#000000" d="M237.2315,-120.2407C247.1678,-125.2782 256.7198,-131.7503 264,-140 294.3855,-174.432 310.7394,-199.0279 290,-240 287.9605,-244.0292 285.2342,-247.7172 282.1076,-251.0653"/>
<polygon fill="#000000" stroke="#000000" points="279.7213,-248.5049 274.7349,-257.8529 284.4625,-253.6548 279.7213,-248.5049"/>
<text text-anchor="middle" x="310.1069" y="-185.8" font-family="Times,serif" font-size="14.00" fill="#000000">c15</text>
</g>
<!-- n3&#45;&gt;n4 -->
<g id="edge9" class="edge">
<title>n3&#45;&gt;n4</title>
<path fill="none" stroke="#000000" d="M237.2032,-113.0127C269.6511,-121.8107 308.1147,-138.9487 324,-172 337.4948,-200.0777 328.9064,-217.851 307,-240 302.4826,-244.5674 297.2626,-248.7093 291.7771,-252.4204"/>
<polygon fill="#000000" stroke="#000000" points="289.6321,-249.6334 283.0015,-257.8968 293.3381,-255.5719 289.6321,-249.6334"/>
<text text-anchor="middle" x="341.1069" y="-185.8" font-family="Times,serif" font-size="14.00" fill="#000000">c31</text>
</g>
<!-- n3&#45;&gt;n4 -->
<g id="edge22" class="edge">
<title>n3&#45;&gt;n4</title>
<path fill="none" stroke="#000000" d="M164.9007,-122.0405C152.4435,-134.6381 137.5667,-152.6181 130.7861,-172 125.5026,-187.1025 126.6925,-192.5325 130.7861,-208 134.973,-223.82 136.6235,-229.2937 149,-240 154.9284,-245.1284 161.6723,-249.573 168.7515,-253.4146"/>
<polygon fill="#000000" stroke="#000000" points="167.3516,-256.6277 177.8618,-257.9642 170.4791,-250.3651 167.3516,-256.6277"/>
<text text-anchor="middle" x="141.1069" y="-185.8" font-family="Times,serif" font-size="14.00" fill="#000000">c28</text>
</g>
<!-- n3&#45;&gt;n5 -->
<g id="edge3" class="edge">
<title>n3&#45;&gt;n5</title>
<path fill="none" stroke="#000000" d="M132.6254,-114.8527C104.328,-121.5719 72.9817,-130.6748 62,-140 43.2106,-155.9551 38,-165.3504 38,-190 38,-448 38,-448 38,-448 38,-470.3206 50.867,-491.9157 63.6751,-507.8828"/>
<polygon fill="#000000" stroke="#000000" points="61.1618,-510.3306 70.2991,-515.6936 66.5005,-505.8031 61.1618,-510.3306"/>
<text text-anchor="middle" x="44.6069" y="-314.8" font-family="Times,serif" font-size="14.00" fill="#000000">c4</text>
</g>
<!-- n3&#45;&gt;n5 -->
<g id="edge26" class="edge">
<title>n3&#45;&gt;n5</title>
<path fill="none" stroke="#000000" d="M134.0105,-122.1251C105.6421,-135.8159 76,-157.8206 76,-190 76,-448 76,-448 76,-448 76,-467.4474 79.2902,-489.0934 82.5601,-505.8039"/>
<polygon fill="#000000" stroke="#000000" points="79.2163,-506.917 84.6712,-515.9996 86.0709,-505.4976 79.2163,-506.917"/>
<text text-anchor="middle" x="86.1069" y="-314.8" font-family="Times,serif" font-size="14.00" fill="#000000">c26</text>
</g>
<!-- n10 -->
<g id="node10" class="node">
<title>n10</title>
<g id="a_node10"><a xlink:title="CAPEC&#45;507:Physical Theft; &#10; CAPEC&#45;439:Manipulation During Distribution; &#10; CAPEC&#45;440:Hardware Integrity Attack; &#10; insideTrustedBoundary">
<polygon fill="#ff0000" stroke="#000000" points="348.3419,-36 195.6581,-36 195.6581,0 348.3419,0 348.3419,-36"/>
<text text-anchor="middle" x="272" y="-13.8" font-family="Times,serif" font-size="14.00" fill="#000000">deliveryItemMechanism</text>
</a>
</g>
</g>
<!-- n3&#45;&gt;n10 -->
<g id="edge31" class="edge">
<title>n3&#45;&gt;n10</title>
<path fill="none" stroke="#000000" d="M223.2105,-85.8915C231.3727,-80.8677 239.4866,-74.8725 246,-68 252.1246,-61.5377 257.1803,-53.3518 261.1532,-45.4843"/>
<polygon fill="#000000" stroke="#000000" points="264.4344,-46.7277 265.4611,-36.1827 258.0826,-43.7858 264.4344,-46.7277"/>
<text text-anchor="middle" x="267.1069" y="-56.8" font-family="Times,serif" font-size="14.00" fill="#000000">c25</text>
</g>
<!-- n11 -->
<g id="node11" class="node">
<title>n11</title>
<g id="a_node11"><a xlink:title="CAPEC&#45;440:Hardware Integrity Attack; &#10; CAPEC&#45;439:Manipulation During Distribution; &#10; CAPEC&#45;507:Physical Theft; &#10; insideTrustedBoundary">
<polygon fill="#ff0000" stroke="#000000" points="177.4087,-36 120.5913,-36 120.5913,0 177.4087,0 177.4087,-36"/>
<text text-anchor="middle" x="149" y="-13.8" font-family="Times,serif" font-size="14.00" fill="#000000">camera</text>
</a>
</g>
</g>
<!-- n3&#45;&gt;n11 -->
<g id="edge28" class="edge">
<title>n3&#45;&gt;n11</title>
<path fill="none" stroke="#000000" d="M177.3653,-85.7616C172.497,-74.1316 166.094,-58.8357 160.6037,-45.72"/>
<polygon fill="#000000" stroke="#000000" points="163.7137,-44.085 156.6237,-36.2121 157.2566,-46.788 163.7137,-44.085"/>
<text text-anchor="middle" x="180.1069" y="-56.8" font-family="Times,serif" font-size="14.00" fill="#000000">c27</text>
</g>
<!-- n12 -->
<g id="node12" class="node">
<title>n12</title>
<g id="a_node12"><a xlink:title="CAPEC&#45;137:Parameter Injection; &#10; CAPEC&#45;22:Exploiting Trust in Client; &#10; CAPEC&#45;25:Forced Deadlock; &#10; CAPEC&#45;175:Code Inclusion; &#10; CAPEC&#45;28:Fuzzing; &#10; CAPEC&#45;248:Command Injection; &#10; CAPEC&#45;594:Traffic Injection; &#10; CAPEC&#45;440:Hardware Integrity Attack; &#10; CAPEC&#45;242:Code Injection; &#10; CAPEC&#45;125:Flooding; &#10; CAPEC&#45;74:Manipulating User State; &#10; CAPEC&#45;507:Physical Theft; &#10; CAPEC&#45;151:Identity Spoofing; &#10; CAPEC&#45;130:Excessive Allocation; &#10; CAPEC&#45;123:Buffer Manipulation; &#10; CAPEC&#45;607:Obstruction; &#10; CAPEC&#45;586:Object Injection; &#10; CAPEC&#45;131:Resource Leak Exposure; &#10; CAPEC&#45;26:Leveraging Race Conditions; &#10; CAPEC&#45;439:Manipulation During Distribution; &#10; tamperProtection; &#10; physicalAccessControl; &#10; staticCodeAnalysis; &#10; secureBoot; &#10; resourceAvailability; &#10; removeIdentifyingInformation; &#10; resourceIsolation; &#10; supplyChainSecurity; &#10; controlReceivedFromUntrusted; &#10; insideTrustedBoundary; &#10; dataReceivedFromUntrusted">
<polygon fill="#ff0000" stroke="#000000" points="214,-208 160,-208 160,-172 214,-172 214,-208"/>
<text text-anchor="middle" x="187" y="-185.8" font-family="Times,serif" font-size="14.00" fill="#000000">radio</text>
</a>
</g>
</g>
<!-- n3&#45;&gt;n12 -->
<g id="edge10" class="edge">
<title>n3&#45;&gt;n12</title>
<path fill="none" stroke="#000000" d="M171.3504,-122.1888C165.9695,-131.5289 161.7196,-143.1908 164.7861,-154 165.6405,-157.0116 166.8262,-160.0183 168.2092,-162.9383"/>
<polygon fill="#000000" stroke="#000000" points="165.2409,-164.8037 173.1351,-171.87 171.3706,-161.4232 165.2409,-164.8037"/>
<text text-anchor="middle" x="175.1069" y="-142.8" font-family="Times,serif" font-size="14.00" fill="#000000">c10</text>
</g>
<!-- n4&#45;&gt;n1 -->
<g id="edge17" class="edge">
<title>n4&#45;&gt;n1</title>
<path fill="none" stroke="#000000" d="M230.6757,-294.151C221.9978,-311.1331 211,-337.49 211,-362 211,-620 211,-620 211,-620 211,-639.2757 209.4814,-660.9227 207.9723,-677.6767"/>
<polygon fill="#000000" stroke="#000000" points="204.462,-677.6188 206.9979,-687.9057 211.4305,-678.2827 204.462,-677.6188"/>
<text text-anchor="middle" x="221.1069" y="-486.8" font-family="Times,serif" font-size="14.00" fill="#000000">c22</text>
</g>
<!-- n4&#45;&gt;n1 -->
<g id="edge25" class="edge">
<title>n4&#45;&gt;n1</title>
<path fill="none" stroke="#000000" d="M245.3288,-294.0004C249.1105,-311.3181 254,-338.2927 254,-362 254,-620 254,-620 254,-620 254,-642.2425 241.4733,-663.9784 229.0873,-680.0336"/>
<polygon fill="#000000" stroke="#000000" points="226.2938,-677.9212 222.6901,-687.8843 231.7204,-682.343 226.2938,-677.9212"/>
<text text-anchor="middle" x="264.1069" y="-486.8" font-family="Times,serif" font-size="14.00" fill="#000000">c1b</text>
</g>
<!-- n4&#45;&gt;n3 -->
<g id="edge11" class="edge">
<title>n4&#45;&gt;n3</title>
<path fill="none" stroke="#000000" d="M248.2684,-257.9112C251.1706,-248.395 253.3324,-236.5451 251,-226 243.1143,-190.3474 221.4159,-154.1289 205.0338,-130.5225"/>
<polygon fill="#000000" stroke="#000000" points="207.7047,-128.239 199.0554,-122.1201 202.001,-132.2972 207.7047,-128.239"/>
<text text-anchor="middle" x="256.1069" y="-185.8" font-family="Times,serif" font-size="14.00" fill="#000000">c14</text>
</g>
<!-- n4&#45;&gt;n12 -->
<g id="edge29" class="edge">
<title>n4&#45;&gt;n12</title>
<path fill="none" stroke="#000000" d="M234.5507,-257.7224C230.7117,-247.9371 225.3516,-235.8969 219,-226 216.8264,-222.6132 214.3392,-219.2275 211.733,-215.9622"/>
<polygon fill="#000000" stroke="#000000" points="214.2567,-213.5266 205.1207,-208.1615 208.9169,-218.0529 214.2567,-213.5266"/>
<text text-anchor="middle" x="237.1069" y="-228.8" font-family="Times,serif" font-size="14.00" fill="#000000">c16</text>
</g>
<!-- n5&#45;&gt;n2 -->
<g id="edge5" class="edge">
<title>n5&#45;&gt;n2</title>
<path fill="none" stroke="#000000" d="M96.6237,-552.2121C101.4897,-563.8366 107.8922,-579.1313 113.3839,-592.2503"/>
<polygon fill="#000000" stroke="#000000" points="110.2753,-593.8887 117.3653,-601.7616 116.7324,-591.1857 110.2753,-593.8887"/>
<text text-anchor="middle" x="120.1069" y="-572.8" font-family="Times,serif" font-size="14.00" fill="#000000">c24</text>
</g>
<!-- n5&#45;&gt;n3 -->
<g id="edge23" class="edge">
<title>n5&#45;&gt;n3</title>
<path fill="none" stroke="#000000" d="M51.256,-515.8692C26.999,-501.3079 0,-478.2959 0,-448 0,-448 0,-448 0,-190 0,-160.1031 19.4318,-155.4949 45,-140 68.4001,-125.819 97.2619,-117.1873 122.6889,-111.9504"/>
<polygon fill="#000000" stroke="#000000" points="123.4546,-115.3673 132.6123,-110.0393 122.1308,-108.4936 123.4546,-115.3673"/>
<text text-anchor="middle" x="6.6069" y="-314.8" font-family="Times,serif" font-size="14.00" fill="#000000">c5</text>
</g>
<!-- n8 -->
<g id="node8" class="node">
<title>n8</title>
<g id="a_node8"><a xlink:title="CAPEC&#45;439:Manipulation During Distribution; &#10; CAPEC&#45;440:Hardware Integrity Attack; &#10; CAPEC&#45;507:Physical Theft; &#10; insideTrustedBoundary">
<polygon fill="#ff0000" stroke="#000000" points="165,-466 111,-466 111,-430 165,-430 165,-466"/>
<text text-anchor="middle" x="138" y="-443.8" font-family="Times,serif" font-size="14.00" fill="#000000">fc</text>
</a>
</g>
</g>
<!-- n5&#45;&gt;n8 -->
<g id="edge19" class="edge">
<title>n5&#45;&gt;n8</title>
<path fill="none" stroke="#000000" d="M109.1719,-515.9263C114.2487,-510.5637 119.2999,-504.4007 123,-498 126.8667,-491.3112 129.8215,-483.5325 132.043,-476.1316"/>
<polygon fill="#000000" stroke="#000000" points="135.4401,-476.9756 134.6345,-466.4114 128.6764,-475.1722 135.4401,-476.9756"/>
<text text-anchor="middle" x="136.6069" y="-486.8" font-family="Times,serif" font-size="14.00" fill="#000000">c2</text>
</g>
<!-- n6 -->
<g id="node6" class="node">
<title>n6</title>
<g id="a_node6"><a xlink:title="&#10; dataReceivedFromUntrusted">
<polygon fill="#d3d3d3" stroke="#000000" points="407.9039,-724 272.0961,-724 272.0961,-688 407.9039,-688 407.9039,-724"/>
<text text-anchor="middle" x="340" y="-701.8" font-family="Times,serif" font-size="14.00" fill="#000000">PositionSensors.Impl</text>
</a>
</g>
</g>
<!-- n7 -->
<g id="node7" class="node">
<title>n7</title>
<g id="a_node7"><a xlink:title="CAPEC&#45;438:Modification During Manufacture; &#10; CAPEC&#45;184:Software Integrity Attack; &#10; CAPEC&#45;507:Physical Theft; &#10; CAPEC&#45;624:Fault Injection; &#10; CAPEC&#45;439:Manipulation During Distribution; &#10; CAPEC&#45;440:Hardware Integrity Attack; &#10; insideTrustedBoundary">
<polygon fill="#ff0000" stroke="#000000" points="343,-638 289,-638 289,-602 343,-602 343,-638"/>
<text text-anchor="middle" x="316" y="-615.8" font-family="Times,serif" font-size="14.00" fill="#000000">imu</text>
</a>
</g>
</g>
<!-- n6&#45;&gt;n7 -->
<g id="edge4" class="edge">
<title>n6&#45;&gt;n7</title>
<path fill="none" stroke="#000000" d="M312.3782,-687.775C306.8744,-682.7243 301.8511,-676.7468 298.7861,-670 295.6013,-662.9893 296.3512,-655.2052 298.7995,-647.9071"/>
<polygon fill="#000000" stroke="#000000" points="302.169,-648.9384 302.9806,-638.3747 295.7585,-646.1266 302.169,-648.9384"/>
<text text-anchor="middle" x="305.6069" y="-658.8" font-family="Times,serif" font-size="14.00" fill="#000000">c2</text>
</g>
<!-- n13 -->
<g id="node13" class="node">
<title>n13</title>
<g id="a_node13"><a xlink:title="CAPEC&#45;151:Identity Spoofing; &#10; CAPEC&#45;440:Hardware Integrity Attack; &#10; CAPEC&#45;26:Leveraging Race Conditions; &#10; CAPEC&#45;607:Obstruction; &#10; CAPEC&#45;25:Forced Deadlock; &#10; CAPEC&#45;115:Authentication Bypass; &#10; CAPEC&#45;130:Excessive Allocation; &#10; CAPEC&#45;125:Flooding; &#10; CAPEC&#45;438:Modification During Manufacture; &#10; CAPEC&#45;21:Exploitation of Trusted Credentials; &#10; CAPEC&#45;28:Fuzzing; &#10; CAPEC&#45;114:Authentication Abuse; &#10; CAPEC&#45;507:Physical Theft; &#10; CAPEC&#45;22:Exploiting Trust in Client; &#10; CAPEC&#45;74:Manipulating User State; &#10; CAPEC&#45;131:Resource Leak Exposure; &#10; CAPEC&#45;439:Manipulation During Distribution; &#10; CAPEC&#45;624:Fault Injection; &#10; memoryProtection; &#10; dosProtection; &#10; inputValidation; &#10; logging; &#10; heterogeneity; &#10; encryptedStorage; &#10; auditMessageResponses; &#10; deviceAuthentication; &#10; controlSentToUntrusted; &#10; controlReceivedFromUntrusted; &#10; insideTrustedBoundary">
<polygon fill="#ff0000" stroke="#000000" points="427,-638 373,-638 373,-602 427,-602 427,-638"/>
<text text-anchor="middle" x="400" y="-615.8" font-family="Times,serif" font-size="14.00" fill="#000000">gps</text>
</a>
</g>
</g>
<!-- n6&#45;&gt;n13 -->
<g id="edge12" class="edge">
<title>n6&#45;&gt;n13</title>
<path fill="none" stroke="#000000" d="M350.5616,-687.5823C356.2632,-677.9762 363.5923,-666.145 370.7861,-656 373.0777,-652.7684 375.5679,-649.4487 378.0958,-646.1942"/>
<polygon fill="#000000" stroke="#000000" points="380.8707,-648.3282 384.3651,-638.3262 375.396,-643.9659 380.8707,-648.3282"/>
<text text-anchor="middle" x="376.6069" y="-658.8" font-family="Times,serif" font-size="14.00" fill="#000000">c1</text>
</g>
<!-- n7&#45;&gt;n6 -->
<g id="edge21" class="edge">
<title>n7&#45;&gt;n6</title>
<path fill="none" stroke="#000000" d="M321.0824,-638.2121C324.2947,-649.7226 328.5112,-664.8318 332.1481,-677.8639"/>
<polygon fill="#000000" stroke="#000000" points="328.851,-679.0705 334.9102,-687.7616 335.5933,-677.1888 328.851,-679.0705"/>
<text text-anchor="middle" x="336.6069" y="-658.8" font-family="Times,serif" font-size="14.00" fill="#000000">c4</text>
</g>
<!-- n8&#45;&gt;n5 -->
<g id="edge30" class="edge">
<title>n8&#45;&gt;n5</title>
<path fill="none" stroke="#000000" d="M119.0484,-466.2937C114.2389,-471.6572 109.4133,-477.7656 105.7861,-484 101.8606,-490.7472 98.6881,-498.5454 96.2023,-505.9464"/>
<polygon fill="#000000" stroke="#000000" points="92.8104,-505.0699 93.2322,-515.6564 99.5043,-507.1175 92.8104,-505.0699"/>
<text text-anchor="middle" x="112.6069" y="-486.8" font-family="Times,serif" font-size="14.00" fill="#000000">c3</text>
</g>
<!-- n9 -->
<g id="node9" class="node">
<title>n9</title>
<g id="a_node9"><a xlink:title="CAPEC&#45;507:Physical Theft; &#10; CAPEC&#45;439:Manipulation During Distribution; &#10; CAPEC&#45;440:Hardware Integrity Attack; &#10; insideTrustedBoundary">
<polygon fill="#ff0000" stroke="#000000" points="182.8113,-380 115.1887,-380 115.1887,-344 182.8113,-344 182.8113,-380"/>
<text text-anchor="middle" x="149" y="-357.8" font-family="Times,serif" font-size="14.00" fill="#000000">actuation</text>
</a>
</g>
</g>
<!-- n8&#45;&gt;n9 -->
<g id="edge6" class="edge">
<title>n8&#45;&gt;n9</title>
<path fill="none" stroke="#000000" d="M126.4132,-429.9194C121.7619,-420.4055 118.2455,-408.5552 121.7861,-398 122.8576,-394.8059 124.3368,-391.6692 126.0568,-388.6606"/>
<polygon fill="#000000" stroke="#000000" points="129.1356,-390.3521 131.7711,-380.0903 123.3115,-386.4688 129.1356,-390.3521"/>
<text text-anchor="middle" x="132.1069" y="-400.8" font-family="Times,serif" font-size="14.00" fill="#000000">c19</text>
</g>
<!-- n9&#45;&gt;n4 -->
<g id="edge32" class="edge">
<title>n9&#45;&gt;n4</title>
<path fill="none" stroke="#000000" d="M156.1644,-343.7539C160.868,-333.5052 167.8145,-321.0052 176.7861,-312 181.2851,-307.4842 186.4683,-303.3616 191.8985,-299.6503"/>
<polygon fill="#000000" stroke="#000000" points="193.9948,-302.4656 200.572,-294.1595 190.2506,-296.5511 193.9948,-302.4656"/>
<text text-anchor="middle" x="187.1069" y="-314.8" font-family="Times,serif" font-size="14.00" fill="#000000">c32</text>
</g>
<!-- n9&#45;&gt;n8 -->
<g id="edge15" class="edge">
<title>n9&#45;&gt;n8</title>
<path fill="none" stroke="#000000" d="M146.6705,-380.2121C145.2129,-391.6086 143.3039,-406.5329 141.6484,-419.4762"/>
<polygon fill="#000000" stroke="#000000" points="138.1299,-419.3983 140.3328,-429.7616 145.0734,-420.2865 138.1299,-419.3983"/>
<text text-anchor="middle" x="155.1069" y="-400.8" font-family="Times,serif" font-size="14.00" fill="#000000">c20</text>
</g>
<!-- n10&#45;&gt;n3 -->
<g id="edge7" class="edge">
<title>n10&#45;&gt;n3</title>
<path fill="none" stroke="#000000" d="M251.8155,-36.066C245.6306,-41.7252 238.8583,-48.0485 232.7861,-54 224.9397,-61.6905 216.5976,-70.271 209.1164,-78.1229"/>
<polygon fill="#000000" stroke="#000000" points="206.3039,-76.0028 201.9726,-85.6719 211.3882,-80.8143 206.3039,-76.0028"/>
<text text-anchor="middle" x="239.6069" y="-56.8" font-family="Times,serif" font-size="14.00" fill="#000000">c7</text>
</g>
<!-- n10&#45;&gt;n4 -->
<g id="edge14" class="edge">
<title>n10&#45;&gt;n4</title>
<path fill="none" stroke="#000000" d="M289.9003,-36.0378C320.7833,-69.4437 378.6027,-143.4257 355,-208 347.5214,-228.4605 330.022,-243.0825 310.922,-253.388"/>
<polygon fill="#000000" stroke="#000000" points="309.1415,-250.365 301.7603,-257.9655 312.2702,-256.6269 309.1415,-250.365"/>
<text text-anchor="middle" x="369.1069" y="-142.8" font-family="Times,serif" font-size="14.00" fill="#000000">c30</text>
</g>
<!-- n11&#45;&gt;n3 -->
<g id="edge8" class="edge">
<title>n11&#45;&gt;n3</title>
<path fill="none" stroke="#000000" d="M146.107,-36.2464C145.3293,-46.0224 145.6432,-58.0639 149.7861,-68 151.2519,-71.5153 153.2384,-74.8766 155.5261,-78.0346"/>
<polygon fill="#000000" stroke="#000000" points="153.0168,-80.4886 162.1342,-85.8852 158.3722,-75.9808 153.0168,-80.4886"/>
<text text-anchor="middle" x="156.6069" y="-56.8" font-family="Times,serif" font-size="14.00" fill="#000000">c9</text>
</g>
<!-- n12&#45;&gt;n3 -->
<g id="edge20" class="edge">
<title>n12&#45;&gt;n3</title>
<path fill="none" stroke="#000000" d="M186.5759,-171.7616C186.3107,-160.3597 185.9636,-145.4342 185.6627,-132.494"/>
<polygon fill="#000000" stroke="#000000" points="189.1552,-132.128 185.4235,-122.2121 182.1571,-132.2908 189.1552,-132.128"/>
<text text-anchor="middle" x="196.8506" y="-142.8" font-family="Times,serif" font-size="14.00" fill="#000000">c11</text>
</g>
<!-- n12&#45;&gt;n4 -->
<g id="edge24" class="edge">
<title>n12&#45;&gt;n4</title>
<path fill="none" stroke="#000000" d="M164.6254,-208.2042C155.6522,-217.7519 148.8866,-229.5952 155.7861,-240 158.7608,-244.486 162.4172,-248.4144 166.5258,-251.8543"/>
<polygon fill="#000000" stroke="#000000" points="164.7599,-254.8952 174.9239,-257.8857 168.8432,-249.2095 164.7599,-254.8952"/>
<text text-anchor="middle" x="166.1069" y="-228.8" font-family="Times,serif" font-size="14.00" fill="#000000">c29</text>
</g>
<!-- n12&#45;&gt;n4 -->
<g id="edge27" class="edge">
<title>n12&#45;&gt;n4</title>
<path fill="none" stroke="#000000" d="M188.5014,-208.1659C189.9842,-218.1465 192.9309,-230.4087 198.7861,-240 201.0446,-243.6995 203.8134,-247.2107 206.8434,-250.4856"/>
<polygon fill="#000000" stroke="#000000" points="204.6509,-253.2345 214.2701,-257.6754 209.5198,-248.2051 204.6509,-253.2345"/>
<text text-anchor="middle" x="209.1069" y="-228.8" font-family="Times,serif" font-size="14.00" fill="#000000">c17</text>
</g>
<!-- n13&#45;&gt;n6 -->
<g id="edge18" class="edge">
<title>n13&#45;&gt;n6</title>
<path fill="none" stroke="#000000" d="M396.8097,-638.2404C394.4364,-648.2443 390.4595,-660.505 384,-670 381.297,-673.9732 378.0307,-677.7372 374.5131,-681.2279"/>
<polygon fill="#000000" stroke="#000000" points="372.1074,-678.6845 367.0396,-687.9887 376.8035,-683.8756 372.1074,-678.6845"/>
<text text-anchor="middle" x="397.6069" y="-658.8" font-family="Times,serif" font-size="14.00" fill="#000000">c3</text>
</g>
</g>
</svg>
