<?xml version="1.0" encoding="UTF-8" standalone="no"?>
<!DOCTYPE svg PUBLIC "-//W3C//DTD SVG 1.1//EN"
 "http://www.w3.org/Graphics/SVG/1.1/DTD/svg11.dtd">
<!-- Generated by graphviz version 2.38.0 (20140413.2041)
 -->
<!-- Title: gRun_sadl11 Pages: 1 -->
<svg width="426pt" height="763pt"
 viewBox="0.00 0.00 425.50 763.00" xmlns="http://www.w3.org/2000/svg" xmlns:xlink="http://www.w3.org/1999/xlink">
<g id="graph0" class="graph" transform="scale(1 1) rotate(0) translate(4 759)">
<title>gRun_sadl11</title>
<polygon fill="white" stroke="none" points="-4,4 -4,-759 421.5,-759 421.5,4 -4,4"/>
<text text-anchor="middle" x="56.5" y="-739.8" font-family="Times New Roman,serif" font-size="14.00">Cmd 12 &#160;(Graph)</text>
<!-- n1 -->
<g id="node1" class="node"><title>n1</title>
<g id="a_node1"><a xlink:title="&#10; ">
<polygon fill="lightgrey" stroke="black" points="215.5,-732 150.5,-732 150.5,-696 215.5,-696 215.5,-732"/>
<text text-anchor="middle" x="183" y="-710.3" font-family="Times New Roman,serif" font-size="14.00">posSens</text>
</a>
</g>
</g>
<!-- n2 -->
<g id="node2" class="node"><title>n2</title>
<g id="a_node2"><a xlink:title="CAPEC&#45;439:Manipulation During Distribution; &#10; CAPEC&#45;507:Physical Theft; &#10; CAPEC&#45;440:Hardware Integrity Attack; &#10; hasSensitiveInfo; &#10; insideTrustedBoundary">
<polygon fill="red" stroke="black" points="175.5,-645 60.5,-645 60.5,-609 175.5,-609 175.5,-645"/>
<text text-anchor="middle" x="118" y="-623.3" font-family="Times New Roman,serif" font-size="14.00">positionEstimator</text>
</a>
</g>
</g>
<!-- n1&#45;&gt;n2 -->
<g id="edge1" class="edge"><title>n1&#45;&gt;n2</title>
<path fill="none" stroke="black" d="M150.337,-703.007C138.36,-697.602 126.027,-689.586 119,-678 114.976,-671.365 113.64,-663.269 113.605,-655.54"/>
<polygon fill="black" stroke="black" points="117.108,-655.598 114.235,-645.4 110.122,-655.164 117.108,-655.598"/>
<text text-anchor="middle" x="129.5" y="-666.8" font-family="Times New Roman,serif" font-size="14.00">c12</text>
</g>
<!-- n1&#45;&gt;n2 -->
<g id="edge16" class="edge"><title>n1&#45;&gt;n2</title>
<path fill="none" stroke="black" d="M169.846,-695.799C160.507,-683.587 147.818,-666.992 137.33,-653.278"/>
<polygon fill="black" stroke="black" points="139.989,-650.993 131.134,-645.175 134.428,-655.245 139.989,-650.993"/>
<text text-anchor="middle" x="168.5" y="-666.8" font-family="Times New Roman,serif" font-size="14.00">c18a</text>
</g>
<!-- n5 -->
<g id="node5" class="node"><title>n5</title>
<g id="a_node5"><a xlink:title="CAPEC&#45;507:Physical Theft; &#10; CAPEC&#45;439:Manipulation During Distribution; &#10; CAPEC&#45;440:Hardware Integrity Attack; &#10; insideTrustedBoundary">
<polygon fill="red" stroke="black" points="117.5,-558 44.5,-558 44.5,-522 117.5,-522 117.5,-558"/>
<text text-anchor="middle" x="81" y="-536.3" font-family="Times New Roman,serif" font-size="14.00">navigation</text>
</a>
</g>
</g>
<!-- n2&#45;&gt;n5 -->
<g id="edge13" class="edge"><title>n2&#45;&gt;n5</title>
<path fill="none" stroke="black" d="M93.292,-608.808C87.9137,-603.747 82.9535,-597.736 80,-591 76.9667,-584.082 76.1105,-576.092 76.3021,-568.556"/>
<polygon fill="black" stroke="black" points="79.8087,-568.623 77.1529,-558.367 72.8329,-568.041 79.8087,-568.623"/>
<text text-anchor="middle" x="87" y="-579.8" font-family="Times New Roman,serif" font-size="14.00">c1</text>
</g>
<!-- n3 -->
<g id="node3" class="node"><title>n3</title>
<g id="a_node3"><a xlink:title="CAPEC&#45;507:Physical Theft; &#10; CAPEC&#45;184:Software Integrity Attack; &#10; CAPEC&#45;438:Modification During Manufacture; &#10; CAPEC&#45;440:Hardware Integrity Attack; &#10; CAPEC&#45;439:Manipulation During Distribution; &#10; CAPEC&#45;624:Fault Injection; &#10; insideTrustedBoundary">
<polygon fill="red" stroke="black" points="235.5,-123 134.5,-123 134.5,-87 235.5,-87 235.5,-123"/>
<text text-anchor="middle" x="185" y="-101.3" font-family="Times New Roman,serif" font-size="14.00">deliveryPlanner</text>
</a>
</g>
</g>
<!-- n4 -->
<g id="node4" class="node"><title>n4</title>
<g id="a_node4"><a xlink:title="&#10; ">
<polygon fill="lightgrey" stroke="black" points="326.5,-297 159.5,-297 159.5,-261 326.5,-261 326.5,-297"/>
<text text-anchor="middle" x="243" y="-275.3" font-family="Times New Roman,serif" font-size="14.00">DeliveryDroneSystem.Impl</text>
</a>
</g>
</g>
<!-- n3&#45;&gt;n4 -->
<g id="edge2" class="edge"><title>n3&#45;&gt;n4</title>
<path fill="none" stroke="black" d="M235.68,-120.568C246.485,-125.608 257.026,-132.268 265,-141 296.701,-175.714 314.71,-201.303 293,-243 290.878,-247.075 288.041,-250.774 284.791,-254.107"/>
<polygon fill="black" stroke="black" points="282.345,-251.597 277.136,-260.823 286.961,-256.859 282.345,-251.597"/>
<text text-anchor="middle" x="313.5" y="-188.3" font-family="Times New Roman,serif" font-size="14.00">c15</text>
</g>
<!-- n3&#45;&gt;n4 -->
<g id="edge9" class="edge"><title>n3&#45;&gt;n4</title>
<path fill="none" stroke="black" d="M235.749,-113.822C269.691,-122.172 311.116,-139.262 328,-174 341.806,-202.406 333.337,-220.671 311,-243 306.268,-247.73 300.764,-251.954 294.976,-255.688"/>
<polygon fill="black" stroke="black" points="293.161,-252.696 286.349,-260.81 296.734,-258.715 293.161,-252.696"/>
<text text-anchor="middle" x="345.5" y="-188.3" font-family="Times New Roman,serif" font-size="14.00">c31</text>
</g>
<!-- n3&#45;&gt;n4 -->
<g id="edge22" class="edge"><title>n3&#45;&gt;n4</title>
<path fill="none" stroke="black" d="M165.796,-123.23C153.228,-135.867 137.901,-154.214 131,-174 125.731,-189.108 126.868,-194.543 131,-210 135.37,-226.35 137.101,-232.043 150,-243 156.102,-248.183 163.047,-252.637 170.33,-256.456"/>
<polygon fill="black" stroke="black" points="169.168,-259.781 179.697,-260.961 172.202,-253.473 169.168,-259.781"/>
<text text-anchor="middle" x="141.5" y="-188.3" font-family="Times New Roman,serif" font-size="14.00">c28</text>
</g>
<!-- n3&#45;&gt;n5 -->
<g id="edge3" class="edge"><title>n3&#45;&gt;n5</title>
<path fill="none" stroke="black" d="M134.382,-110.715C110.201,-115.215 82.203,-123.975 62,-141 43.1509,-156.884 38,-166.35 38,-191 38,-454 38,-454 38,-454 38,-475.628 49.2222,-497.342 60.2006,-513.409"/>
<polygon fill="black" stroke="black" points="57.5093,-515.66 66.2018,-521.718 63.184,-511.562 57.5093,-515.66"/>
<text text-anchor="middle" x="45" y="-318.8" font-family="Times New Roman,serif" font-size="14.00">c4</text>
</g>
<!-- n3&#45;&gt;n5 -->
<g id="edge26" class="edge"><title>n3&#45;&gt;n5</title>
<path fill="none" stroke="black" d="M135.603,-123.008C106.763,-136.414 76,-158.364 76,-191 76,-454 76,-454 76,-454 76,-473.281 77.2979,-494.979 78.5712,-511.627"/>
<polygon fill="black" stroke="black" points="75.096,-512.076 79.3904,-521.761 82.0732,-511.511 75.096,-512.076"/>
<text text-anchor="middle" x="86.5" y="-318.8" font-family="Times New Roman,serif" font-size="14.00">c26</text>
</g>
<!-- n10 -->
<g id="node10" class="node"><title>n10</title>
<g id="a_node10"><a xlink:title="CAPEC&#45;507:Physical Theft; &#10; CAPEC&#45;439:Manipulation During Distribution; &#10; CAPEC&#45;440:Hardware Integrity Attack; &#10; insideTrustedBoundary">
<polygon fill="red" stroke="black" points="343.5,-36 194.5,-36 194.5,-0 343.5,-0 343.5,-36"/>
<text text-anchor="middle" x="269" y="-14.3" font-family="Times New Roman,serif" font-size="14.00">deliveryItemMechanism</text>
</a>
</g>
</g>
<!-- n3&#45;&gt;n10 -->
<g id="edge31" class="edge"><title>n3&#45;&gt;n10</title>
<path fill="none" stroke="black" d="M223.143,-86.9631C231.402,-82.0247 239.575,-76.0296 246,-69 252.05,-62.3815 256.755,-53.8964 260.288,-45.8027"/>
<polygon fill="black" stroke="black" points="263.631,-46.8633 264.028,-36.2759 257.116,-44.3051 263.631,-46.8633"/>
<text text-anchor="middle" x="267.5" y="-57.8" font-family="Times New Roman,serif" font-size="14.00">c25</text>
</g>
<!-- n11 -->
<g id="node11" class="node"><title>n11</title>
<g id="a_node11"><a xlink:title="CAPEC&#45;440:Hardware Integrity Attack; &#10; CAPEC&#45;439:Manipulation During Distribution; &#10; CAPEC&#45;507:Physical Theft; &#10; insideTrustedBoundary">
<polygon fill="red" stroke="black" points="176,-36 120,-36 120,-0 176,-0 176,-36"/>
<text text-anchor="middle" x="148" y="-14.3" font-family="Times New Roman,serif" font-size="14.00">camera</text>
</a>
</g>
</g>
<!-- n3&#45;&gt;n11 -->
<g id="edge28" class="edge"><title>n3&#45;&gt;n11</title>
<path fill="none" stroke="black" d="M177.512,-86.799C172.347,-74.9322 165.38,-58.9279 159.513,-45.4488"/>
<polygon fill="black" stroke="black" points="162.677,-43.9475 155.476,-36.1754 156.258,-46.7414 162.677,-43.9475"/>
<text text-anchor="middle" x="179.5" y="-57.8" font-family="Times New Roman,serif" font-size="14.00">c27</text>
</g>
<!-- n12 -->
<g id="node12" class="node"><title>n12</title>
<g id="a_node12"><a xlink:title="CAPEC&#45;22:Exploiting Trust in Client; &#10; CAPEC&#45;137:Parameter Injection; &#10; CAPEC&#45;25:Forced Deadlock; &#10; CAPEC&#45;175:Code Inclusion; &#10; CAPEC&#45;28:Fuzzing; &#10; CAPEC&#45;248:Command Injection; &#10; CAPEC&#45;594:Traffic Injection; &#10; CAPEC&#45;440:Hardware Integrity Attack; &#10; CAPEC&#45;242:Code Injection; &#10; CAPEC&#45;125:Flooding; &#10; CAPEC&#45;74:Manipulating User State; &#10; CAPEC&#45;507:Physical Theft; &#10; CAPEC&#45;151:Identity Spoofing; &#10; CAPEC&#45;130:Excessive Allocation; &#10; CAPEC&#45;123:Buffer Manipulation; &#10; CAPEC&#45;607:Obstruction; &#10; CAPEC&#45;586:Object Injection; &#10; CAPEC&#45;131:Resource Leak Exposure; &#10; CAPEC&#45;26:Leveraging Race Conditions; &#10; CAPEC&#45;439:Manipulation During Distribution; &#10; tamperProtection; &#10; physicalAccessControl; &#10; staticCodeAnalysis; &#10; secureBoot; &#10; resourceAvailability; &#10; removeIdentifyingInformation; &#10; resourceIsolation; &#10; supplyChainSecurity; &#10; controlReceivedFromUntrusted; &#10; insideTrustedBoundary; &#10; dataReceivedFromUntrusted">
<polygon fill="red" stroke="black" points="215,-210 161,-210 161,-174 215,-174 215,-210"/>
<text text-anchor="middle" x="188" y="-188.3" font-family="Times New Roman,serif" font-size="14.00">radio</text>
</a>
</g>
</g>
<!-- n3&#45;&gt;n12 -->
<g id="edge10" class="edge"><title>n3&#45;&gt;n12</title>
<path fill="none" stroke="black" d="M171.251,-123.277C165.363,-132.769 160.544,-144.849 164,-156 164.981,-159.167 166.36,-162.302 167.964,-165.318"/>
<polygon fill="black" stroke="black" points="165.052,-167.263 173.289,-173.925 171.004,-163.58 165.052,-167.263"/>
<text text-anchor="middle" x="174.5" y="-144.8" font-family="Times New Roman,serif" font-size="14.00">c10</text>
</g>
<!-- n4&#45;&gt;n1 -->
<g id="edge17" class="edge"><title>n4&#45;&gt;n1</title>
<path fill="none" stroke="black" d="M229.796,-297.183C218.482,-313.649 204,-339.672 204,-365 204,-628 204,-628 204,-628 204,-647.889 198.514,-669.652 193.15,-686.177"/>
<polygon fill="black" stroke="black" points="189.809,-685.132 189.876,-695.727 196.43,-687.402 189.809,-685.132"/>
<text text-anchor="middle" x="214.5" y="-492.8" font-family="Times New Roman,serif" font-size="14.00">c22</text>
</g>
<!-- n4&#45;&gt;n1 -->
<g id="edge25" class="edge"><title>n4&#45;&gt;n1</title>
<path fill="none" stroke="black" d="M244.61,-297.239C246.071,-314.399 248,-341.496 248,-365 248,-628 248,-628 248,-628 248,-652.326 230.994,-674.005 214.378,-689.381"/>
<polygon fill="black" stroke="black" points="212.051,-686.767 206.835,-695.989 216.663,-692.033 212.051,-686.767"/>
<text text-anchor="middle" x="259" y="-492.8" font-family="Times New Roman,serif" font-size="14.00">c1b</text>
</g>
<!-- n4&#45;&gt;n3 -->
<g id="edge11" class="edge"><title>n4&#45;&gt;n3</title>
<path fill="none" stroke="black" d="M251.12,-260.888C254.692,-251.237 257.559,-238.953 255,-228 246.44,-191.362 222.827,-154.632 205.381,-131.194"/>
<polygon fill="black" stroke="black" points="208.12,-129.013 199.272,-123.184 202.554,-133.258 208.12,-129.013"/>
<text text-anchor="middle" x="260.5" y="-188.3" font-family="Times New Roman,serif" font-size="14.00">c14</text>
</g>
<!-- n4&#45;&gt;n12 -->
<g id="edge29" class="edge"><title>n4&#45;&gt;n12</title>
<path fill="none" stroke="black" d="M237.029,-260.589C233.206,-250.619 227.706,-238.119 221,-228 218.664,-224.476 215.962,-220.977 213.129,-217.631"/>
<polygon fill="black" stroke="black" points="215.69,-215.244 206.394,-210.161 210.491,-219.931 215.69,-215.244"/>
<text text-anchor="middle" x="240.5" y="-231.8" font-family="Times New Roman,serif" font-size="14.00">c16</text>
</g>
<!-- n5&#45;&gt;n2 -->
<g id="edge5" class="edge"><title>n5&#45;&gt;n2</title>
<path fill="none" stroke="black" d="M88.4764,-558.175C93.6393,-570.036 100.605,-586.039 106.474,-599.522"/>
<polygon fill="black" stroke="black" points="103.312,-601.027 110.512,-608.799 109.73,-598.233 103.312,-601.027"/>
<text text-anchor="middle" x="112.5" y="-579.8" font-family="Times New Roman,serif" font-size="14.00">c24</text>
</g>
<!-- n5&#45;&gt;n3 -->
<g id="edge23" class="edge"><title>n5&#45;&gt;n3</title>
<path fill="none" stroke="black" d="M48.9867,-521.89C26.3458,-507.223 0,-483.761 0,-454 0,-454 0,-454 0,-191 0,-135.214 70.317,-115.906 124.248,-109.302"/>
<polygon fill="black" stroke="black" points="124.892,-112.752 134.448,-108.176 124.124,-105.794 124.892,-112.752"/>
<text text-anchor="middle" x="7" y="-318.8" font-family="Times New Roman,serif" font-size="14.00">c5</text>
</g>
<!-- n8 -->
<g id="node8" class="node"><title>n8</title>
<g id="a_node8"><a xlink:title="CAPEC&#45;439:Manipulation During Distribution; &#10; CAPEC&#45;440:Hardware Integrity Attack; &#10; CAPEC&#45;507:Physical Theft; &#10; insideTrustedBoundary">
<polygon fill="red" stroke="black" points="169,-471 115,-471 115,-435 169,-435 169,-471"/>
<text text-anchor="middle" x="142" y="-449.3" font-family="Times New Roman,serif" font-size="14.00">fc</text>
</a>
</g>
</g>
<!-- n5&#45;&gt;n8 -->
<g id="edge19" class="edge"><title>n5&#45;&gt;n8</title>
<path fill="none" stroke="black" d="M106.818,-521.766C113.088,-516.633 119.325,-510.597 124,-504 128.876,-497.12 132.565,-488.778 135.293,-480.896"/>
<polygon fill="black" stroke="black" points="138.649,-481.89 138.251,-471.303 131.96,-479.828 138.649,-481.89"/>
<text text-anchor="middle" x="139" y="-492.8" font-family="Times New Roman,serif" font-size="14.00">c2</text>
</g>
<!-- n6 -->
<g id="node6" class="node"><title>n6</title>
<g id="a_node6"><a xlink:title="&#10; dataReceivedFromUntrusted">
<polygon fill="lightgrey" stroke="black" points="417.5,-732 280.5,-732 280.5,-696 417.5,-696 417.5,-732"/>
<text text-anchor="middle" x="349" y="-710.3" font-family="Times New Roman,serif" font-size="14.00">PositionSensors.Impl</text>
</a>
</g>
</g>
<!-- n7 -->
<g id="node7" class="node"><title>n7</title>
<g id="a_node7"><a xlink:title="CAPEC&#45;438:Modification During Manufacture; &#10; CAPEC&#45;184:Software Integrity Attack; &#10; CAPEC&#45;507:Physical Theft; &#10; CAPEC&#45;624:Fault Injection; &#10; CAPEC&#45;439:Manipulation During Distribution; &#10; CAPEC&#45;440:Hardware Integrity Attack; &#10; insideTrustedBoundary">
<polygon fill="red" stroke="black" points="334,-645 280,-645 280,-609 334,-609 334,-645"/>
<text text-anchor="middle" x="307" y="-623.3" font-family="Times New Roman,serif" font-size="14.00">imu</text>
</a>
</g>
</g>
<!-- n6&#45;&gt;n7 -->
<g id="edge4" class="edge"><title>n6&#45;&gt;n7</title>
<path fill="none" stroke="black" d="M311.639,-695.9C304.959,-691.09 298.895,-685.166 295,-678 291.103,-670.831 291.519,-662.407 293.665,-654.538"/>
<polygon fill="black" stroke="black" points="297.003,-655.598 297.113,-645.004 290.42,-653.217 297.003,-655.598"/>
<text text-anchor="middle" x="302" y="-666.8" font-family="Times New Roman,serif" font-size="14.00">c2</text>
</g>
<!-- n13 -->
<g id="node13" class="node"><title>n13</title>
<g id="a_node13"><a xlink:title="CAPEC&#45;151:Identity Spoofing; &#10; CAPEC&#45;440:Hardware Integrity Attack; &#10; CAPEC&#45;26:Leveraging Race Conditions; &#10; CAPEC&#45;607:Obstruction; &#10; CAPEC&#45;25:Forced Deadlock; &#10; CAPEC&#45;115:Authentication Bypass; &#10; CAPEC&#45;130:Excessive Allocation; &#10; CAPEC&#45;125:Flooding; &#10; CAPEC&#45;438:Modification During Manufacture; &#10; CAPEC&#45;21:Exploitation of Trusted Credentials; &#10; CAPEC&#45;28:Fuzzing; &#10; CAPEC&#45;114:Authentication Abuse; &#10; CAPEC&#45;507:Physical Theft; &#10; CAPEC&#45;22:Exploiting Trust in Client; &#10; CAPEC&#45;74:Manipulating User State; &#10; CAPEC&#45;131:Resource Leak Exposure; &#10; CAPEC&#45;439:Manipulation During Distribution; &#10; CAPEC&#45;624:Fault Injection; &#10; memoryProtection; &#10; dosProtection; &#10; inputValidation; &#10; logging; &#10; heterogeneity; &#10; encryptedStorage; &#10; auditMessageResponses; &#10; deviceAuthentication; &#10; controlSentToUntrusted; &#10; controlReceivedFromUntrusted; &#10; insideTrustedBoundary">
<polygon fill="red" stroke="black" points="414,-645 360,-645 360,-609 414,-609 414,-645"/>
<text text-anchor="middle" x="387" y="-623.3" font-family="Times New Roman,serif" font-size="14.00">gps</text>
</a>
</g>
</g>
<!-- n6&#45;&gt;n13 -->
<g id="edge12" class="edge"><title>n6&#45;&gt;n13</title>
<path fill="none" stroke="black" d="M355.454,-695.706C359.192,-685.999 364.113,-673.719 369,-663 370.291,-660.169 371.691,-657.238 373.123,-654.332"/>
<polygon fill="black" stroke="black" points="376.307,-655.791 377.699,-645.288 370.061,-652.63 376.307,-655.791"/>
<text text-anchor="middle" x="376" y="-666.8" font-family="Times New Roman,serif" font-size="14.00">c1</text>
</g>
<!-- n7&#45;&gt;n6 -->
<g id="edge21" class="edge"><title>n7&#45;&gt;n6</title>
<path fill="none" stroke="black" d="M315.487,-645.175C321.347,-657.036 329.255,-673.039 335.917,-686.522"/>
<polygon fill="black" stroke="black" points="332.933,-688.384 340.501,-695.799 339.209,-685.283 332.933,-688.384"/>
<text text-anchor="middle" x="338" y="-666.8" font-family="Times New Roman,serif" font-size="14.00">c4</text>
</g>
<!-- n8&#45;&gt;n5 -->
<g id="edge30" class="edge"><title>n8&#45;&gt;n5</title>
<path fill="none" stroke="black" d="M122.063,-471.077C116.456,-476.462 110.632,-482.668 106,-489 100.704,-496.239 95.9738,-504.769 92.0908,-512.713"/>
<polygon fill="black" stroke="black" points="88.8223,-511.442 87.7935,-521.986 95.1735,-514.385 88.8223,-511.442"/>
<text text-anchor="middle" x="113" y="-492.8" font-family="Times New Roman,serif" font-size="14.00">c3</text>
</g>
<!-- n9 -->
<g id="node9" class="node"><title>n9</title>
<g id="a_node9"><a xlink:title="CAPEC&#45;507:Physical Theft; &#10; CAPEC&#45;439:Manipulation During Distribution; &#10; CAPEC&#45;440:Hardware Integrity Attack; &#10; insideTrustedBoundary">
<polygon fill="red" stroke="black" points="175.5,-384 108.5,-384 108.5,-348 175.5,-348 175.5,-384"/>
<text text-anchor="middle" x="142" y="-362.3" font-family="Times New Roman,serif" font-size="14.00">actuation</text>
</a>
</g>
</g>
<!-- n8&#45;&gt;n9 -->
<g id="edge6" class="edge"><title>n8&#45;&gt;n9</title>
<path fill="none" stroke="black" d="M128.502,-434.765C125.039,-429.375 121.789,-423.207 120,-417 117.685,-408.966 119.573,-400.537 123.044,-392.936"/>
<polygon fill="black" stroke="black" points="126.121,-394.605 127.887,-384.159 119.992,-391.223 126.121,-394.605"/>
<text text-anchor="middle" x="130.5" y="-405.8" font-family="Times New Roman,serif" font-size="14.00">c19</text>
</g>
<!-- n9&#45;&gt;n4 -->
<g id="edge32" class="edge"><title>n9&#45;&gt;n4</title>
<path fill="none" stroke="black" d="M148.015,-347.953C152.458,-337.368 159.406,-324.095 169,-315 174.059,-310.204 179.895,-305.962 186.026,-302.236"/>
<polygon fill="black" stroke="black" points="188.131,-305.069 195.162,-297.143 184.723,-298.955 188.131,-305.069"/>
<text text-anchor="middle" x="179.5" y="-318.8" font-family="Times New Roman,serif" font-size="14.00">c32</text>
</g>
<!-- n9&#45;&gt;n8 -->
<g id="edge15" class="edge"><title>n9&#45;&gt;n8</title>
<path fill="none" stroke="black" d="M142,-384.175C142,-395.806 142,-411.419 142,-424.734"/>
<polygon fill="black" stroke="black" points="138.5,-424.799 142,-434.799 145.5,-424.799 138.5,-424.799"/>
<text text-anchor="middle" x="152.5" y="-405.8" font-family="Times New Roman,serif" font-size="14.00">c20</text>
</g>
<!-- n10&#45;&gt;n3 -->
<g id="edge7" class="edge"><title>n10&#45;&gt;n3</title>
<path fill="none" stroke="black" d="M250.352,-36.2369C244.415,-41.831 237.868,-48.1135 232,-54 223.969,-62.0564 215.39,-71.0589 207.79,-79.1809"/>
<polygon fill="black" stroke="black" points="205.101,-76.9329 200.852,-86.6386 210.226,-81.7007 205.101,-76.9329"/>
<text text-anchor="middle" x="239" y="-57.8" font-family="Times New Roman,serif" font-size="14.00">c7</text>
</g>
<!-- n10&#45;&gt;n4 -->
<g id="edge14" class="edge"><title>n10&#45;&gt;n4</title>
<path fill="none" stroke="black" d="M287.517,-36.1733C320.633,-69.0733 384.365,-143.624 360,-210 352.137,-231.421 333.398,-246.376 313.169,-256.688"/>
<polygon fill="black" stroke="black" points="311.665,-253.528 304.121,-260.967 314.657,-259.856 311.665,-253.528"/>
<text text-anchor="middle" x="373.5" y="-144.8" font-family="Times New Roman,serif" font-size="14.00">c30</text>
</g>
<!-- n11&#45;&gt;n3 -->
<g id="edge8" class="edge"><title>n11&#45;&gt;n3</title>
<path fill="none" stroke="black" d="M145.18,-36.3549C144.323,-46.3066 144.573,-58.8066 149,-69 150.595,-72.6729 152.777,-76.1546 155.284,-79.3955"/>
<polygon fill="black" stroke="black" points="152.754,-81.8167 162.035,-86.9273 157.966,-77.1446 152.754,-81.8167"/>
<text text-anchor="middle" x="156" y="-57.8" font-family="Times New Roman,serif" font-size="14.00">c9</text>
</g>
<!-- n12&#45;&gt;n3 -->
<g id="edge20" class="edge"><title>n12&#45;&gt;n3</title>
<path fill="none" stroke="black" d="M187.393,-173.799C186.982,-162.163 186.431,-146.548 185.961,-133.237"/>
<polygon fill="black" stroke="black" points="189.457,-133.046 185.606,-123.175 182.461,-133.293 189.457,-133.046"/>
<text text-anchor="middle" x="197.5" y="-144.8" font-family="Times New Roman,serif" font-size="14.00">c11</text>
</g>
<!-- n12&#45;&gt;n4 -->
<g id="edge24" class="edge"><title>n12&#45;&gt;n4</title>
<path fill="none" stroke="black" d="M166.001,-210.262C156.369,-219.959 148.73,-232.24 156,-243 159.133,-247.637 162.993,-251.66 167.329,-255.15"/>
<polygon fill="black" stroke="black" points="165.379,-258.057 175.592,-260.875 169.365,-252.303 165.379,-258.057"/>
<text text-anchor="middle" x="166.5" y="-231.8" font-family="Times New Roman,serif" font-size="14.00">c29</text>
</g>
<!-- n12&#45;&gt;n4 -->
<g id="edge27" class="edge"><title>n12&#45;&gt;n4</title>
<path fill="none" stroke="black" d="M189.368,-210.275C190.822,-220.437 193.82,-233.177 200,-243 202.43,-246.862 205.435,-250.494 208.718,-253.849"/>
<polygon fill="black" stroke="black" points="206.495,-256.56 216.234,-260.732 211.223,-251.397 206.495,-256.56"/>
<text text-anchor="middle" x="210.5" y="-231.8" font-family="Times New Roman,serif" font-size="14.00">c17</text>
</g>
<!-- n13&#45;&gt;n6 -->
<g id="edge18" class="edge"><title>n13&#45;&gt;n6</title>
<path fill="none" stroke="black" d="M388.45,-645.385C388.6,-655.347 387.6,-667.847 383,-678 381.356,-681.629 379.168,-685.106 376.692,-688.364"/>
<polygon fill="black" stroke="black" points="373.999,-686.128 370.09,-695.975 379.287,-690.715 373.999,-686.128"/>
<text text-anchor="middle" x="395" y="-666.8" font-family="Times New Roman,serif" font-size="14.00">c3</text>
</g>
</g>
</svg>
