<?xml version="1.0" encoding="UTF-8" standalone="no"?>
<!DOCTYPE svg PUBLIC "-//W3C//DTD SVG 1.1//EN"
 "http://www.w3.org/Graphics/SVG/1.1/DTD/svg11.dtd">
<!-- Generated by graphviz version 2.38.0 (20140413.2041)
 -->
<!-- Title: gRun_sadl10 Pages: 1 -->
<svg width="983pt" height="676pt"
 viewBox="0.00 0.00 983.00 676.00" xmlns="http://www.w3.org/2000/svg" xmlns:xlink="http://www.w3.org/1999/xlink">
<g id="graph0" class="graph" transform="scale(1 1) rotate(0) translate(4 672)">
<title>gRun_sadl10</title>
<polygon fill="white" stroke="none" points="-4,4 -4,-672 979,-672 979,4 -4,4"/>
<text text-anchor="middle" x="56.5" y="-652.8" font-family="Times New Roman,serif" font-size="14.00">Cmd 11 &#160;(Graph)</text>
<!-- n1 -->
<g id="node1" class="node"><title>n1</title>
<g id="a_node1"><a xlink:title="&#10; ">
<polygon fill="lightgrey" stroke="black" points="528.5,-645 361.5,-645 361.5,-609 528.5,-609 528.5,-645"/>
<text text-anchor="middle" x="445" y="-623.3" font-family="Times New Roman,serif" font-size="14.00">DeliveryDroneSystem.Impl</text>
</a>
</g>
</g>
<!-- n2 -->
<g id="node2" class="node"><title>n2</title>
<g id="a_node2"><a xlink:title="CAPEC&#45;22:Exploiting Trust in Client; &#10; CAPEC&#45;137:Parameter Injection; &#10; CAPEC&#45;25:Forced Deadlock; &#10; CAPEC&#45;175:Code Inclusion; &#10; CAPEC&#45;28:Fuzzing; &#10; CAPEC&#45;248:Command Injection; &#10; CAPEC&#45;594:Traffic Injection; &#10; CAPEC&#45;440:Hardware Integrity Attack; &#10; CAPEC&#45;242:Code Injection; &#10; CAPEC&#45;125:Flooding; &#10; CAPEC&#45;74:Manipulating User State; &#10; CAPEC&#45;507:Physical Theft; &#10; CAPEC&#45;151:Identity Spoofing; &#10; CAPEC&#45;130:Excessive Allocation; &#10; CAPEC&#45;148:Content Spoofing; &#10; CAPEC&#45;123:Buffer Manipulation; &#10; CAPEC&#45;607:Obstruction; &#10; CAPEC&#45;586:Object Injection; &#10; CAPEC&#45;131:Resource Leak Exposure; &#10; CAPEC&#45;26:Leveraging Race Conditions; &#10; CAPEC&#45;439:Manipulation During Distribution; &#10; antiJamming; &#10; dataReceivedFromUntrusted; &#10; insideTrustedBoundary">
<polygon fill="red" stroke="black" points="626,-558 572,-558 572,-522 626,-522 626,-558"/>
<text text-anchor="middle" x="599" y="-536.3" font-family="Times New Roman,serif" font-size="14.00">radio</text>
</a>
</g>
</g>
<!-- n1&#45;&gt;n2 -->
<g id="edge1" class="edge"><title>n1&#45;&gt;n2</title>
<path fill="none" stroke="black" d="M463.06,-608.796C475.033,-598.149 491.522,-584.865 508,-576 528.262,-565.1 537.162,-566.907 562.103,-557.992"/>
<polygon fill="black" stroke="black" points="563.543,-561.188 571.638,-554.353 561.048,-554.648 563.543,-561.188"/>
<text text-anchor="middle" x="518.5" y="-579.8" font-family="Times New Roman,serif" font-size="14.00">c16</text>
</g>
<!-- n3 -->
<g id="node3" class="node"><title>n3</title>
<g id="a_node3"><a xlink:title="&#10; ">
<polygon fill="lightgrey" stroke="black" points="639,-384 585,-384 585,-348 639,-348 639,-384"/>
<text text-anchor="middle" x="612" y="-362.3" font-family="Times New Roman,serif" font-size="14.00">gnc</text>
</a>
</g>
</g>
<!-- n1&#45;&gt;n3 -->
<g id="edge3" class="edge"><title>n1&#45;&gt;n3</title>
<path fill="none" stroke="black" d="M528.792,-620.909C557.022,-616.078 587.539,-607.178 612,-591 626.911,-581.138 629.643,-575.056 635,-558 643.629,-530.527 644.097,-473.18 627,-402 626.32,-399.168 625.429,-396.273 624.421,-393.422"/>
<polygon fill="black" stroke="black" points="627.636,-392.036 620.674,-384.05 621.136,-394.634 627.636,-392.036"/>
<text text-anchor="middle" x="651.5" y="-492.8" font-family="Times New Roman,serif" font-size="14.00">c22</text>
</g>
<!-- n1&#45;&gt;n3 -->
<g id="edge50" class="edge"><title>n1&#45;&gt;n3</title>
<path fill="none" stroke="black" d="M528.547,-617.636C570.928,-612.011 616.979,-603.34 634,-591 672.467,-563.113 672.123,-536.116 666,-489 660.846,-449.338 661.881,-437.258 643,-402 641.209,-398.655 639.038,-395.364 636.685,-392.22"/>
<polygon fill="black" stroke="black" points="639.228,-389.801 630.172,-384.3 633.821,-394.247 639.228,-389.801"/>
<text text-anchor="middle" x="678.5" y="-492.8" font-family="Times New Roman,serif" font-size="14.00">c23</text>
</g>
<!-- n8 -->
<g id="node8" class="node"><title>n8</title>
<g id="a_node8"><a xlink:title="CAPEC&#45;439:Manipulation During Distribution; &#10; CAPEC&#45;440:Hardware Integrity Attack; &#10; CAPEC&#45;507:Physical Theft; &#10; insideTrustedBoundary">
<polygon fill="red" stroke="black" points="481.5,-558 408.5,-558 408.5,-522 481.5,-522 481.5,-558"/>
<text text-anchor="middle" x="445" y="-536.3" font-family="Times New Roman,serif" font-size="14.00">connector</text>
</a>
</g>
</g>
<!-- n1&#45;&gt;n8 -->
<g id="edge34" class="edge"><title>n1&#45;&gt;n8</title>
<path fill="none" stroke="black" d="M445,-608.799C445,-597.163 445,-581.548 445,-568.237"/>
<polygon fill="black" stroke="black" points="448.5,-568.175 445,-558.175 441.5,-568.175 448.5,-568.175"/>
<text text-anchor="middle" x="458.5" y="-579.8" font-family="Times New Roman,serif" font-size="14.00">c14a</text>
</g>
<!-- n2&#45;&gt;n1 -->
<g id="edge25" class="edge"><title>n2&#45;&gt;n1</title>
<path fill="none" stroke="black" d="M577.767,-558.085C564.301,-568.425 546.229,-581.419 529,-591 520.002,-596.004 510.141,-600.729 500.44,-604.992"/>
<polygon fill="black" stroke="black" points="499.041,-601.783 491.221,-608.932 501.792,-608.22 499.041,-601.783"/>
<text text-anchor="middle" x="564.5" y="-579.8" font-family="Times New Roman,serif" font-size="14.00">c29</text>
</g>
<!-- n2&#45;&gt;n1 -->
<g id="edge51" class="edge"><title>n2&#45;&gt;n1</title>
<path fill="none" stroke="black" d="M594.764,-558.144C591.217,-569.044 585.073,-582.633 575,-591 564.294,-599.893 551.534,-606.542 538.256,-611.511"/>
<polygon fill="black" stroke="black" points="536.849,-608.293 528.518,-614.84 539.113,-614.917 536.849,-608.293"/>
<text text-anchor="middle" x="597.5" y="-579.8" font-family="Times New Roman,serif" font-size="14.00">c17</text>
</g>
<!-- n4 -->
<g id="node4" class="node"><title>n4</title>
<g id="a_node4"><a xlink:title="CAPEC&#45;507:Physical Theft; &#10; CAPEC&#45;184:Software Integrity Attack; &#10; CAPEC&#45;438:Modification During Manufacture; &#10; CAPEC&#45;440:Hardware Integrity Attack; &#10; CAPEC&#45;439:Manipulation During Distribution; &#10; CAPEC&#45;624:Fault Injection; &#10; insideTrustedBoundary">
<polygon fill="red" stroke="black" points="437.5,-471 336.5,-471 336.5,-435 437.5,-435 437.5,-471"/>
<text text-anchor="middle" x="387" y="-449.3" font-family="Times New Roman,serif" font-size="14.00">deliveryPlanner</text>
</a>
</g>
</g>
<!-- n2&#45;&gt;n4 -->
<g id="edge19" class="edge"><title>n2&#45;&gt;n4</title>
<path fill="none" stroke="black" d="M595.698,-521.615C592.693,-510.613 587.116,-497.002 577,-489 557.291,-473.41 495.56,-464.08 447.753,-459.022"/>
<polygon fill="black" stroke="black" points="448.085,-455.538 437.782,-458.007 447.376,-462.502 448.085,-455.538"/>
<text text-anchor="middle" x="599.5" y="-492.8" font-family="Times New Roman,serif" font-size="14.00">c36</text>
</g>
<!-- n2&#45;&gt;n4 -->
<g id="edge44" class="edge"><title>n2&#45;&gt;n4</title>
<path fill="none" stroke="black" d="M571.638,-525.647C568.744,-524.365 565.826,-523.124 563,-522 539.102,-512.49 530.666,-516.156 508,-504 498.519,-498.915 498.445,-494.153 489,-489 476.047,-481.934 461.402,-475.901 447.335,-470.935"/>
<polygon fill="black" stroke="black" points="448.31,-467.57 437.716,-467.668 446.059,-474.198 448.31,-467.57"/>
<text text-anchor="middle" x="518.5" y="-492.8" font-family="Times New Roman,serif" font-size="14.00">c11</text>
</g>
<!-- n3&#45;&gt;n1 -->
<g id="edge21" class="edge"><title>n3&#45;&gt;n1</title>
<path fill="none" stroke="black" d="M639.275,-369.431C660.978,-372.916 690.235,-381.392 706,-402 731.519,-435.358 735.074,-560.69 706,-591 683.319,-614.645 604.218,-622.784 538.985,-625.369"/>
<polygon fill="black" stroke="black" points="538.515,-621.883 528.646,-625.738 538.764,-628.879 538.515,-621.883"/>
<text text-anchor="middle" x="737.5" y="-492.8" font-family="Times New Roman,serif" font-size="14.00">c40</text>
</g>
<!-- n3&#45;&gt;n1 -->
<g id="edge26" class="edge"><title>n3&#45;&gt;n1</title>
<path fill="none" stroke="black" d="M639.266,-368.942C664.23,-372.094 700.73,-380.356 724,-402 785.508,-459.21 791.363,-539.501 725,-591 696.596,-613.042 608.714,-621.314 538.898,-624.36"/>
<polygon fill="black" stroke="black" points="538.587,-620.87 528.737,-624.773 538.871,-627.864 538.587,-620.87"/>
<text text-anchor="middle" x="783.5" y="-492.8" font-family="Times New Roman,serif" font-size="14.00">c38</text>
</g>
<!-- n3&#45;&gt;n4 -->
<g id="edge2" class="edge"><title>n3&#45;&gt;n4</title>
<path fill="none" stroke="black" d="M584.856,-371.57C557.557,-376.765 514.659,-386.583 480,-402 468.849,-406.96 467.586,-410.928 457,-417 449.037,-421.567 440.402,-426.162 432.003,-430.451"/>
<polygon fill="black" stroke="black" points="430.385,-427.347 423.026,-434.969 433.532,-433.6 430.385,-427.347"/>
<text text-anchor="middle" x="490.5" y="-405.8" font-family="Times New Roman,serif" font-size="14.00">c35</text>
</g>
<!-- n3&#45;&gt;n4 -->
<g id="edge16" class="edge"><title>n3&#45;&gt;n4</title>
<path fill="none" stroke="black" d="M584.863,-374.907C566.009,-380.97 540.662,-390.282 520,-402 510.641,-407.308 510.528,-412.002 501,-417 484.37,-425.723 465.214,-432.658 447.408,-437.978"/>
<polygon fill="black" stroke="black" points="446.328,-434.647 437.68,-440.768 448.258,-441.375 446.328,-434.647"/>
<text text-anchor="middle" x="530.5" y="-405.8" font-family="Times New Roman,serif" font-size="14.00">c34</text>
</g>
<!-- n10 -->
<g id="node10" class="node"><title>n10</title>
<g id="a_node10"><a xlink:title="CAPEC&#45;439:Manipulation During Distribution; &#10; CAPEC&#45;507:Physical Theft; &#10; CAPEC&#45;440:Hardware Integrity Attack; &#10; insideTrustedBoundary">
<polygon fill="red" stroke="black" points="619.5,-297 504.5,-297 504.5,-261 619.5,-261 619.5,-297"/>
<text text-anchor="middle" x="562" y="-275.3" font-family="Times New Roman,serif" font-size="14.00">positionEstimator</text>
</a>
</g>
</g>
<!-- n3&#45;&gt;n10 -->
<g id="edge10" class="edge"><title>n3&#45;&gt;n10</title>
<path fill="none" stroke="black" d="M584.763,-351.984C576.249,-346.463 567.828,-339.155 563,-330 559.38,-323.136 558.166,-314.971 558.119,-307.249"/>
<polygon fill="black" stroke="black" points="561.62,-307.332 558.662,-297.158 554.63,-306.956 561.62,-307.332"/>
<text text-anchor="middle" x="576.5" y="-318.8" font-family="Times New Roman,serif" font-size="14.00">c18a</text>
</g>
<!-- n3&#45;&gt;n10 -->
<g id="edge48" class="edge"><title>n3&#45;&gt;n10</title>
<path fill="none" stroke="black" d="M605.717,-347.787C601.789,-337.883 596.289,-325.383 590,-315 588.03,-311.747 585.791,-308.46 583.458,-305.272"/>
<polygon fill="black" stroke="black" points="586.067,-302.923 577.184,-297.149 580.527,-307.203 586.067,-302.923"/>
<text text-anchor="middle" x="608.5" y="-318.8" font-family="Times New Roman,serif" font-size="14.00">c12</text>
</g>
<!-- n4&#45;&gt;n1 -->
<g id="edge17" class="edge"><title>n4&#45;&gt;n1</title>
<path fill="none" stroke="black" d="M336.492,-456.607C271.35,-460.681 162.23,-470.127 127,-489 97.6776,-504.709 86.2664,-526.873 98,-558 104.887,-576.27 109.679,-581.988 127,-591 164.86,-610.697 271.86,-619.358 351.348,-623.136"/>
<polygon fill="black" stroke="black" points="351.239,-626.634 361.388,-623.594 351.558,-619.641 351.239,-626.634"/>
<text text-anchor="middle" x="108.5" y="-536.3" font-family="Times New Roman,serif" font-size="14.00">c43</text>
</g>
<!-- n4&#45;&gt;n1 -->
<g id="edge23" class="edge"><title>n4&#45;&gt;n1</title>
<path fill="none" stroke="black" d="M336.345,-453.522C293.282,-455.187 231.123,-462.624 184,-489 154.973,-505.247 143.266,-526.873 155,-558 161.887,-576.27 166.787,-581.784 184,-591 212.348,-606.178 288.348,-615.243 351.072,-620.331"/>
<polygon fill="black" stroke="black" points="351.17,-623.849 361.414,-621.144 351.719,-616.871 351.17,-623.849"/>
<text text-anchor="middle" x="165.5" y="-536.3" font-family="Times New Roman,serif" font-size="14.00">c39</text>
</g>
<!-- n4&#45;&gt;n1 -->
<g id="edge27" class="edge"><title>n4&#45;&gt;n1</title>
<path fill="none" stroke="black" d="M336.458,-458.426C306.929,-462.82 269.907,-471.572 241,-489 212.512,-506.176 200.266,-526.873 212,-558 218.887,-576.27 223.958,-581.47 241,-591 274.255,-609.596 314.959,-618.792 351.236,-623.184"/>
<polygon fill="black" stroke="black" points="351.017,-626.681 361.341,-624.299 351.785,-619.723 351.017,-626.681"/>
<text text-anchor="middle" x="222.5" y="-536.3" font-family="Times New Roman,serif" font-size="14.00">c44</text>
</g>
<!-- n4&#45;&gt;n1 -->
<g id="edge35" class="edge"><title>n4&#45;&gt;n1</title>
<path fill="none" stroke="black" d="M336.379,-469.13C323.241,-474.306 309.549,-480.889 298,-489 270.777,-508.118 257.266,-526.873 269,-558 281.779,-591.901 316.368,-609.202 351.535,-617.918"/>
<polygon fill="black" stroke="black" points="350.927,-621.369 361.452,-620.155 352.468,-614.54 350.927,-621.369"/>
<text text-anchor="middle" x="279.5" y="-536.3" font-family="Times New Roman,serif" font-size="14.00">c15</text>
</g>
<!-- n4&#45;&gt;n1 -->
<g id="edge38" class="edge"><title>n4&#45;&gt;n1</title>
<path fill="none" stroke="black" d="M364.68,-471.241C350.595,-483.624 333.664,-501.669 326,-522 320.356,-536.972 320.356,-543.028 326,-558 334.079,-579.432 352.906,-594.36 373.257,-604.646"/>
<polygon fill="black" stroke="black" points="371.821,-607.839 382.362,-608.914 374.792,-601.501 371.821,-607.839"/>
<text text-anchor="middle" x="336.5" y="-536.3" font-family="Times New Roman,serif" font-size="14.00">c28</text>
</g>
<!-- n4&#45;&gt;n1 -->
<g id="edge42" class="edge"><title>n4&#45;&gt;n1</title>
<path fill="none" stroke="black" d="M380.795,-471.299C374.211,-492.555 366.247,-529.325 378,-558 385.146,-575.434 399.159,-590.794 412.53,-602.484"/>
<polygon fill="black" stroke="black" points="410.347,-605.222 420.271,-608.931 414.827,-599.842 410.347,-605.222"/>
<text text-anchor="middle" x="388.5" y="-536.3" font-family="Times New Roman,serif" font-size="14.00">c31</text>
</g>
<!-- n4&#45;&gt;n2 -->
<g id="edge32" class="edge"><title>n4&#45;&gt;n2</title>
<path fill="none" stroke="black" d="M437.828,-460.636C466.769,-465.753 503.101,-474.491 533,-489 542.679,-493.697 543.462,-497.453 552,-504 556.862,-507.728 562.037,-511.639 567.109,-515.44"/>
<polygon fill="black" stroke="black" points="565.366,-518.507 575.474,-521.682 569.553,-512.897 565.366,-518.507"/>
<text text-anchor="middle" x="562.5" y="-492.8" font-family="Times New Roman,serif" font-size="14.00">c10</text>
</g>
<!-- n4&#45;&gt;n3 -->
<g id="edge12" class="edge"><title>n4&#45;&gt;n3</title>
<path fill="none" stroke="black" d="M437.846,-446.302C469.709,-441.401 511.028,-432.562 545,-417 553.107,-413.286 568.869,-401.617 583.069,-390.486"/>
<polygon fill="black" stroke="black" points="585.516,-393.012 591.179,-384.058 581.168,-387.526 585.516,-393.012"/>
<text text-anchor="middle" x="578" y="-405.8" font-family="Times New Roman,serif" font-size="14.00">c1b</text>
</g>
<!-- n4&#45;&gt;n3 -->
<g id="edge13" class="edge"><title>n4&#45;&gt;n3</title>
<path fill="none" stroke="black" d="M437.857,-448.686C490.083,-444.346 566.896,-435.061 590,-417 597.303,-411.291 602.237,-402.651 605.546,-394.152"/>
<polygon fill="black" stroke="black" points="608.946,-395.016 608.728,-384.423 602.293,-392.839 608.946,-395.016"/>
<text text-anchor="middle" x="612.5" y="-405.8" font-family="Times New Roman,serif" font-size="14.00">c33</text>
</g>
<!-- n9 -->
<g id="node9" class="node"><title>n9</title>
<g id="a_node9"><a xlink:title="CAPEC&#45;26:Leveraging Race Conditions; &#10; CAPEC&#45;507:Physical Theft; &#10; CAPEC&#45;248:Command Injection; &#10; CAPEC&#45;242:Code Injection; &#10; CAPEC&#45;125:Flooding; &#10; CAPEC&#45;594:Traffic Injection; &#10; CAPEC&#45;148:Content Spoofing; &#10; CAPEC&#45;439:Manipulation During Distribution; &#10; CAPEC&#45;74:Manipulating User State; &#10; CAPEC&#45;440:Hardware Integrity Attack; &#10; CAPEC&#45;123:Buffer Manipulation; &#10; CAPEC&#45;586:Object Injection; &#10; CAPEC&#45;151:Identity Spoofing; &#10; CAPEC&#45;175:Code Inclusion; &#10; CAPEC&#45;22:Exploiting Trust in Client; &#10; CAPEC&#45;137:Parameter Injection; &#10; CAPEC&#45;131:Resource Leak Exposure; &#10; CAPEC&#45;130:Excessive Allocation; &#10; CAPEC&#45;25:Forced Deadlock; &#10; CAPEC&#45;28:Fuzzing; &#10; CAPEC&#45;607:Obstruction; &#10; dataReceivedFromUntrusted; &#10; insideTrustedBoundary">
<polygon fill="red" stroke="black" points="561.5,-210 488.5,-210 488.5,-174 561.5,-174 561.5,-210"/>
<text text-anchor="middle" x="525" y="-188.3" font-family="Times New Roman,serif" font-size="14.00">navigation</text>
</a>
</g>
</g>
<!-- n4&#45;&gt;n9 -->
<g id="edge7" class="edge"><title>n4&#45;&gt;n9</title>
<path fill="none" stroke="black" d="M336.279,-450.552C296.673,-447.599 241.287,-439.36 198,-417 167.625,-401.31 145.41,-376.692 164,-348 234.012,-239.942 397.067,-206.965 477.876,-197.098"/>
<polygon fill="black" stroke="black" points="478.713,-200.524 488.247,-195.903 477.912,-193.57 478.713,-200.524"/>
<text text-anchor="middle" x="196" y="-318.8" font-family="Times New Roman,serif" font-size="14.00">c4</text>
</g>
<!-- n4&#45;&gt;n9 -->
<g id="edge39" class="edge"><title>n4&#45;&gt;n9</title>
<path fill="none" stroke="black" d="M437.743,-449.523C498.71,-445.712 596.6,-436.677 627,-417 641.594,-407.554 643.139,-400.691 648,-384 663.485,-330.824 659.575,-306.503 628,-261 613.741,-240.451 591.071,-224.504 570.625,-213.234"/>
<polygon fill="black" stroke="black" points="572.206,-210.111 561.729,-208.539 568.939,-216.302 572.206,-210.111"/>
<text text-anchor="middle" x="667.5" y="-318.8" font-family="Times New Roman,serif" font-size="14.00">c26</text>
</g>
<!-- n12 -->
<g id="node12" class="node"><title>n12</title>
<g id="a_node12"><a xlink:title="CAPEC&#45;507:Physical Theft; &#10; CAPEC&#45;439:Manipulation During Distribution; &#10; CAPEC&#45;440:Hardware Integrity Attack; &#10; insideTrustedBoundary">
<polygon fill="red" stroke="black" points="322.5,-384 173.5,-384 173.5,-348 322.5,-348 322.5,-384"/>
<text text-anchor="middle" x="248" y="-362.3" font-family="Times New Roman,serif" font-size="14.00">deliveryItemMechanism</text>
</a>
</g>
</g>
<!-- n4&#45;&gt;n12 -->
<g id="edge18" class="edge"><title>n4&#45;&gt;n12</title>
<path fill="none" stroke="black" d="M336.33,-449.298C288.389,-445.556 221.393,-436.846 205,-417 197.88,-408.38 202.449,-399.06 210.826,-390.829"/>
<polygon fill="black" stroke="black" points="213.248,-393.364 218.584,-384.211 208.705,-388.038 213.248,-393.364"/>
<text text-anchor="middle" x="215.5" y="-405.8" font-family="Times New Roman,serif" font-size="14.00">c25</text>
</g>
<!-- n13 -->
<g id="node13" class="node"><title>n13</title>
<g id="a_node13"><a xlink:title="CAPEC&#45;440:Hardware Integrity Attack; &#10; CAPEC&#45;439:Manipulation During Distribution; &#10; CAPEC&#45;507:Physical Theft; &#10; insideTrustedBoundary">
<polygon fill="red" stroke="black" points="397,-384 341,-384 341,-348 397,-348 397,-384"/>
<text text-anchor="middle" x="369" y="-362.3" font-family="Times New Roman,serif" font-size="14.00">camera</text>
</a>
</g>
</g>
<!-- n4&#45;&gt;n13 -->
<g id="edge43" class="edge"><title>n4&#45;&gt;n13</title>
<path fill="none" stroke="black" d="M372.289,-434.925C368.512,-429.54 364.963,-423.334 363,-417 360.783,-409.848 360.721,-401.886 361.62,-394.455"/>
<polygon fill="black" stroke="black" points="365.095,-394.905 363.407,-384.446 358.204,-393.675 365.095,-394.905"/>
<text text-anchor="middle" x="373.5" y="-405.8" font-family="Times New Roman,serif" font-size="14.00">c27</text>
</g>
<!-- n5 -->
<g id="node5" class="node"><title>n5</title>
<g id="a_node5"><a xlink:title="CAPEC&#45;507:Physical Theft; &#10; CAPEC&#45;125:Flooding; &#10; CAPEC&#45;439:Manipulation During Distribution; &#10; CAPEC&#45;440:Hardware Integrity Attack; &#10; Flooding_Attack; &#10; insideTrustedBoundary">
<polygon fill="red" stroke="black" points="477.5,-36 410.5,-36 410.5,-0 477.5,-0 477.5,-36"/>
<text text-anchor="middle" x="444" y="-14.3" font-family="Times New Roman,serif" font-size="14.00">actuation</text>
</a>
</g>
</g>
<!-- n5&#45;&gt;n1 -->
<g id="edge4" class="edge"><title>n5&#45;&gt;n1</title>
<path fill="none" stroke="black" d="M410.263,-18.3098C306.649,-17.0853 0,-20.5135 0,-104 0,-541 0,-541 0,-541 0,-611.907 220.742,-625.098 351.285,-626.699"/>
<polygon fill="black" stroke="black" points="351.264,-630.198 361.299,-626.801 351.335,-623.199 351.264,-630.198"/>
<text text-anchor="middle" x="10.5" y="-318.8" font-family="Times New Roman,serif" font-size="14.00">c32</text>
</g>
<!-- n14 -->
<g id="node14" class="node"><title>n14</title>
<g id="a_node14"><a xlink:title="CAPEC&#45;439:Manipulation During Distribution; &#10; CAPEC&#45;440:Hardware Integrity Attack; &#10; CAPEC&#45;507:Physical Theft; &#10; insideTrustedBoundary">
<polygon fill="red" stroke="black" points="515,-123 461,-123 461,-87 515,-87 515,-123"/>
<text text-anchor="middle" x="488" y="-101.3" font-family="Times New Roman,serif" font-size="14.00">fc</text>
</a>
</g>
</g>
<!-- n5&#45;&gt;n14 -->
<g id="edge45" class="edge"><title>n5&#45;&gt;n14</title>
<path fill="none" stroke="black" d="M440.892,-36.0416C439.871,-46.1202 440.052,-58.8554 445,-69 447.049,-73.2013 449.868,-77.0682 453.091,-80.5763"/>
<polygon fill="black" stroke="black" points="450.965,-83.3805 460.651,-87.6735 455.756,-78.2772 450.965,-83.3805"/>
<text text-anchor="middle" x="455.5" y="-57.8" font-family="Times New Roman,serif" font-size="14.00">c20</text>
</g>
<!-- n6 -->
<g id="node6" class="node"><title>n6</title>
<g id="a_node6"><a xlink:title="&#10; ">
<polygon fill="lightgrey" stroke="black" points="960,-645 906,-645 906,-609 960,-609 960,-645"/>
<text text-anchor="middle" x="933" y="-623.3" font-family="Times New Roman,serif" font-size="14.00">gps</text>
</a>
</g>
</g>
<!-- n7 -->
<g id="node7" class="node"><title>n7</title>
<g id="a_node7"><a xlink:title="&#10; ">
<polygon fill="lightgrey" stroke="black" points="972,-558 896,-558 896,-522 972,-522 972,-558"/>
<text text-anchor="middle" x="934" y="-536.3" font-family="Times New Roman,serif" font-size="14.00">GNC.Impl</text>
</a>
</g>
</g>
<!-- n6&#45;&gt;n7 -->
<g id="edge5" class="edge"><title>n6&#45;&gt;n7</title>
<path fill="none" stroke="black" d="M905.961,-620.676C876.839,-613.63 836.608,-599.305 852,-576 859.894,-564.048 872.796,-556.163 886.053,-550.967"/>
<polygon fill="black" stroke="black" points="887.391,-554.208 895.703,-547.639 885.108,-547.591 887.391,-554.208"/>
<text text-anchor="middle" x="857" y="-579.8" font-family="Times New Roman,serif" font-size="14.00">i7</text>
</g>
<!-- n6&#45;&gt;n7 -->
<g id="edge33" class="edge"><title>n6&#45;&gt;n7</title>
<path fill="none" stroke="black" d="M905.985,-612.729C891.322,-603.559 877.567,-590.444 885,-576 887.102,-571.916 889.926,-568.202 893.162,-564.853"/>
<polygon fill="black" stroke="black" points="895.62,-567.351 900.784,-558.099 890.978,-562.112 895.62,-567.351"/>
<text text-anchor="middle" x="890" y="-579.8" font-family="Times New Roman,serif" font-size="14.00">i5</text>
</g>
<!-- n6&#45;&gt;n7 -->
<g id="edge49" class="edge"><title>n6&#45;&gt;n7</title>
<path fill="none" stroke="black" d="M924.694,-608.999C920.979,-599.383 917.863,-587.097 920,-576 920.527,-573.263 921.266,-570.467 922.133,-567.709"/>
<polygon fill="black" stroke="black" points="925.517,-568.645 925.674,-558.052 918.945,-566.235 925.517,-568.645"/>
<text text-anchor="middle" x="925" y="-579.8" font-family="Times New Roman,serif" font-size="14.00">i6</text>
</g>
<!-- n7&#45;&gt;n6 -->
<g id="edge9" class="edge"><title>n7&#45;&gt;n6</title>
<path fill="none" stroke="black" d="M933.798,-558.175C933.661,-569.806 933.477,-585.419 933.321,-598.734"/>
<polygon fill="black" stroke="black" points="929.82,-598.758 933.202,-608.799 936.82,-598.841 929.82,-598.758"/>
<text text-anchor="middle" x="939" y="-579.8" font-family="Times New Roman,serif" font-size="14.00">i1</text>
</g>
<!-- n7&#45;&gt;n6 -->
<g id="edge20" class="edge"><title>n7&#45;&gt;n6</title>
<path fill="none" stroke="black" d="M943.121,-558.438C947.033,-567.977 950.247,-580.05 948,-591 947.446,-593.7 946.674,-596.448 945.771,-599.158"/>
<polygon fill="black" stroke="black" points="942.443,-598.059 942.075,-608.647 948.966,-600.599 942.443,-598.059"/>
<text text-anchor="middle" x="954" y="-579.8" font-family="Times New Roman,serif" font-size="14.00">i2</text>
</g>
<!-- n7&#45;&gt;n6 -->
<g id="edge29" class="edge"><title>n7&#45;&gt;n6</title>
<path fill="none" stroke="black" d="M953.01,-558.319C960.86,-567.624 967.248,-579.518 963,-591 961.769,-594.328 960.064,-597.554 958.086,-600.612"/>
<polygon fill="black" stroke="black" points="955.187,-598.644 951.959,-608.736 960.775,-602.86 955.187,-598.644"/>
<text text-anchor="middle" x="970" y="-579.8" font-family="Times New Roman,serif" font-size="14.00">i3</text>
</g>
<!-- n11 -->
<g id="node11" class="node"><title>n11</title>
<g id="a_node11"><a xlink:title="&#10; ">
<polygon fill="lightgrey" stroke="black" points="960,-471 906,-471 906,-435 960,-435 960,-471"/>
<text text-anchor="middle" x="933" y="-449.3" font-family="Times New Roman,serif" font-size="14.00">imu</text>
</a>
</g>
</g>
<!-- n7&#45;&gt;n11 -->
<g id="edge46" class="edge"><title>n7&#45;&gt;n11</title>
<path fill="none" stroke="black" d="M915.041,-521.736C910.557,-516.523 906.388,-510.455 904,-504 900.947,-495.747 903.388,-487.282 907.917,-479.718"/>
<polygon fill="black" stroke="black" points="910.967,-481.473 913.99,-471.319 905.294,-477.372 910.967,-481.473"/>
<text text-anchor="middle" x="909" y="-492.8" font-family="Times New Roman,serif" font-size="14.00">i4</text>
</g>
<!-- n8&#45;&gt;n4 -->
<g id="edge6" class="edge"><title>n8&#45;&gt;n4</title>
<path fill="none" stroke="black" d="M425.511,-521.942C420.057,-516.557 414.42,-510.347 410,-504 404.954,-496.753 400.553,-488.222 396.99,-480.278"/>
<polygon fill="black" stroke="black" points="400.188,-478.855 393.072,-471.006 393.74,-481.58 400.188,-478.855"/>
<text text-anchor="middle" x="424" y="-492.8" font-family="Times New Roman,serif" font-size="14.00">c14b</text>
</g>
<!-- n9&#45;&gt;n1 -->
<g id="edge22" class="edge"><title>n9&#45;&gt;n1</title>
<path fill="none" stroke="black" d="M561.516,-195.873C640.06,-203.058 818,-225.167 818,-278 818,-541 818,-541 818,-541 818,-598.161 649.374,-616.882 538.88,-623.014"/>
<polygon fill="black" stroke="black" points="538.51,-619.528 528.708,-623.552 538.879,-626.519 538.51,-619.528"/>
<text text-anchor="middle" x="828.5" y="-405.8" font-family="Times New Roman,serif" font-size="14.00">c41</text>
</g>
<!-- n9&#45;&gt;n4 -->
<g id="edge8" class="edge"><title>n9&#45;&gt;n4</title>
<path fill="none" stroke="black" d="M517.363,-210.012C496.82,-255.543 440.304,-379.282 416,-417 413.85,-420.337 411.424,-423.715 408.915,-426.988"/>
<polygon fill="black" stroke="black" points="406.152,-424.839 402.614,-434.826 411.608,-429.225 406.152,-424.839"/>
<text text-anchor="middle" x="476" y="-318.8" font-family="Times New Roman,serif" font-size="14.00">c5</text>
</g>
<!-- n9&#45;&gt;n10 -->
<g id="edge11" class="edge"><title>n9&#45;&gt;n10</title>
<path fill="none" stroke="black" d="M532.476,-210.175C537.639,-222.036 544.605,-238.039 550.474,-251.522"/>
<polygon fill="black" stroke="black" points="547.312,-253.027 554.512,-260.799 553.73,-250.233 547.312,-253.027"/>
<text text-anchor="middle" x="556.5" y="-231.8" font-family="Times New Roman,serif" font-size="14.00">c24</text>
</g>
<!-- n9&#45;&gt;n14 -->
<g id="edge31" class="edge"><title>n9&#45;&gt;n14</title>
<path fill="none" stroke="black" d="M502.035,-173.927C496.796,-168.793 491.917,-162.716 489,-156 485.991,-149.072 484.912,-141.078 484.798,-133.543"/>
<polygon fill="black" stroke="black" points="488.303,-133.479 485.18,-123.355 481.307,-133.217 488.303,-133.479"/>
<text text-anchor="middle" x="496" y="-144.8" font-family="Times New Roman,serif" font-size="14.00">c2</text>
</g>
<!-- n10&#45;&gt;n9 -->
<g id="edge30" class="edge"><title>n10&#45;&gt;n9</title>
<path fill="none" stroke="black" d="M537.292,-260.808C531.914,-255.747 526.953,-249.736 524,-243 520.967,-236.082 520.111,-228.092 520.302,-220.556"/>
<polygon fill="black" stroke="black" points="523.809,-220.623 521.153,-210.367 516.833,-220.041 523.809,-220.623"/>
<text text-anchor="middle" x="531" y="-231.8" font-family="Times New Roman,serif" font-size="14.00">c1</text>
</g>
<!-- n11&#45;&gt;n7 -->
<g id="edge14" class="edge"><title>n11&#45;&gt;n7</title>
<path fill="none" stroke="black" d="M923.242,-471.413C919.054,-480.945 915.609,-493.019 918,-504 918.593,-506.721 919.416,-509.485 920.381,-512.204"/>
<polygon fill="black" stroke="black" points="917.258,-513.812 924.324,-521.706 923.724,-511.129 917.258,-513.812"/>
<text text-anchor="middle" x="923" y="-492.8" font-family="Times New Roman,serif" font-size="14.00">i8</text>
</g>
<!-- n11&#45;&gt;n7 -->
<g id="edge15" class="edge"><title>n11&#45;&gt;n7</title>
<path fill="none" stroke="black" d="M933.202,-471.175C933.339,-482.806 933.523,-498.419 933.679,-511.734"/>
<polygon fill="black" stroke="black" points="930.18,-511.841 933.798,-521.799 937.18,-511.758 930.18,-511.841"/>
<text text-anchor="middle" x="939" y="-492.8" font-family="Times New Roman,serif" font-size="14.00">i9</text>
</g>
<!-- n11&#45;&gt;n7 -->
<g id="edge36" class="edge"><title>n11&#45;&gt;n7</title>
<path fill="none" stroke="black" d="M942.075,-471.353C944.496,-476.846 946.777,-483.042 948,-489 949.545,-496.528 948.509,-504.587 946.439,-511.988"/>
<polygon fill="black" stroke="black" points="943.088,-510.967 943.121,-521.562 949.702,-513.259 943.088,-510.967"/>
<text text-anchor="middle" x="957.5" y="-492.8" font-family="Times New Roman,serif" font-size="14.00">i10</text>
</g>
<!-- n12&#45;&gt;n1 -->
<g id="edge52" class="edge"><title>n12&#45;&gt;n1</title>
<path fill="none" stroke="black" d="M206.273,-384.009C166.038,-402.956 107.592,-437.816 82,-489 61.2601,-530.48 66.6896,-563.456 104,-591 141.996,-619.05 263.952,-625.772 351.155,-626.83"/>
<polygon fill="black" stroke="black" points="351.308,-630.332 361.342,-626.93 351.377,-623.332 351.308,-630.332"/>
<text text-anchor="middle" x="92.5" y="-492.8" font-family="Times New Roman,serif" font-size="14.00">c30</text>
</g>
<!-- n12&#45;&gt;n4 -->
<g id="edge28" class="edge"><title>n12&#45;&gt;n4</title>
<path fill="none" stroke="black" d="M243.535,-384.036C241.829,-394.617 241.764,-407.89 249,-417 258.961,-429.542 294.201,-438.355 326.574,-444"/>
<polygon fill="black" stroke="black" points="326.059,-447.463 336.498,-445.651 327.208,-440.557 326.059,-447.463"/>
<text text-anchor="middle" x="259.5" y="-405.8" font-family="Times New Roman,serif" font-size="14.00">c42</text>
</g>
<!-- n12&#45;&gt;n4 -->
<g id="edge37" class="edge"><title>n12&#45;&gt;n4</title>
<path fill="none" stroke="black" d="M266.612,-384.084C278.466,-394.424 294.464,-407.418 310,-417 317.893,-421.868 326.579,-426.465 335.185,-430.627"/>
<polygon fill="black" stroke="black" points="333.91,-433.895 344.451,-434.966 336.878,-427.556 333.91,-433.895"/>
<text text-anchor="middle" x="317" y="-405.8" font-family="Times New Roman,serif" font-size="14.00">c7</text>
</g>
<!-- n13&#45;&gt;n4 -->
<g id="edge24" class="edge"><title>n13&#45;&gt;n4</title>
<path fill="none" stroke="black" d="M380.475,-384.098C383.54,-389.581 386.434,-395.835 388,-402 389.83,-409.207 390.324,-417.187 390.17,-424.618"/>
<polygon fill="black" stroke="black" points="386.675,-424.432 389.595,-434.617 393.664,-424.835 386.675,-424.432"/>
<text text-anchor="middle" x="401.5" y="-405.8" font-family="Times New Roman,serif" font-size="14.00">c37</text>
</g>
<!-- n13&#45;&gt;n4 -->
<g id="edge41" class="edge"><title>n13&#45;&gt;n4</title>
<path fill="none" stroke="black" d="M342.74,-384.122C331.993,-393.374 323.443,-405.279 330,-417 332.39,-421.272 335.539,-425.087 339.131,-428.478"/>
<polygon fill="black" stroke="black" points="337.049,-431.295 347.028,-434.856 341.448,-425.85 337.049,-431.295"/>
<text text-anchor="middle" x="337" y="-405.8" font-family="Times New Roman,serif" font-size="14.00">c9</text>
</g>
<!-- n14&#45;&gt;n5 -->
<g id="edge47" class="edge"><title>n14&#45;&gt;n5</title>
<path fill="none" stroke="black" d="M481.075,-86.5801C477.018,-76.8329 471.601,-64.5555 466,-54 464.419,-51.0203 462.677,-47.9549 460.886,-44.9358"/>
<polygon fill="black" stroke="black" points="463.702,-42.8327 455.481,-36.1492 457.74,-46.5005 463.702,-42.8327"/>
<text text-anchor="middle" x="484.5" y="-57.8" font-family="Times New Roman,serif" font-size="14.00">c19</text>
</g>
<!-- n14&#45;&gt;n9 -->
<g id="edge40" class="edge"><title>n14&#45;&gt;n9</title>
<path fill="none" stroke="black" d="M495.476,-123.175C500.639,-135.036 507.605,-151.039 513.474,-164.522"/>
<polygon fill="black" stroke="black" points="510.312,-166.027 517.512,-173.799 516.73,-163.233 510.312,-166.027"/>
<text text-anchor="middle" x="516" y="-144.8" font-family="Times New Roman,serif" font-size="14.00">c3</text>
</g>
<!-- n15 -->
<g id="node15" class="node"><title>n15</title>
<g id="a_node15"><a xlink:title="&#10; ">
<polygon fill="lightgrey" stroke="black" points="554,-558 500,-558 500,-522 554,-522 554,-558"/>
<text text-anchor="middle" x="527" y="-536.3" font-family="Times New Roman,serif" font-size="14.00">gnc2</text>
</a>
</g>
</g>
<!-- n15&#45;&gt;n4 -->
<g id="edge53" class="edge"><title>n15&#45;&gt;n4</title>
<path fill="none" stroke="black" d="M499.986,-525.502C487.895,-519.25 473.564,-511.546 461,-504 452.925,-499.15 435.847,-487.641 420.129,-476.886"/>
<polygon fill="black" stroke="black" points="421.829,-473.808 411.603,-471.036 417.869,-479.58 421.829,-473.808"/>
<text text-anchor="middle" x="475" y="-492.8" font-family="Times New Roman,serif" font-size="14.00">c34b</text>
</g>
</g>
</svg>
