<?xml version="1.0" encoding="UTF-8" standalone="no"?>
<!DOCTYPE svg PUBLIC "-//W3C//DTD SVG 1.1//EN"
 "http://www.w3.org/Graphics/SVG/1.1/DTD/svg11.dtd">
<!-- Generated by graphviz version 2.38.0 (20140413.2041)
 -->
<!-- Title: gRun_sadl13 Pages: 1 -->
<svg width="1165pt" height="676pt"
 viewBox="0.00 0.00 1164.68 676.00" xmlns="http://www.w3.org/2000/svg" xmlns:xlink="http://www.w3.org/1999/xlink">
<g id="graph0" class="graph" transform="scale(1 1) rotate(0) translate(4 672)">
<title>gRun_sadl13</title>
<polygon fill="white" stroke="none" points="-4,4 -4,-672 1160.68,-672 1160.68,4 -4,4"/>
<text text-anchor="middle" x="56.5" y="-652.8" font-family="Times New Roman,serif" font-size="14.00">Cmd 14 &#160;(Graph)</text>
<!-- n1 -->
<g id="node1" class="node"><title>n1</title>
<g id="a_node1"><a xlink:title="CAPEC&#45;125:Flooding; &#10; CAPEC&#45;26:Leveraging Race Conditions; &#10; CAPEC&#45;248:Command Injection; &#10; CAPEC&#45;123:Buffer Manipulation; &#10; CAPEC&#45;21:Exploitation of Trusted Credentials; &#10; CAPEC&#45;242:Code Injection; &#10; CAPEC&#45;22:Exploiting Trust in Client; &#10; CAPEC&#45;438:Modification During Manufacture; &#10; CAPEC&#45;175:Code Inclusion; &#10; CAPEC&#45;131:Resource Leak Exposure; &#10; CAPEC&#45;440:Hardware Integrity Attack; &#10; CAPEC&#45;137:Parameter Injection; &#10; CAPEC&#45;25:Forced Deadlock; &#10; CAPEC&#45;148:Content Spoofing; &#10; CAPEC&#45;151:Identity Spoofing; &#10; CAPEC&#45;594:Traffic Injection; &#10; CAPEC&#45;507:Physical Theft; &#10; CAPEC&#45;624:Fault Injection; &#10; CAPEC&#45;28:Fuzzing; &#10; CAPEC&#45;390:Bypassing Physical Security; &#10; CAPEC&#45;115:Authentication Bypass; &#10; CAPEC&#45;114:Authentication Abuse; &#10; CAPEC&#45;549:Local Execution of Code; &#10; CAPEC&#45;112:Brute Force; &#10; CAPEC&#45;188:Reverse Engineering; &#10; CAPEC&#45;607:Obstruction; &#10; CAPEC&#45;586:Object Injection; &#10; CAPEC&#45;439:Manipulation During Distribution; &#10; CAPEC&#45;184:Software Integrity Attack; &#10; CAPEC&#45;130:Excessive Allocation; &#10; CAPEC&#45;74:Manipulating User State; &#10; secureBoot DAL 7; &#10; supplyChainSecurity DAL 7; &#10; inputValidation DAL 7; &#10; physicalAccessControl DAL 7; &#10; staticCodeAnalysis DAL 7; &#10; antiJamming DAL 7; &#10; systemAccessControl DAL 7; &#10; dosProtection DAL 7; &#10; deviceAuthentication DAL 7; &#10; sessionAuthenticity DAL 7; &#10; memoryProtection DAL 7; &#10; resourceAvailability DAL 7; &#10; strongCryptoAlgorithms DAL 7; &#10; hasSensitiveInfo; &#10; canReceiveSWUpdate; &#10; insideTrustedBoundary; &#10; controlReceivedFromUntrusted; &#10; dataReceivedFromUntrusted">
<polygon fill="red" stroke="black" points="601.178,-645 500.178,-645 500.178,-609 601.178,-609 601.178,-645"/>
<text text-anchor="middle" x="550.678" y="-623.3" font-family="Times New Roman,serif" font-size="14.00">deliveryPlanner</text>
</a>
</g>
</g>
<!-- n2 -->
<g id="node2" class="node"><title>n2</title>
<g id="a_node2"><a xlink:title="CAPEC&#45;438:Modification During Manufacture; &#10; CAPEC&#45;624:Fault Injection; &#10; CAPEC&#45;188:Reverse Engineering; &#10; CAPEC&#45;507:Physical Theft; &#10; CAPEC&#45;439:Manipulation During Distribution; &#10; CAPEC&#45;390:Bypassing Physical Security; &#10; CAPEC&#45;440:Hardware Integrity Attack; &#10; supplyChainSecurity DAL 7; &#10; physicalAccessControl DAL 7; &#10; systemAccessControl DAL 7; &#10; insideTrustedBoundary; &#10; hasSensitiveInfo">
<polygon fill="red" stroke="black" points="578.678,-558 522.678,-558 522.678,-522 578.678,-522 578.678,-558"/>
<text text-anchor="middle" x="550.678" y="-536.3" font-family="Times New Roman,serif" font-size="14.00">camera</text>
</a>
</g>
</g>
<!-- n1&#45;&gt;n2 -->
<g id="edge1" class="edge"><title>n1&#45;&gt;n2</title>
<path fill="none" stroke="black" d="M521.888,-608.939C510.708,-599.974 501.828,-588.305 507.678,-576 509.538,-572.088 512.073,-568.47 514.988,-565.163"/>
<polygon fill="black" stroke="black" points="517.606,-567.499 522.34,-558.021 512.728,-562.478 517.606,-567.499"/>
<text text-anchor="middle" x="518.178" y="-579.8" font-family="Times New Roman,serif" font-size="14.00">c27</text>
</g>
<!-- n3 -->
<g id="node3" class="node"><title>n3</title>
<g id="a_node3"><a xlink:title="&#10; dataReceivedFromUntrusted">
<polygon fill="lightgrey" stroke="black" points="537.178,-471 370.178,-471 370.178,-435 537.178,-435 537.178,-471"/>
<text text-anchor="middle" x="453.678" y="-449.3" font-family="Times New Roman,serif" font-size="14.00">DeliveryDroneSystem.Impl</text>
</a>
</g>
</g>
<!-- n1&#45;&gt;n3 -->
<g id="edge2" class="edge"><title>n1&#45;&gt;n3</title>
<path fill="none" stroke="black" d="M601.265,-616.273C615.223,-611.09 628.922,-603.152 637.678,-591 664.284,-554.078 662.796,-519.118 628.678,-489 615.994,-477.802 582.279,-469.789 547.788,-464.28"/>
<polygon fill="black" stroke="black" points="547.984,-460.77 537.571,-462.722 546.929,-467.69 547.984,-460.77"/>
<text text-anchor="middle" x="667.178" y="-536.3" font-family="Times New Roman,serif" font-size="14.00">c31</text>
</g>
<!-- n1&#45;&gt;n3 -->
<g id="edge5" class="edge"><title>n1&#45;&gt;n3</title>
<path fill="none" stroke="black" d="M499.933,-625.946C458.654,-623.857 400.162,-616.1 355.678,-591 338.673,-581.405 333.565,-576.27 326.678,-558 314.945,-526.873 328.156,-507.685 355.678,-489 363.61,-483.615 372.465,-478.959 381.518,-474.96"/>
<polygon fill="black" stroke="black" points="383.1,-478.093 390.995,-471.028 380.417,-471.628 383.1,-478.093"/>
<text text-anchor="middle" x="337.178" y="-536.3" font-family="Times New Roman,serif" font-size="14.00">c15</text>
</g>
<!-- n1&#45;&gt;n3 -->
<g id="edge15" class="edge"><title>n1&#45;&gt;n3</title>
<path fill="none" stroke="black" d="M499.952,-623.651C457.293,-618.454 400.628,-602.964 383.678,-558 378.035,-543.028 378.035,-536.972 383.678,-522 390.373,-504.241 404.611,-489.004 418.509,-477.482"/>
<polygon fill="black" stroke="black" points="420.888,-480.064 426.594,-471.137 416.566,-474.558 420.888,-480.064"/>
<text text-anchor="middle" x="394.178" y="-536.3" font-family="Times New Roman,serif" font-size="14.00">c39</text>
</g>
<!-- n1&#45;&gt;n3 -->
<g id="edge29" class="edge"><title>n1&#45;&gt;n3</title>
<path fill="none" stroke="black" d="M500.113,-613.43C485.937,-608.171 471.253,-600.905 459.678,-591 446.819,-579.997 445.049,-574.35 440.678,-558 433.813,-532.318 439.017,-502.079 444.751,-480.847"/>
<polygon fill="black" stroke="black" points="448.123,-481.787 447.558,-471.207 441.402,-479.83 448.123,-481.787"/>
<text text-anchor="middle" x="451.178" y="-536.3" font-family="Times New Roman,serif" font-size="14.00">c43</text>
</g>
<!-- n1&#45;&gt;n3 -->
<g id="edge40" class="edge"><title>n1&#45;&gt;n3</title>
<path fill="none" stroke="black" d="M521.317,-608.859C514.488,-603.797 507.743,-597.773 502.678,-591 477.752,-557.669 464.614,-510.492 458.415,-481.099"/>
<polygon fill="black" stroke="black" points="461.817,-480.26 456.436,-471.133 454.951,-481.623 461.817,-480.26"/>
<text text-anchor="middle" x="494.178" y="-536.3" font-family="Times New Roman,serif" font-size="14.00">c28</text>
</g>
<!-- n1&#45;&gt;n3 -->
<g id="edge42" class="edge"><title>n1&#45;&gt;n3</title>
<path fill="none" stroke="black" d="M577.723,-608.758C583.363,-603.767 588.543,-597.799 591.678,-591 598.409,-576.404 606.15,-549.734 587.678,-522 573.316,-500.436 549.929,-485.369 526.682,-475.003"/>
<polygon fill="black" stroke="black" points="528.027,-471.772 517.453,-471.12 525.312,-478.225 528.027,-471.772"/>
<text text-anchor="middle" x="610.178" y="-536.3" font-family="Times New Roman,serif" font-size="14.00">c44</text>
</g>
<!-- n4 -->
<g id="node4" class="node"><title>n4</title>
<g id="a_node4"><a xlink:title="&#10; ">
<polygon fill="lightgrey" stroke="black" points="782.678,-384 728.678,-384 728.678,-348 782.678,-348 782.678,-384"/>
<text text-anchor="middle" x="755.678" y="-362.3" font-family="Times New Roman,serif" font-size="14.00">gnc</text>
</a>
</g>
</g>
<!-- n1&#45;&gt;n4 -->
<g id="edge34" class="edge"><title>n1&#45;&gt;n4</title>
<path fill="none" stroke="black" d="M601.41,-623.667C683.997,-619.366 840.116,-608.95 857.678,-591 887.051,-560.979 883.627,-435.025 857.678,-402 842.301,-382.429 815.386,-373.746 793.065,-369.92"/>
<polygon fill="black" stroke="black" points="793.268,-366.413 782.869,-368.444 792.265,-373.341 793.268,-366.413"/>
<text text-anchor="middle" x="889.678" y="-492.8" font-family="Times New Roman,serif" font-size="14.00">c1b</text>
</g>
<!-- n1&#45;&gt;n4 -->
<g id="edge51" class="edge"><title>n1&#45;&gt;n4</title>
<path fill="none" stroke="black" d="M601.283,-621.008C626.76,-616.446 656.971,-607.713 679.678,-591 742.711,-544.605 754.014,-443.139 755.674,-394.314"/>
<polygon fill="black" stroke="black" points="759.176,-394.263 755.904,-384.187 752.178,-394.105 759.176,-394.263"/>
<text text-anchor="middle" x="753.178" y="-492.8" font-family="Times New Roman,serif" font-size="14.00">c33</text>
</g>
<!-- n5 -->
<g id="node5" class="node"><title>n5</title>
<g id="a_node5"><a xlink:title="CAPEC&#45;507:Physical Theft; &#10; CAPEC&#45;438:Modification During Manufacture; &#10; CAPEC&#45;390:Bypassing Physical Security; &#10; CAPEC&#45;440:Hardware Integrity Attack; &#10; CAPEC&#45;439:Manipulation During Distribution; &#10; CAPEC&#45;188:Reverse Engineering; &#10; CAPEC&#45;624:Fault Injection; &#10; supplyChainSecurity DAL 7; &#10; physicalAccessControl DAL 7; &#10; systemAccessControl DAL 7; &#10; hasSensitiveInfo; &#10; insideTrustedBoundary">
<polygon fill="red" stroke="black" points="276.178,-558 127.178,-558 127.178,-522 276.178,-522 276.178,-558"/>
<text text-anchor="middle" x="201.678" y="-536.3" font-family="Times New Roman,serif" font-size="14.00">deliveryItemMechanism</text>
</a>
</g>
</g>
<!-- n1&#45;&gt;n5 -->
<g id="edge8" class="edge"><title>n1&#45;&gt;n5</title>
<path fill="none" stroke="black" d="M500.12,-625.355C422.914,-623.548 280.017,-616.717 236.678,-591 227.247,-585.404 219.721,-576.16 214.101,-567.132"/>
<polygon fill="black" stroke="black" points="217.086,-565.301 209.116,-558.32 210.993,-568.747 217.086,-565.301"/>
<text text-anchor="middle" x="247.178" y="-579.8" font-family="Times New Roman,serif" font-size="14.00">c25</text>
</g>
<!-- n6 -->
<g id="node6" class="node"><title>n6</title>
<g id="a_node6"><a xlink:title="&#10; secureBoot DAL 7; &#10; supplyChainSecurity DAL 7; &#10; inputValidation DAL 7; &#10; physicalAccessControl DAL 7; &#10; staticCodeAnalysis DAL 7; &#10; antiJamming DAL 7; &#10; systemAccessControl DAL 7; &#10; dosProtection DAL 7; &#10; deviceAuthentication DAL 7; &#10; sessionAuthenticity DAL 7; &#10; memoryProtection DAL 7; &#10; resourceAvailability DAL 7; &#10; strongCryptoAlgorithms DAL 7; &#10; controlReceivedFromUntrusted; &#10; NOT_insideTrustedBoundary; &#10; dataReceivedFromUntrusted">
<polygon fill="lightgrey" stroke="black" points="158.678,-384 104.678,-384 104.678,-348 158.678,-348 158.678,-384"/>
<text text-anchor="middle" x="131.678" y="-362.3" font-family="Times New Roman,serif" font-size="14.00">radio</text>
</a>
</g>
</g>
<!-- n1&#45;&gt;n6 -->
<g id="edge22" class="edge"><title>n1&#45;&gt;n6</title>
<path fill="none" stroke="black" d="M499.787,-625.631C378.893,-624.312 81.9088,-618.297 46.6782,-591 -19.7228,-539.552 -10.639,-463.406 46.6782,-402 59.3034,-388.474 77.9267,-380.021 94.5259,-374.82"/>
<polygon fill="black" stroke="black" points="95.8611,-378.08 104.528,-371.986 93.9525,-371.345 95.8611,-378.08"/>
<text text-anchor="middle" x="12.1782" y="-492.8" font-family="Times New Roman,serif" font-size="14.00">c10</text>
</g>
<!-- n7 -->
<g id="node7" class="node"><title>n7</title>
<g id="a_node7"><a xlink:title="CAPEC&#45;624:Fault Injection; &#10; CAPEC&#45;125:Flooding; &#10; CAPEC&#45;438:Modification During Manufacture; &#10; CAPEC&#45;390:Bypassing Physical Security; &#10; CAPEC&#45;148:Content Spoofing; &#10; CAPEC&#45;25:Forced Deadlock; &#10; CAPEC&#45;26:Leveraging Race Conditions; &#10; CAPEC&#45;22:Exploiting Trust in Client; &#10; CAPEC&#45;28:Fuzzing; &#10; CAPEC&#45;440:Hardware Integrity Attack; &#10; CAPEC&#45;188:Reverse Engineering; &#10; CAPEC&#45;130:Excessive Allocation; &#10; CAPEC&#45;507:Physical Theft; &#10; CAPEC&#45;549:Local Execution of Code; &#10; CAPEC&#45;151:Identity Spoofing; &#10; CAPEC&#45;184:Software Integrity Attack; &#10; CAPEC&#45;74:Manipulating User State; &#10; CAPEC&#45;439:Manipulation During Distribution; &#10; CAPEC&#45;607:Obstruction; &#10; CAPEC&#45;131:Resource Leak Exposure; &#10; secureBoot DAL 7; &#10; supplyChainSecurity DAL 7; &#10; physicalAccessControl DAL 7; &#10; systemAccessControl DAL 7; &#10; memoryProtection DAL 7; &#10; controlReceivedFromUntrusted; &#10; hasSensitiveInfo; &#10; canReceiveSWUpdate; &#10; insideTrustedBoundary">
<polygon fill="red" stroke="black" points="879.178,-210 806.178,-210 806.178,-174 879.178,-174 879.178,-210"/>
<text text-anchor="middle" x="842.678" y="-188.3" font-family="Times New Roman,serif" font-size="14.00">navigation</text>
</a>
</g>
</g>
<!-- n1&#45;&gt;n7 -->
<g id="edge10" class="edge"><title>n1&#45;&gt;n7</title>
<path fill="none" stroke="black" d="M601.353,-626.779C681.971,-627.015 834.632,-623.046 876.678,-591 968.642,-520.909 878.103,-283.91 871.678,-261 867.713,-246.861 861.499,-231.778 855.839,-219.418"/>
<polygon fill="black" stroke="black" points="858.904,-217.711 851.472,-210.16 852.573,-220.698 858.904,-217.711"/>
<text text-anchor="middle" x="923.178" y="-405.8" font-family="Times New Roman,serif" font-size="14.00">c26</text>
</g>
<!-- n1&#45;&gt;n7 -->
<g id="edge14" class="edge"><title>n1&#45;&gt;n7</title>
<path fill="none" stroke="black" d="M601.32,-626.086C711.603,-624.907 963.678,-614.204 963.678,-541 963.678,-541 963.678,-541 963.678,-278 963.678,-240.031 923.291,-217.563 889.183,-205.358"/>
<polygon fill="black" stroke="black" points="889.905,-201.908 879.311,-202.039 887.674,-208.543 889.905,-201.908"/>
<text text-anchor="middle" x="970.678" y="-405.8" font-family="Times New Roman,serif" font-size="14.00">c4</text>
</g>
<!-- n2&#45;&gt;n1 -->
<g id="edge31" class="edge"><title>n2&#45;&gt;n1</title>
<path fill="none" stroke="black" d="M550.678,-558.175C550.678,-569.806 550.678,-585.419 550.678,-598.734"/>
<polygon fill="black" stroke="black" points="547.178,-598.799 550.678,-608.799 554.178,-598.799 547.178,-598.799"/>
<text text-anchor="middle" x="557.678" y="-579.8" font-family="Times New Roman,serif" font-size="14.00">c9</text>
</g>
<!-- n2&#45;&gt;n1 -->
<g id="edge50" class="edge"><title>n2&#45;&gt;n1</title>
<path fill="none" stroke="black" d="M560.332,-558.391C564.489,-567.917 567.938,-579.992 565.678,-591 565.124,-593.7 564.353,-596.448 563.449,-599.158"/>
<polygon fill="black" stroke="black" points="560.122,-598.059 559.753,-608.647 566.644,-600.599 560.122,-598.059"/>
<text text-anchor="middle" x="577.178" y="-579.8" font-family="Times New Roman,serif" font-size="14.00">c37</text>
</g>
<!-- n3&#45;&gt;n4 -->
<g id="edge35" class="edge"><title>n3&#45;&gt;n4</title>
<path fill="none" stroke="black" d="M537.434,-441.496C571.763,-435.988 611.595,-428.035 646.678,-417 671.823,-409.091 698.758,-396.775 719.561,-386.346"/>
<polygon fill="black" stroke="black" points="721.339,-389.368 728.659,-381.71 718.16,-383.132 721.339,-389.368"/>
<text text-anchor="middle" x="694.178" y="-405.8" font-family="Times New Roman,serif" font-size="14.00">c23</text>
</g>
<!-- n3&#45;&gt;n4 -->
<g id="edge47" class="edge"><title>n3&#45;&gt;n4</title>
<path fill="none" stroke="black" d="M485.564,-434.88C495.106,-429.446 505.474,-423.224 514.678,-417 523.591,-410.973 523.821,-406.312 533.678,-402 537.892,-400.157 656.376,-382.035 718.482,-372.619"/>
<polygon fill="black" stroke="black" points="719.299,-376.035 728.662,-371.077 718.251,-369.114 719.299,-376.035"/>
<text text-anchor="middle" x="544.178" y="-405.8" font-family="Times New Roman,serif" font-size="14.00">c22</text>
</g>
<!-- n3&#45;&gt;n6 -->
<g id="edge39" class="edge"><title>n3&#45;&gt;n6</title>
<path fill="none" stroke="black" d="M369.745,-442.224C340.192,-436.973 307.241,-429.006 278.678,-417 267.769,-412.414 267.407,-406.995 256.678,-402 228.487,-388.875 194.369,-379.731 168.905,-374.089"/>
<polygon fill="black" stroke="black" points="169.421,-370.62 158.91,-371.955 167.959,-377.466 169.421,-370.62"/>
<text text-anchor="middle" x="289.178" y="-405.8" font-family="Times New Roman,serif" font-size="14.00">c16</text>
</g>
<!-- n14 -->
<g id="node14" class="node"><title>n14</title>
<g id="a_node14"><a xlink:title="CAPEC&#45;439:Manipulation During Distribution; &#10; CAPEC&#45;184:Software Integrity Attack; &#10; CAPEC&#45;507:Physical Theft; &#10; CAPEC&#45;440:Hardware Integrity Attack; &#10; CAPEC&#45;624:Fault Injection; &#10; CAPEC&#45;438:Modification During Manufacture; &#10; insideTrustedBoundary">
<polygon fill="red" stroke="black" points="633.178,-384 560.178,-384 560.178,-348 633.178,-348 633.178,-384"/>
<text text-anchor="middle" x="596.678" y="-362.3" font-family="Times New Roman,serif" font-size="14.00">connector</text>
</a>
</g>
</g>
<!-- n3&#45;&gt;n14 -->
<g id="edge48" class="edge"><title>n3&#45;&gt;n14</title>
<path fill="none" stroke="black" d="M461.55,-434.977C467.364,-424.127 476.246,-410.551 487.678,-402 505.87,-388.394 529.545,-379.961 550.181,-374.793"/>
<polygon fill="black" stroke="black" points="551.079,-378.178 560.03,-372.511 549.498,-371.359 551.079,-378.178"/>
<text text-anchor="middle" x="501.178" y="-405.8" font-family="Times New Roman,serif" font-size="14.00">c14a</text>
</g>
<!-- n4&#45;&gt;n1 -->
<g id="edge3" class="edge"><title>n4&#45;&gt;n1</title>
<path fill="none" stroke="black" d="M764.396,-384.282C783.994,-425.85 825.823,-532.317 772.678,-591 751.646,-614.224 669.626,-622.084 611.42,-624.717"/>
<polygon fill="black" stroke="black" points="611.059,-621.228 601.212,-625.136 611.347,-628.222 611.059,-621.228"/>
<text text-anchor="middle" x="809.178" y="-492.8" font-family="Times New Roman,serif" font-size="14.00">c34</text>
</g>
<!-- n4&#45;&gt;n1 -->
<g id="edge52" class="edge"><title>n4&#45;&gt;n1</title>
<path fill="none" stroke="black" d="M774.707,-384.052C780.007,-389.436 785.461,-395.648 789.678,-402 812.465,-436.324 815.079,-448.333 821.678,-489 829.228,-535.521 831.054,-563.64 792.678,-591 764.397,-611.163 673.39,-619.85 611.404,-623.494"/>
<polygon fill="black" stroke="black" points="611.126,-620.004 601.337,-624.056 611.517,-626.993 611.126,-620.004"/>
<text text-anchor="middle" x="835.178" y="-492.8" font-family="Times New Roman,serif" font-size="14.00">c35</text>
</g>
<!-- n4&#45;&gt;n3 -->
<g id="edge16" class="edge"><title>n4&#45;&gt;n3</title>
<path fill="none" stroke="black" d="M728.356,-371.202C686.326,-377.883 607.917,-391.269 581.678,-402 570.382,-406.62 569.668,-411.694 558.678,-417 547.482,-422.406 535.238,-427.315 523.191,-431.633"/>
<polygon fill="black" stroke="black" points="521.893,-428.379 513.596,-434.968 524.19,-434.991 521.893,-428.379"/>
<text text-anchor="middle" x="592.178" y="-405.8" font-family="Times New Roman,serif" font-size="14.00">c38</text>
</g>
<!-- n4&#45;&gt;n3 -->
<g id="edge27" class="edge"><title>n4&#45;&gt;n3</title>
<path fill="none" stroke="black" d="M728.442,-371.733C701.537,-377.003 659.605,-386.831 625.678,-402 614.537,-406.981 613.898,-412.199 602.678,-417 585.203,-424.477 565.861,-430.508 547.059,-435.318"/>
<polygon fill="black" stroke="black" points="546.162,-431.934 537.289,-437.723 547.835,-438.731 546.162,-431.934"/>
<text text-anchor="middle" x="636.178" y="-405.8" font-family="Times New Roman,serif" font-size="14.00">c40</text>
</g>
<!-- n12 -->
<g id="node12" class="node"><title>n12</title>
<g id="a_node12"><a xlink:title="CAPEC&#45;549:Local Execution of Code; &#10; CAPEC&#45;188:Reverse Engineering; &#10; CAPEC&#45;624:Fault Injection; &#10; CAPEC&#45;440:Hardware Integrity Attack; &#10; CAPEC&#45;390:Bypassing Physical Security; &#10; CAPEC&#45;438:Modification During Manufacture; &#10; CAPEC&#45;507:Physical Theft; &#10; CAPEC&#45;439:Manipulation During Distribution; &#10; CAPEC&#45;184:Software Integrity Attack; &#10; secureBoot DAL 7; &#10; supplyChainSecurity DAL 7; &#10; physicalAccessControl DAL 7; &#10; systemAccessControl DAL 7; &#10; memoryProtection DAL 7; &#10; hasSensitiveInfo; &#10; insideTrustedBoundary; &#10; canReceiveSWUpdate">
<polygon fill="red" stroke="black" points="863.178,-297 748.178,-297 748.178,-261 863.178,-261 863.178,-297"/>
<text text-anchor="middle" x="805.678" y="-275.3" font-family="Times New Roman,serif" font-size="14.00">positionEstimator</text>
</a>
</g>
</g>
<!-- n4&#45;&gt;n12 -->
<g id="edge18" class="edge"><title>n4&#45;&gt;n12</title>
<path fill="none" stroke="black" d="M752.34,-347.842C751.238,-337.722 751.413,-324.984 756.678,-315 758.821,-310.937 761.671,-307.238 764.924,-303.897"/>
<polygon fill="black" stroke="black" points="767.383,-306.394 772.566,-297.154 762.752,-301.145 767.383,-306.394"/>
<text text-anchor="middle" x="770.178" y="-318.8" font-family="Times New Roman,serif" font-size="14.00">c18a</text>
</g>
<!-- n4&#45;&gt;n12 -->
<g id="edge30" class="edge"><title>n4&#45;&gt;n12</title>
<path fill="none" stroke="black" d="M770.862,-347.851C775.31,-342.366 779.969,-336.123 783.678,-330 788.1,-322.7 792.132,-314.352 795.502,-306.597"/>
<polygon fill="black" stroke="black" points="798.796,-307.791 799.395,-297.213 792.33,-305.108 798.796,-307.791"/>
<text text-anchor="middle" x="802.178" y="-318.8" font-family="Times New Roman,serif" font-size="14.00">c12</text>
</g>
<!-- n5&#45;&gt;n1 -->
<g id="edge4" class="edge"><title>n5&#45;&gt;n1</title>
<path fill="none" stroke="black" d="M231.762,-558.156C241.38,-563.746 252.032,-570.046 261.678,-576 272.063,-582.41 273.232,-586.765 284.678,-591 351.983,-615.902 434.622,-623.507 489.76,-625.616"/>
<polygon fill="black" stroke="black" points="489.955,-629.124 500.066,-625.958 490.188,-622.128 489.955,-629.124"/>
<text text-anchor="middle" x="291.678" y="-579.8" font-family="Times New Roman,serif" font-size="14.00">c7</text>
</g>
<!-- n5&#45;&gt;n1 -->
<g id="edge6" class="edge"><title>n5&#45;&gt;n1</title>
<path fill="none" stroke="black" d="M194.006,-558.341C190.567,-569.044 188.829,-582.337 196.678,-591 215.932,-612.251 393.585,-621.089 489.659,-624.34"/>
<polygon fill="black" stroke="black" points="489.716,-627.844 499.825,-624.673 489.945,-620.847 489.716,-627.844"/>
<text text-anchor="middle" x="207.178" y="-579.8" font-family="Times New Roman,serif" font-size="14.00">c42</text>
</g>
<!-- n5&#45;&gt;n3 -->
<g id="edge45" class="edge"><title>n5&#45;&gt;n3</title>
<path fill="none" stroke="black" d="M222.699,-521.953C237.3,-510.951 257.658,-497.208 277.678,-489 303.479,-478.422 332.753,-470.962 359.918,-465.733"/>
<polygon fill="black" stroke="black" points="360.622,-469.162 369.821,-463.906 359.352,-462.278 360.622,-469.162"/>
<text text-anchor="middle" x="288.178" y="-492.8" font-family="Times New Roman,serif" font-size="14.00">c30</text>
</g>
<!-- n6&#45;&gt;n1 -->
<g id="edge33" class="edge"><title>n6&#45;&gt;n1</title>
<path fill="none" stroke="black" d="M106.974,-384.339C100.996,-389.471 95.0714,-395.481 90.6782,-402 43.7134,-471.695 20.0568,-537.267 84.6782,-591 115.176,-616.358 370.99,-623.398 490.101,-625.309"/>
<polygon fill="black" stroke="black" points="490.106,-628.809 500.159,-625.463 490.213,-621.81 490.106,-628.809"/>
<text text-anchor="middle" x="59.1782" y="-492.8" font-family="Times New Roman,serif" font-size="14.00">c36</text>
</g>
<!-- n6&#45;&gt;n1 -->
<g id="edge41" class="edge"><title>n6&#45;&gt;n1</title>
<path fill="none" stroke="black" d="M124.091,-384.216C109.663,-419.819 82.6902,-502.825 117.678,-558 156.712,-619.555 379.8,-627.063 489.62,-626.943"/>
<polygon fill="black" stroke="black" points="489.896,-630.443 499.884,-626.91 489.873,-623.443 489.896,-630.443"/>
<text text-anchor="middle" x="112.178" y="-492.8" font-family="Times New Roman,serif" font-size="14.00">c11</text>
</g>
<!-- n6&#45;&gt;n3 -->
<g id="edge7" class="edge"><title>n6&#45;&gt;n3</title>
<path fill="none" stroke="black" d="M158.726,-371.459C192.805,-377.316 253.043,-388.462 303.678,-402 335.228,-410.435 369.851,-421.829 397.875,-431.61"/>
<polygon fill="black" stroke="black" points="396.902,-434.978 407.497,-434.995 399.225,-428.374 396.902,-434.978"/>
<text text-anchor="middle" x="365.178" y="-405.8" font-family="Times New Roman,serif" font-size="14.00">c17</text>
</g>
<!-- n6&#45;&gt;n3 -->
<g id="edge20" class="edge"><title>n6&#45;&gt;n3</title>
<path fill="none" stroke="black" d="M159.031,-382.854C179.502,-394.04 208.532,-408.493 235.678,-417 275.468,-429.468 320.804,-437.66 359.788,-442.958"/>
<polygon fill="black" stroke="black" points="359.708,-446.478 370.079,-444.311 360.62,-439.538 359.708,-446.478"/>
<text text-anchor="middle" x="246.178" y="-405.8" font-family="Times New Roman,serif" font-size="14.00">c29</text>
</g>
<!-- n7&#45;&gt;n1 -->
<g id="edge19" class="edge"><title>n7&#45;&gt;n1</title>
<path fill="none" stroke="black" d="M879.556,-196.575C926.526,-203.393 1001.68,-222.91 1001.68,-278 1001.68,-541 1001.68,-541 1001.68,-541 1001.68,-576.747 971.87,-577.727 938.678,-591 880.872,-614.116 705.55,-622.085 611.627,-624.739"/>
<polygon fill="black" stroke="black" points="611.319,-621.246 601.418,-625.015 611.509,-628.243 611.319,-621.246"/>
<text text-anchor="middle" x="1008.68" y="-405.8" font-family="Times New Roman,serif" font-size="14.00">c5</text>
</g>
<!-- n7&#45;&gt;n3 -->
<g id="edge9" class="edge"><title>n7&#45;&gt;n3</title>
<path fill="none" stroke="black" d="M807.408,-210.206C751.845,-237.647 640.963,-293.773 550.678,-348 513.904,-370.087 496.721,-367.912 470.678,-402 465.512,-408.762 461.857,-417.193 459.297,-425.194"/>
<polygon fill="black" stroke="black" points="455.894,-424.37 456.608,-434.941 462.642,-426.231 455.894,-424.37"/>
<text text-anchor="middle" x="616.178" y="-318.8" font-family="Times New Roman,serif" font-size="14.00">c41</text>
</g>
<!-- n9 -->
<g id="node9" class="node"><title>n9</title>
<g id="a_node9"><a xlink:title="CAPEC&#45;188:Reverse Engineering; &#10; CAPEC&#45;439:Manipulation During Distribution; &#10; CAPEC&#45;507:Physical Theft; &#10; CAPEC&#45;390:Bypassing Physical Security; &#10; CAPEC&#45;624:Fault Injection; &#10; CAPEC&#45;440:Hardware Integrity Attack; &#10; CAPEC&#45;549:Local Execution of Code; &#10; CAPEC&#45;438:Modification During Manufacture; &#10; CAPEC&#45;184:Software Integrity Attack; &#10; secureBoot DAL 7; &#10; supplyChainSecurity DAL 7; &#10; physicalAccessControl DAL 7; &#10; systemAccessControl DAL 7; &#10; memoryProtection DAL 7; &#10; insideTrustedBoundary; &#10; hasSensitiveInfo; &#10; canReceiveSWUpdate">
<polygon fill="red" stroke="black" points="832.678,-123 778.678,-123 778.678,-87 832.678,-87 832.678,-123"/>
<text text-anchor="middle" x="805.678" y="-101.3" font-family="Times New Roman,serif" font-size="14.00">fc</text>
</a>
</g>
</g>
<!-- n7&#45;&gt;n9 -->
<g id="edge28" class="edge"><title>n7&#45;&gt;n9</title>
<path fill="none" stroke="black" d="M835.191,-173.799C830.025,-161.932 823.059,-145.928 817.191,-132.449"/>
<polygon fill="black" stroke="black" points="820.355,-130.947 813.155,-123.175 813.937,-133.741 820.355,-130.947"/>
<text text-anchor="middle" x="833.678" y="-144.8" font-family="Times New Roman,serif" font-size="14.00">c2</text>
</g>
<!-- n7&#45;&gt;n12 -->
<g id="edge25" class="edge"><title>n7&#45;&gt;n12</title>
<path fill="none" stroke="black" d="M835.202,-210.175C830.039,-222.036 823.073,-238.039 817.204,-251.522"/>
<polygon fill="black" stroke="black" points="813.948,-250.233 813.166,-260.799 820.366,-253.027 813.948,-250.233"/>
<text text-anchor="middle" x="837.178" y="-231.8" font-family="Times New Roman,serif" font-size="14.00">c24</text>
</g>
<!-- n8 -->
<g id="node8" class="node"><title>n8</title>
<g id="a_node8"><a xlink:title="CAPEC&#45;440:Hardware Integrity Attack; &#10; CAPEC&#45;624:Fault Injection; &#10; CAPEC&#45;390:Bypassing Physical Security; &#10; CAPEC&#45;188:Reverse Engineering; &#10; CAPEC&#45;507:Physical Theft; &#10; CAPEC&#45;439:Manipulation During Distribution; &#10; CAPEC&#45;438:Modification During Manufacture; &#10; supplyChainSecurity DAL 7; &#10; physicalAccessControl DAL 7; &#10; systemAccessControl DAL 7; &#10; hasSensitiveInfo; &#10; insideTrustedBoundary">
<polygon fill="red" stroke="black" points="795.178,-36 728.178,-36 728.178,-0 795.178,-0 795.178,-36"/>
<text text-anchor="middle" x="761.678" y="-14.3" font-family="Times New Roman,serif" font-size="14.00">actuation</text>
</a>
</g>
</g>
<!-- n8&#45;&gt;n3 -->
<g id="edge12" class="edge"><title>n8&#45;&gt;n3</title>
<path fill="none" stroke="black" d="M727.872,-20.1415C640.81,-23.995 415.678,-40.1342 415.678,-104 415.678,-367 415.678,-367 415.678,-367 415.678,-388.08 425.539,-409.74 435.214,-425.919"/>
<polygon fill="black" stroke="black" points="432.508,-428.188 440.813,-434.766 438.423,-424.444 432.508,-428.188"/>
<text text-anchor="middle" x="426.178" y="-231.8" font-family="Times New Roman,serif" font-size="14.00">c32</text>
</g>
<!-- n8&#45;&gt;n9 -->
<g id="edge11" class="edge"><title>n8&#45;&gt;n9</title>
<path fill="none" stroke="black" d="M758.571,-36.0416C757.55,-46.1202 757.73,-58.8554 762.678,-69 764.727,-73.2013 767.547,-77.0682 770.77,-80.5763"/>
<polygon fill="black" stroke="black" points="768.643,-83.3805 778.329,-87.6735 773.434,-78.2772 768.643,-83.3805"/>
<text text-anchor="middle" x="773.178" y="-57.8" font-family="Times New Roman,serif" font-size="14.00">c20</text>
</g>
<!-- n9&#45;&gt;n7 -->
<g id="edge21" class="edge"><title>n9&#45;&gt;n7</title>
<path fill="none" stroke="black" d="M802.858,-123.355C802.001,-133.307 802.251,-145.807 806.678,-156 808.273,-159.673 810.455,-163.155 812.962,-166.396"/>
<polygon fill="black" stroke="black" points="810.432,-168.817 819.713,-173.927 815.645,-164.145 810.432,-168.817"/>
<text text-anchor="middle" x="813.678" y="-144.8" font-family="Times New Roman,serif" font-size="14.00">c3</text>
</g>
<!-- n9&#45;&gt;n8 -->
<g id="edge17" class="edge"><title>n9&#45;&gt;n8</title>
<path fill="none" stroke="black" d="M798.753,-86.5801C794.696,-76.8329 789.279,-64.5555 783.678,-54 782.097,-51.0203 780.355,-47.9549 778.564,-44.9358"/>
<polygon fill="black" stroke="black" points="781.38,-42.8327 773.159,-36.1492 775.418,-46.5005 781.38,-42.8327"/>
<text text-anchor="middle" x="802.178" y="-57.8" font-family="Times New Roman,serif" font-size="14.00">c19</text>
</g>
<!-- n10 -->
<g id="node10" class="node"><title>n10</title>
<g id="a_node10"><a xlink:title="CAPEC&#45;438:Modification During Manufacture; &#10; CAPEC&#45;624:Fault Injection; &#10; CAPEC&#45;390:Bypassing Physical Security; &#10; CAPEC&#45;507:Physical Theft; &#10; CAPEC&#45;184:Software Integrity Attack; &#10; CAPEC&#45;440:Hardware Integrity Attack; &#10; CAPEC&#45;439:Manipulation During Distribution; &#10; secureBoot DAL 7; &#10; supplyChainSecurity DAL 7; &#10; physicalAccessControl DAL 7; &#10; systemAccessControl DAL 7; &#10; memoryProtection DAL 7; &#10; insideTrustedBoundary">
<polygon fill="red" stroke="black" points="1143.68,-645 1089.68,-645 1089.68,-609 1143.68,-609 1143.68,-645"/>
<text text-anchor="middle" x="1116.68" y="-623.3" font-family="Times New Roman,serif" font-size="14.00">imu</text>
</a>
</g>
</g>
<!-- n11 -->
<g id="node11" class="node"><title>n11</title>
<g id="a_node11"><a xlink:title="&#10; ">
<polygon fill="lightgrey" stroke="black" points="1155.68,-558 1079.68,-558 1079.68,-522 1155.68,-522 1155.68,-558"/>
<text text-anchor="middle" x="1117.68" y="-536.3" font-family="Times New Roman,serif" font-size="14.00">GNC.Impl</text>
</a>
</g>
</g>
<!-- n10&#45;&gt;n11 -->
<g id="edge13" class="edge"><title>n10&#45;&gt;n11</title>
<path fill="none" stroke="black" d="M1089.66,-612.729C1075,-603.559 1061.24,-590.444 1068.68,-576 1070.78,-571.916 1073.6,-568.202 1076.84,-564.853"/>
<polygon fill="black" stroke="black" points="1079.3,-567.351 1084.46,-558.099 1074.66,-562.112 1079.3,-567.351"/>
<text text-anchor="middle" x="1073.68" y="-579.8" font-family="Times New Roman,serif" font-size="14.00">i9</text>
</g>
<!-- n10&#45;&gt;n11 -->
<g id="edge23" class="edge"><title>n10&#45;&gt;n11</title>
<path fill="none" stroke="black" d="M1106.92,-608.587C1102.73,-599.055 1099.29,-586.981 1101.68,-576 1102.27,-573.279 1103.09,-570.515 1104.06,-567.796"/>
<polygon fill="black" stroke="black" points="1107.4,-568.871 1108,-558.294 1100.94,-566.188 1107.4,-568.871"/>
<text text-anchor="middle" x="1106.68" y="-579.8" font-family="Times New Roman,serif" font-size="14.00">i8</text>
</g>
<!-- n10&#45;&gt;n11 -->
<g id="edge24" class="edge"><title>n10&#45;&gt;n11</title>
<path fill="none" stroke="black" d="M1116.88,-608.799C1117.02,-597.163 1117.2,-581.548 1117.36,-568.237"/>
<polygon fill="black" stroke="black" points="1120.86,-568.216 1117.48,-558.175 1113.86,-568.134 1120.86,-568.216"/>
<text text-anchor="middle" x="1126.18" y="-579.8" font-family="Times New Roman,serif" font-size="14.00">i10</text>
</g>
<!-- n11&#45;&gt;n10 -->
<g id="edge49" class="edge"><title>n11&#45;&gt;n10</title>
<path fill="none" stroke="black" d="M1131.25,-558.224C1137.09,-567.7 1141.91,-579.782 1138.68,-591 1137.81,-594.006 1136.6,-597.004 1135.19,-599.908"/>
<polygon fill="black" stroke="black" points="1132.06,-598.339 1130.18,-608.765 1138.15,-601.788 1132.06,-598.339"/>
<text text-anchor="middle" x="1144.68" y="-579.8" font-family="Times New Roman,serif" font-size="14.00">i4</text>
</g>
<!-- n13 -->
<g id="node13" class="node"><title>n13</title>
<g id="a_node13"><a xlink:title="CAPEC&#45;438:Modification During Manufacture; &#10; CAPEC&#45;130:Excessive Allocation; &#10; CAPEC&#45;151:Identity Spoofing; &#10; CAPEC&#45;184:Software Integrity Attack; &#10; CAPEC&#45;112:Brute Force; &#10; CAPEC&#45;594:Traffic Injection; &#10; CAPEC&#45;507:Physical Theft; &#10; CAPEC&#45;28:Fuzzing; &#10; CAPEC&#45;175:Code Inclusion; &#10; CAPEC&#45;114:Authentication Abuse; &#10; CAPEC&#45;22:Exploiting Trust in Client; &#10; CAPEC&#45;586:Object Injection; &#10; CAPEC&#45;26:Leveraging Race Conditions; &#10; CAPEC&#45;390:Bypassing Physical Security; &#10; CAPEC&#45;624:Fault Injection; &#10; CAPEC&#45;242:Code Injection; &#10; CAPEC&#45;21:Exploitation of Trusted Credentials; &#10; CAPEC&#45;248:Command Injection; &#10; CAPEC&#45;440:Hardware Integrity Attack; &#10; CAPEC&#45;123:Buffer Manipulation; &#10; CAPEC&#45;439:Manipulation During Distribution; &#10; CAPEC&#45;74:Manipulating User State; &#10; CAPEC&#45;25:Forced Deadlock; &#10; CAPEC&#45;137:Parameter Injection; &#10; CAPEC&#45;115:Authentication Bypass; &#10; CAPEC&#45;125:Flooding; &#10; CAPEC&#45;131:Resource Leak Exposure; &#10; CAPEC&#45;607:Obstruction; &#10; secureBoot DAL 7; &#10; supplyChainSecurity DAL 7; &#10; inputValidation DAL 7; &#10; physicalAccessControl DAL 7; &#10; staticCodeAnalysis DAL 7; &#10; antiJamming DAL 7; &#10; systemAccessControl DAL 7; &#10; dosProtection DAL 7; &#10; deviceAuthentication DAL 7; &#10; sessionAuthenticity DAL 7; &#10; memoryProtection DAL 7; &#10; resourceAvailability DAL 7; &#10; strongCryptoAlgorithms DAL 7; &#10; dataReceivedFromUntrusted; &#10; insideTrustedBoundary">
<polygon fill="red" stroke="black" points="1143.68,-471 1089.68,-471 1089.68,-435 1143.68,-435 1143.68,-471"/>
<text text-anchor="middle" x="1116.68" y="-449.3" font-family="Times New Roman,serif" font-size="14.00">gps</text>
</a>
</g>
</g>
<!-- n11&#45;&gt;n13 -->
<g id="edge26" class="edge"><title>n11&#45;&gt;n13</title>
<path fill="none" stroke="black" d="M1079.38,-532.361C1063.03,-527.425 1045.49,-518.853 1035.68,-504 1021.97,-483.244 1052.38,-469.611 1079.77,-461.9"/>
<polygon fill="black" stroke="black" points="1080.85,-465.236 1089.64,-459.324 1079.08,-458.463 1080.85,-465.236"/>
<text text-anchor="middle" x="1040.68" y="-492.8" font-family="Times New Roman,serif" font-size="14.00">i3</text>
</g>
<!-- n11&#45;&gt;n13 -->
<g id="edge32" class="edge"><title>n11&#45;&gt;n13</title>
<path fill="none" stroke="black" d="M1084.46,-521.901C1078.11,-517.019 1072.31,-511.065 1068.68,-504 1062.7,-492.377 1070.44,-481.615 1081.33,-473.076"/>
<polygon fill="black" stroke="black" points="1083.46,-475.857 1089.66,-467.271 1079.46,-470.113 1083.46,-475.857"/>
<text text-anchor="middle" x="1073.68" y="-492.8" font-family="Times New Roman,serif" font-size="14.00">i2</text>
</g>
<!-- n11&#45;&gt;n13 -->
<g id="edge36" class="edge"><title>n11&#45;&gt;n13</title>
<path fill="none" stroke="black" d="M1108,-521.706C1105.42,-516.215 1102.99,-510.006 1101.68,-504 1100.03,-496.451 1101.15,-488.385 1103.37,-480.983"/>
<polygon fill="black" stroke="black" points="1106.72,-482.006 1106.92,-471.413 1100.16,-479.57 1106.72,-482.006"/>
<text text-anchor="middle" x="1106.68" y="-492.8" font-family="Times New Roman,serif" font-size="14.00">i1</text>
</g>
<!-- n12&#45;&gt;n7 -->
<g id="edge37" class="edge"><title>n12&#45;&gt;n7</title>
<path fill="none" stroke="black" d="M801.831,-260.633C800.465,-250.678 800.215,-238.178 804.678,-228 806.293,-224.316 808.509,-220.849 811.064,-217.636"/>
<polygon fill="black" stroke="black" points="813.735,-219.904 817.97,-210.192 808.603,-215.143 813.735,-219.904"/>
<text text-anchor="middle" x="811.678" y="-231.8" font-family="Times New Roman,serif" font-size="14.00">c1</text>
</g>
<!-- n13&#45;&gt;n11 -->
<g id="edge38" class="edge"><title>n13&#45;&gt;n11</title>
<path fill="none" stroke="black" d="M1116.88,-471.175C1117.02,-482.806 1117.2,-498.419 1117.36,-511.734"/>
<polygon fill="black" stroke="black" points="1113.86,-511.841 1117.48,-521.799 1120.86,-511.758 1113.86,-511.841"/>
<text text-anchor="middle" x="1122.68" y="-492.8" font-family="Times New Roman,serif" font-size="14.00">i7</text>
</g>
<!-- n13&#45;&gt;n11 -->
<g id="edge44" class="edge"><title>n13&#45;&gt;n11</title>
<path fill="none" stroke="black" d="M1125.75,-471.353C1128.17,-476.846 1130.46,-483.042 1131.68,-489 1133.22,-496.528 1132.19,-504.587 1130.12,-511.988"/>
<polygon fill="black" stroke="black" points="1126.77,-510.967 1126.8,-521.562 1133.38,-513.259 1126.77,-510.967"/>
<text text-anchor="middle" x="1136.68" y="-492.8" font-family="Times New Roman,serif" font-size="14.00">i6</text>
</g>
<!-- n13&#45;&gt;n11 -->
<g id="edge46" class="edge"><title>n13&#45;&gt;n11</title>
<path fill="none" stroke="black" d="M1135.01,-471.358C1139.35,-476.571 1143.38,-482.616 1145.68,-489 1148.64,-497.207 1146.28,-505.658 1141.91,-513.223"/>
<polygon fill="black" stroke="black" points="1138.9,-511.425 1136.05,-521.629 1144.64,-515.431 1138.9,-511.425"/>
<text text-anchor="middle" x="1151.68" y="-492.8" font-family="Times New Roman,serif" font-size="14.00">i5</text>
</g>
<!-- n14&#45;&gt;n1 -->
<g id="edge43" class="edge"><title>n14&#45;&gt;n1</title>
<path fill="none" stroke="black" d="M633.19,-370.578C653.724,-374.673 677.762,-383.408 690.678,-402 710.49,-430.518 693.782,-525.453 681.678,-558 675.265,-575.246 671.646,-580.298 656.678,-591 643.166,-600.661 626.819,-607.776 611.051,-612.967"/>
<polygon fill="black" stroke="black" points="609.866,-609.67 601.338,-615.956 611.926,-616.36 609.866,-609.67"/>
<text text-anchor="middle" x="711.678" y="-492.8" font-family="Times New Roman,serif" font-size="14.00">c14b</text>
</g>
</g>
</svg>
