<?xml version="1.0" encoding="UTF-8" standalone="no"?>
<!DOCTYPE svg PUBLIC "-//W3C//DTD SVG 1.1//EN"
 "http://www.w3.org/Graphics/SVG/1.1/DTD/svg11.dtd">
<!-- Generated by graphviz version 2.40.1 (20161225.0304)
 -->
<!-- Title: gRun_sadl11 Pages: 1 -->
<svg width="1123pt" height="754pt"
 viewBox="0.00 0.00 1122.71 754.00" xmlns="http://www.w3.org/2000/svg" xmlns:xlink="http://www.w3.org/1999/xlink">
<g id="graph0" class="graph" transform="scale(1 1) rotate(0) translate(4 750)">
<title>gRun_sadl11</title>
<polygon fill="#ffffff" stroke="transparent" points="-4,4 -4,-750 1118.7101,-750 1118.7101,4 -4,4"/>
<text text-anchor="middle" x="56.019" y="-730.8" font-family="Times,serif" font-size="14.00" fill="#000000">Cmd 13 &#160;(Graph)</text>
<!-- n1 -->
<g id="node1" class="node">
<title>n1</title>
<g id="a_node1"><a xlink:title="&#10; ">
<polygon fill="#d3d3d3" stroke="#000000" points="199.9979,-724 124.9946,-724 124.9946,-688 199.9979,-688 199.9979,-724"/>
<text text-anchor="middle" x="162.4962" y="-701.8" font-family="Times,serif" font-size="14.00" fill="#000000">GNC.Impl</text>
</a>
</g>
</g>
<!-- n2 -->
<g id="node2" class="node">
<title>n2</title>
<g id="a_node2"><a xlink:title="&#10; ">
<polygon fill="#d3d3d3" stroke="#000000" points="80.4962,-638 26.4962,-638 26.4962,-602 80.4962,-602 80.4962,-638"/>
<text text-anchor="middle" x="53.4962" y="-615.8" font-family="Times,serif" font-size="14.00" fill="#000000">imu</text>
</a>
</g>
</g>
<!-- n1&#45;&gt;n2 -->
<g id="edge1" class="edge">
<title>n1&#45;&gt;n2</title>
<path fill="none" stroke="#000000" d="M124.7107,-702.7833C82.6091,-698.324 18.4788,-688.6188 3.6066,-670 -5.3932,-658.7331 4.402,-647.2669 17.6242,-638.162"/>
<polygon fill="#000000" stroke="#000000" points="19.5407,-641.0915 26.1623,-632.8208 15.8283,-635.157 19.5407,-641.0915"/>
<text text-anchor="middle" x="9.941" y="-658.8" font-family="Times,serif" font-size="14.00" fill="#000000">i4</text>
</g>
<!-- n10 -->
<g id="node10" class="node">
<title>n10</title>
<g id="a_node10"><a xlink:title="&#10; ">
<polygon fill="#d3d3d3" stroke="#000000" points="257.4962,-638 203.4962,-638 203.4962,-602 257.4962,-602 257.4962,-638"/>
<text text-anchor="middle" x="230.4962" y="-615.8" font-family="Times,serif" font-size="14.00" fill="#000000">gps</text>
</a>
</g>
</g>
<!-- n1&#45;&gt;n10 -->
<g id="edge8" class="edge">
<title>n1&#45;&gt;n10</title>
<path fill="none" stroke="#000000" d="M149.4794,-687.8274C144.0417,-677.8447 140.2911,-665.5826 146.6066,-656 157.032,-640.1812 176.0126,-631.2861 193.2855,-626.2978"/>
<polygon fill="#000000" stroke="#000000" points="194.3473,-629.6394 203.1806,-623.7894 192.6271,-622.854 194.3473,-629.6394"/>
<text text-anchor="middle" x="152.941" y="-658.8" font-family="Times,serif" font-size="14.00" fill="#000000">i1</text>
</g>
<!-- n1&#45;&gt;n10 -->
<g id="edge33" class="edge">
<title>n1&#45;&gt;n10</title>
<path fill="none" stroke="#000000" d="M166.3415,-687.5968C169.1012,-677.542 173.5979,-665.2845 180.6066,-656 184.714,-650.5588 189.8746,-645.593 195.3079,-641.2037"/>
<polygon fill="#000000" stroke="#000000" points="197.4431,-643.9776 203.3724,-635.1973 193.2618,-638.3636 197.4431,-643.9776"/>
<text text-anchor="middle" x="186.941" y="-658.8" font-family="Times,serif" font-size="14.00" fill="#000000">i2</text>
</g>
<!-- n1&#45;&gt;n10 -->
<g id="edge50" class="edge">
<title>n1&#45;&gt;n10</title>
<path fill="none" stroke="#000000" d="M177.305,-687.7304C181.8742,-682.0629 186.9095,-675.7862 191.4962,-670 197.6233,-662.2706 204.2385,-653.8273 210.2498,-646.1164"/>
<polygon fill="#000000" stroke="#000000" points="213.1047,-648.1468 216.4839,-638.1053 207.5803,-643.8478 213.1047,-648.1468"/>
<text text-anchor="middle" x="207.941" y="-658.8" font-family="Times,serif" font-size="14.00" fill="#000000">i3</text>
</g>
<!-- n2&#45;&gt;n1 -->
<g id="edge9" class="edge">
<title>n2&#45;&gt;n1</title>
<path fill="none" stroke="#000000" d="M40.294,-638.0131C34.5691,-648.1841 30.5967,-660.6841 37.6066,-670 47.1251,-682.6498 83.7283,-692.2479 114.8663,-698.3393"/>
<polygon fill="#000000" stroke="#000000" points="114.2687,-701.7881 124.7428,-700.1932 115.5602,-694.9083 114.2687,-701.7881"/>
<text text-anchor="middle" x="43.941" y="-658.8" font-family="Times,serif" font-size="14.00" fill="#000000">i8</text>
</g>
<!-- n2&#45;&gt;n1 -->
<g id="edge21" class="edge">
<title>n2&#45;&gt;n1</title>
<path fill="none" stroke="#000000" d="M56.2634,-638.1557C58.7068,-648.6293 63.2464,-661.3884 71.6066,-670 83.3548,-682.1014 99.6779,-690.2324 115.2538,-695.652"/>
<polygon fill="#000000" stroke="#000000" points="114.2175,-698.9951 124.8079,-698.6873 116.3371,-692.3236 114.2175,-698.9951"/>
<text text-anchor="middle" x="81.441" y="-658.8" font-family="Times,serif" font-size="14.00" fill="#000000">i10</text>
</g>
<!-- n2&#45;&gt;n1 -->
<g id="edge43" class="edge">
<title>n2&#45;&gt;n1</title>
<path fill="none" stroke="#000000" d="M76.3161,-638.0047C92.2961,-650.6128 113.8426,-667.6127 131.3933,-681.4601"/>
<polygon fill="#000000" stroke="#000000" points="129.6276,-684.5252 139.6462,-687.9716 133.9635,-679.0297 129.6276,-684.5252"/>
<text text-anchor="middle" x="120.941" y="-658.8" font-family="Times,serif" font-size="14.00" fill="#000000">i9</text>
</g>
<!-- n3 -->
<g id="node3" class="node">
<title>n3</title>
<g id="a_node3"><a xlink:title="CAPEC&#45;507:Physical Theft; &#10; CAPEC&#45;439:Manipulation During Distribution; &#10; CAPEC&#45;440:Hardware Integrity Attack; &#10; insideTrustedBoundary">
<polygon fill="#ff0000" stroke="#000000" points="753.8381,-724 601.1543,-724 601.1543,-688 753.8381,-688 753.8381,-724"/>
<text text-anchor="middle" x="677.4962" y="-701.8" font-family="Times,serif" font-size="14.00" fill="#000000">deliveryItemMechanism</text>
</a>
</g>
</g>
<!-- n4 -->
<g id="node4" class="node">
<title>n4</title>
<g id="a_node4"><a xlink:title="CAPEC&#45;507:Physical Theft; &#10; CAPEC&#45;184:Software Integrity Attack; &#10; CAPEC&#45;438:Modification During Manufacture; &#10; CAPEC&#45;440:Hardware Integrity Attack; &#10; CAPEC&#45;439:Manipulation During Distribution; &#10; CAPEC&#45;624:Fault Injection; &#10; insideTrustedBoundary">
<polygon fill="#ff0000" stroke="#000000" points="773.6316,-638 669.3608,-638 669.3608,-602 773.6316,-602 773.6316,-638"/>
<text text-anchor="middle" x="721.4962" y="-615.8" font-family="Times,serif" font-size="14.00" fill="#000000">deliveryPlanner</text>
</a>
</g>
</g>
<!-- n3&#45;&gt;n4 -->
<g id="edge2" class="edge">
<title>n3&#45;&gt;n4</title>
<path fill="none" stroke="#000000" d="M685.2719,-687.7283C689.4806,-678.1622 694.9076,-666.3227 700.2823,-656 701.8235,-653.0401 703.4957,-649.9816 705.2021,-646.9555"/>
<polygon fill="#000000" stroke="#000000" points="708.3447,-648.5129 710.3273,-638.1052 702.2871,-645.0049 708.3447,-648.5129"/>
<text text-anchor="middle" x="709.6031" y="-658.8" font-family="Times,serif" font-size="14.00" fill="#000000">c42</text>
</g>
<!-- n3&#45;&gt;n4 -->
<g id="edge15" class="edge">
<title>n3&#45;&gt;n4</title>
<path fill="none" stroke="#000000" d="M706.1931,-687.9224C711.9404,-682.8656 717.2143,-676.8484 720.4962,-670 723.6222,-663.4769 724.8195,-655.904 725.0123,-648.6555"/>
<polygon fill="#000000" stroke="#000000" points="728.5031,-648.3101 724.6838,-638.4277 721.5067,-648.5349 728.5031,-648.3101"/>
<text text-anchor="middle" x="730.1031" y="-658.8" font-family="Times,serif" font-size="14.00" fill="#000000">c7</text>
</g>
<!-- n5 -->
<g id="node5" class="node">
<title>n5</title>
<g id="a_node5"><a xlink:title="&#10; ">
<polygon fill="#d3d3d3" stroke="#000000" points="704.131,-466 532.8614,-466 532.8614,-430 704.131,-430 704.131,-466"/>
<text text-anchor="middle" x="618.4962" y="-443.8" font-family="Times,serif" font-size="14.00" fill="#000000">DeliveryDroneSystem.Impl</text>
</a>
</g>
</g>
<!-- n3&#45;&gt;n5 -->
<g id="edge23" class="edge">
<title>n3&#45;&gt;n5</title>
<path fill="none" stroke="#000000" d="M601.1112,-688.637C512.6716,-666.8056 375.2642,-626.9499 345.2823,-584 294.8498,-511.7538 425.2148,-475.9816 522.7767,-459.7822"/>
<polygon fill="#000000" stroke="#000000" points="523.3884,-463.2289 532.7038,-458.1817 522.2741,-456.3181 523.3884,-463.2289"/>
<text text-anchor="middle" x="355.6031" y="-572.8" font-family="Times,serif" font-size="14.00" fill="#000000">c30</text>
</g>
<!-- n4&#45;&gt;n3 -->
<g id="edge48" class="edge">
<title>n4&#45;&gt;n3</title>
<path fill="none" stroke="#000000" d="M685.0623,-638.1813C678.7112,-643.063 672.9684,-648.9814 669.2823,-656 665.7955,-662.6394 665.5418,-670.4016 666.7546,-677.8025"/>
<polygon fill="#000000" stroke="#000000" points="663.3608,-678.6589 669.1515,-687.5313 670.1576,-676.9843 663.3608,-678.6589"/>
<text text-anchor="middle" x="678.6031" y="-658.8" font-family="Times,serif" font-size="14.00" fill="#000000">c25</text>
</g>
<!-- n4&#45;&gt;n5 -->
<g id="edge5" class="edge">
<title>n4&#45;&gt;n5</title>
<path fill="none" stroke="#000000" d="M723.8454,-601.5878C726.4193,-573.268 727.1343,-518.6683 700.4962,-484 697.0031,-479.4538 692.8149,-475.4704 688.2044,-471.982"/>
<polygon fill="#000000" stroke="#000000" points="689.7782,-468.8263 679.5083,-466.2226 685.913,-474.6624 689.7782,-468.8263"/>
<text text-anchor="middle" x="733.6031" y="-529.8" font-family="Times,serif" font-size="14.00" fill="#000000">c15</text>
</g>
<!-- n4&#45;&gt;n5 -->
<g id="edge10" class="edge">
<title>n4&#45;&gt;n5</title>
<path fill="none" stroke="#000000" d="M713.6196,-601.8266C699.5326,-569.6797 670.1317,-504.2658 655.4962,-484 652.9579,-480.4852 650.0577,-477.0132 647.023,-473.6934"/>
<polygon fill="#000000" stroke="#000000" points="649.2871,-471.0015 639.805,-466.2749 644.27,-475.883 649.2871,-471.0015"/>
<text text-anchor="middle" x="700.6031" y="-529.8" font-family="Times,serif" font-size="14.00" fill="#000000">c43</text>
</g>
<!-- n4&#45;&gt;n5 -->
<g id="edge18" class="edge">
<title>n4&#45;&gt;n5</title>
<path fill="none" stroke="#000000" d="M732.5896,-601.9228C744.0347,-580.8449 758.7482,-545.1721 747.4962,-516 739.4374,-495.1067 721.547,-480.5334 701.5812,-470.4071"/>
<polygon fill="#000000" stroke="#000000" points="702.8305,-467.1275 692.2895,-466.0606 699.8644,-473.4681 702.8305,-467.1275"/>
<text text-anchor="middle" x="761.6031" y="-529.8" font-family="Times,serif" font-size="14.00" fill="#000000">c31</text>
</g>
<!-- n4&#45;&gt;n5 -->
<g id="edge28" class="edge">
<title>n4&#45;&gt;n5</title>
<path fill="none" stroke="#000000" d="M669.126,-616.8471C605.1811,-612.2673 501.3575,-602.2572 467.4962,-584 450.8068,-575.0015 445.9848,-569.7366 439.2823,-552 427.716,-521.3921 439.4505,-500.8541 467.4962,-484 484.2932,-473.9059 503.7307,-466.6416 522.9536,-461.4139"/>
<polygon fill="#000000" stroke="#000000" points="523.841,-464.7997 532.6646,-458.9349 522.1095,-458.0172 523.841,-464.7997"/>
<text text-anchor="middle" x="449.6031" y="-529.8" font-family="Times,serif" font-size="14.00" fill="#000000">c39</text>
</g>
<!-- n4&#45;&gt;n5 -->
<g id="edge35" class="edge">
<title>n4&#45;&gt;n5</title>
<path fill="none" stroke="#000000" d="M669.1157,-614.4072C619.0941,-608.3698 547.8351,-597.743 523.4962,-584 506.9857,-574.6773 501.9848,-569.7366 495.2823,-552 483.9937,-522.127 492.9652,-503.1833 518.4962,-484 525.5165,-478.7251 533.3825,-474.1673 541.5372,-470.2423"/>
<polygon fill="#000000" stroke="#000000" points="543.1425,-473.3583 550.837,-466.0752 540.28,-466.9703 543.1425,-473.3583"/>
<text text-anchor="middle" x="505.6031" y="-529.8" font-family="Times,serif" font-size="14.00" fill="#000000">c28</text>
</g>
<!-- n4&#45;&gt;n5 -->
<g id="edge41" class="edge">
<title>n4&#45;&gt;n5</title>
<path fill="none" stroke="#000000" d="M669.3168,-612.6485C630.3089,-606.314 580.99,-596.2643 564.4962,-584 528.8024,-557.4591 531.2788,-517.5382 560.4962,-484 564.3363,-479.592 568.85,-475.5461 573.6351,-471.8864"/>
<polygon fill="#000000" stroke="#000000" points="575.7044,-474.7101 581.8733,-466.0964 571.6793,-468.9831 575.7044,-474.7101"/>
<text text-anchor="middle" x="551.6031" y="-529.8" font-family="Times,serif" font-size="14.00" fill="#000000">c44</text>
</g>
<!-- n7 -->
<g id="node7" class="node">
<title>n7</title>
<g id="a_node7"><a xlink:title="CAPEC&#45;507:Physical Theft; &#10; CAPEC&#45;439:Manipulation During Distribution; &#10; CAPEC&#45;440:Hardware Integrity Attack; &#10; insideTrustedBoundary">
<polygon fill="#ff0000" stroke="#000000" points="739.0929,-208 663.8995,-208 663.8995,-172 739.0929,-172 739.0929,-208"/>
<text text-anchor="middle" x="701.4962" y="-185.8" font-family="Times,serif" font-size="14.00" fill="#000000">navigation</text>
</a>
</g>
</g>
<!-- n4&#45;&gt;n7 -->
<g id="edge6" class="edge">
<title>n4&#45;&gt;n7</title>
<path fill="none" stroke="#000000" d="M773.6335,-617.5309C866.5101,-612.7243 1053.186,-601.0644 1077.4962,-584 1097.6716,-569.8381 1101.4962,-558.6496 1101.4962,-534 1101.4962,-534 1101.4962,-534 1101.4962,-276 1101.4962,-251.3504 1097.7092,-240.1081 1077.4962,-226 1064.2202,-216.7337 847.6158,-200.3368 749.3311,-193.3279"/>
<polygon fill="#000000" stroke="#000000" points="749.578,-189.8367 739.3553,-192.6198 749.0823,-196.8191 749.578,-189.8367"/>
<text text-anchor="middle" x="1108.1031" y="-400.8" font-family="Times,serif" font-size="14.00" fill="#000000">c4</text>
</g>
<!-- n4&#45;&gt;n7 -->
<g id="edge40" class="edge">
<title>n4&#45;&gt;n7</title>
<path fill="none" stroke="#000000" d="M669.1815,-617.6503C573.3771,-611.91 379.4962,-593.0041 379.4962,-534 379.4962,-534 379.4962,-534 379.4962,-276 379.4962,-219.924 564.0821,-199.4625 653.7423,-192.8312"/>
<polygon fill="#000000" stroke="#000000" points="654.2019,-196.3075 663.9285,-192.1072 653.7055,-189.3251 654.2019,-196.3075"/>
<text text-anchor="middle" x="389.6031" y="-400.8" font-family="Times,serif" font-size="14.00" fill="#000000">c26</text>
</g>
<!-- n8 -->
<g id="node8" class="node">
<title>n8</title>
<g id="a_node8"><a xlink:title="&#10; ">
<polygon fill="#d3d3d3" stroke="#000000" points="807.4962,-380 753.4962,-380 753.4962,-344 807.4962,-344 807.4962,-380"/>
<text text-anchor="middle" x="780.4962" y="-357.8" font-family="Times,serif" font-size="14.00" fill="#000000">gnc</text>
</a>
</g>
</g>
<!-- n4&#45;&gt;n8 -->
<g id="edge31" class="edge">
<title>n4&#45;&gt;n8</title>
<path fill="none" stroke="#000000" d="M742.0368,-601.7482C754.4893,-589.1925 769.1598,-571.34 775.4962,-552 795.0114,-492.4362 788.7115,-474.5649 792.4962,-412 792.8719,-405.7891 793.4929,-404.1419 792.4962,-398 792.0563,-395.2891 791.4414,-392.5064 790.7203,-389.7473"/>
<polygon fill="#000000" stroke="#000000" points="794.0228,-388.5771 787.7654,-380.0275 787.3254,-390.6132 794.0228,-388.5771"/>
<text text-anchor="middle" x="799.6031" y="-486.8" font-family="Times,serif" font-size="14.00" fill="#000000">c33</text>
</g>
<!-- n4&#45;&gt;n8 -->
<g id="edge51" class="edge">
<title>n4&#45;&gt;n8</title>
<path fill="none" stroke="#000000" d="M755.0128,-601.9115C762.6625,-596.7878 770.3416,-590.7434 776.4962,-584 804.5464,-553.2665 806.1553,-538.9569 813.4962,-498 818.5299,-469.9159 827.6816,-455.4393 806.4962,-398 805.349,-394.8897 803.8537,-391.8086 802.1595,-388.8346"/>
<polygon fill="#000000" stroke="#000000" points="805.0089,-386.7958 796.6297,-380.3119 799.1367,-390.6059 805.0089,-386.7958"/>
<text text-anchor="middle" x="825.6031" y="-486.8" font-family="Times,serif" font-size="14.00" fill="#000000">c1b</text>
</g>
<!-- n13 -->
<g id="node13" class="node">
<title>n13</title>
<g id="a_node13"><a xlink:title="CAPEC&#45;440:Hardware Integrity Attack; &#10; CAPEC&#45;439:Manipulation During Distribution; &#10; CAPEC&#45;507:Physical Theft; &#10; insideTrustedBoundary">
<polygon fill="#ff0000" stroke="#000000" points="1023.9049,-552 967.0875,-552 967.0875,-516 1023.9049,-516 1023.9049,-552"/>
<text text-anchor="middle" x="995.4962" y="-529.8" font-family="Times,serif" font-size="14.00" fill="#000000">camera</text>
</a>
</g>
</g>
<!-- n4&#45;&gt;n13 -->
<g id="edge44" class="edge">
<title>n4&#45;&gt;n13</title>
<path fill="none" stroke="#000000" d="M773.6626,-618.0616C837.2174,-614.7572 939.9087,-606.0854 970.4962,-584 978.1569,-578.4687 983.6066,-569.9128 987.419,-561.4329"/>
<polygon fill="#000000" stroke="#000000" points="990.7028,-562.6453 991.0583,-552.0565 984.1771,-560.1125 990.7028,-562.6453"/>
<text text-anchor="middle" x="992.6031" y="-572.8" font-family="Times,serif" font-size="14.00" fill="#000000">c27</text>
</g>
<!-- n14 -->
<g id="node14" class="node">
<title>n14</title>
<g id="a_node14"><a xlink:title="CAPEC&#45;440:Hardware Integrity Attack; &#10; CAPEC&#45;507:Physical Theft; &#10; CAPEC&#45;439:Manipulation During Distribution; &#10; antiJamming; &#10; insideTrustedBoundary">
<polygon fill="#ff0000" stroke="#000000" points="629.4962,-552 575.4962,-552 575.4962,-516 629.4962,-516 629.4962,-552"/>
<text text-anchor="middle" x="602.4962" y="-529.8" font-family="Times,serif" font-size="14.00" fill="#000000">radio</text>
</a>
</g>
</g>
<!-- n4&#45;&gt;n14 -->
<g id="edge19" class="edge">
<title>n4&#45;&gt;n14</title>
<path fill="none" stroke="#000000" d="M685.9429,-601.9707C676.3644,-596.6082 666.1936,-590.4342 657.2823,-584 647.1081,-576.6539 636.7407,-567.655 627.8017,-559.3263"/>
<polygon fill="#000000" stroke="#000000" points="630.0111,-556.5972 620.3546,-552.238 625.185,-561.6677 630.0111,-556.5972"/>
<text text-anchor="middle" x="666.6031" y="-572.8" font-family="Times,serif" font-size="14.00" fill="#000000">c10</text>
</g>
<!-- n6 -->
<g id="node6" class="node">
<title>n6</title>
<g id="a_node6"><a xlink:title="CAPEC&#45;439:Manipulation During Distribution; &#10; CAPEC&#45;440:Hardware Integrity Attack; &#10; CAPEC&#45;507:Physical Theft; &#10; insideTrustedBoundary">
<polygon fill="#ff0000" stroke="#000000" points="342.1898,-380 270.8026,-380 270.8026,-344 342.1898,-344 342.1898,-380"/>
<text text-anchor="middle" x="306.4962" y="-357.8" font-family="Times,serif" font-size="14.00" fill="#000000">connector</text>
</a>
</g>
</g>
<!-- n5&#45;&gt;n6 -->
<g id="edge3" class="edge">
<title>n5&#45;&gt;n6</title>
<path fill="none" stroke="#000000" d="M532.6097,-441.3774C453.9454,-434.646 347.3207,-423.5857 331.0685,-412 323.4006,-406.5338 318.011,-397.9936 314.2759,-389.508"/>
<polygon fill="#000000" stroke="#000000" points="317.5366,-388.2355 310.7285,-380.1176 310.9883,-390.7092 317.5366,-388.2355"/>
<text text-anchor="middle" x="344.7101" y="-400.8" font-family="Times,serif" font-size="14.00" fill="#000000">c14a</text>
</g>
<!-- n5&#45;&gt;n8 -->
<g id="edge26" class="edge">
<title>n5&#45;&gt;n8</title>
<path fill="none" stroke="#000000" d="M646.0041,-429.7479C665.9008,-416.6044 690.1549,-400.7247 695.2823,-398 710.7551,-389.7776 728.5168,-382.0251 743.8061,-375.8353"/>
<polygon fill="#000000" stroke="#000000" points="745.4468,-378.9496 753.4474,-372.0041 742.8618,-372.4444 745.4468,-378.9496"/>
<text text-anchor="middle" x="704.6031" y="-400.8" font-family="Times,serif" font-size="14.00" fill="#000000">c22</text>
</g>
<!-- n5&#45;&gt;n8 -->
<g id="edge34" class="edge">
<title>n5&#45;&gt;n8</title>
<path fill="none" stroke="#000000" d="M675.9347,-429.9276C689.2676,-424.8544 703.1593,-418.8286 715.4962,-412 717.4718,-410.9065 733.4566,-398.6142 749.0784,-386.4928"/>
<polygon fill="#000000" stroke="#000000" points="751.3896,-389.1294 757.1384,-380.2298 747.0945,-383.6019 751.3896,-389.1294"/>
<text text-anchor="middle" x="742.6031" y="-400.8" font-family="Times,serif" font-size="14.00" fill="#000000">c23</text>
</g>
<!-- n5&#45;&gt;n14 -->
<g id="edge46" class="edge">
<title>n5&#45;&gt;n14</title>
<path fill="none" stroke="#000000" d="M610.7012,-466.0082C608.5767,-471.6651 606.5216,-478.0016 605.2823,-484 603.8405,-490.979 603.0364,-498.6149 602.6094,-505.7715"/>
<polygon fill="#000000" stroke="#000000" points="599.1114,-505.654 602.2233,-515.7815 606.1062,-505.9238 599.1114,-505.654"/>
<text text-anchor="middle" x="615.6031" y="-486.8" font-family="Times,serif" font-size="14.00" fill="#000000">c16</text>
</g>
<!-- n6&#45;&gt;n4 -->
<g id="edge4" class="edge">
<title>n6&#45;&gt;n4</title>
<path fill="none" stroke="#000000" d="M302.1814,-380.1817C293.2745,-422.7556 278.1089,-529.4274 334.4962,-584 357.3136,-606.083 555.8035,-615.1546 659.2927,-618.4099"/>
<polygon fill="#000000" stroke="#000000" points="659.2029,-621.9087 669.3052,-618.716 659.4168,-614.9119 659.2029,-621.9087"/>
<text text-anchor="middle" x="310.1031" y="-486.8" font-family="Times,serif" font-size="14.00" fill="#000000">c14b</text>
</g>
<!-- n7&#45;&gt;n4 -->
<g id="edge37" class="edge">
<title>n7&#45;&gt;n4</title>
<path fill="none" stroke="#000000" d="M739.2121,-191.009C831.9293,-194.5088 1063.4962,-209.8694 1063.4962,-276 1063.4962,-534 1063.4962,-534 1063.4962,-534 1063.4962,-559.6895 1055.9865,-569.9245 1034.4962,-584 1014.0227,-597.4096 869.1916,-609.665 783.8914,-615.8259"/>
<polygon fill="#000000" stroke="#000000" points="783.5217,-612.3433 773.7964,-616.5467 784.0203,-619.3255 783.5217,-612.3433"/>
<text text-anchor="middle" x="1070.1031" y="-400.8" font-family="Times,serif" font-size="14.00" fill="#000000">c5</text>
</g>
<!-- n7&#45;&gt;n5 -->
<g id="edge17" class="edge">
<title>n7&#45;&gt;n5</title>
<path fill="none" stroke="#000000" d="M692.261,-208.1386C685.6212,-221.6497 676.7693,-240.6771 670.4962,-258 650.1474,-314.1921 633.3493,-382.2024 624.7361,-419.7127"/>
<polygon fill="#000000" stroke="#000000" points="621.2268,-419.3622 622.4292,-429.8886 628.0536,-420.9099 621.2268,-419.3622"/>
<text text-anchor="middle" x="662.6031" y="-314.8" font-family="Times,serif" font-size="14.00" fill="#000000">c41</text>
</g>
<!-- n9 -->
<g id="node9" class="node">
<title>n9</title>
<g id="a_node9"><a xlink:title="CAPEC&#45;439:Manipulation During Distribution; &#10; CAPEC&#45;507:Physical Theft; &#10; CAPEC&#45;440:Hardware Integrity Attack; &#10; insideTrustedBoundary">
<polygon fill="#ff0000" stroke="#000000" points="795.0488,-294 679.9436,-294 679.9436,-258 795.0488,-258 795.0488,-294"/>
<text text-anchor="middle" x="737.4962" y="-271.8" font-family="Times,serif" font-size="14.00" fill="#000000">positionEstimator</text>
</a>
</g>
</g>
<!-- n7&#45;&gt;n9 -->
<g id="edge13" class="edge">
<title>n7&#45;&gt;n9</title>
<path fill="none" stroke="#000000" d="M709.1199,-208.2121C713.9859,-219.8366 720.3884,-235.1313 725.8801,-248.2503"/>
<polygon fill="#000000" stroke="#000000" points="722.7715,-249.8887 729.8615,-257.7616 729.2286,-247.1857 722.7715,-249.8887"/>
<text text-anchor="middle" x="731.6031" y="-228.8" font-family="Times,serif" font-size="14.00" fill="#000000">c24</text>
</g>
<!-- n11 -->
<g id="node11" class="node">
<title>n11</title>
<g id="a_node11"><a xlink:title="CAPEC&#45;439:Manipulation During Distribution; &#10; CAPEC&#45;440:Hardware Integrity Attack; &#10; CAPEC&#45;507:Physical Theft; &#10; insideTrustedBoundary">
<polygon fill="#ff0000" stroke="#000000" points="692.4962,-122 638.4962,-122 638.4962,-86 692.4962,-86 692.4962,-122"/>
<text text-anchor="middle" x="665.4962" y="-99.8" font-family="Times,serif" font-size="14.00" fill="#000000">fc</text>
</a>
</g>
</g>
<!-- n7&#45;&gt;n11 -->
<g id="edge27" class="edge">
<title>n7&#45;&gt;n11</title>
<path fill="none" stroke="#000000" d="M678.6304,-171.8852C673.6458,-166.6886 669.0414,-160.617 666.2823,-154 663.4988,-147.3242 662.4437,-139.698 662.287,-132.447"/>
<polygon fill="#000000" stroke="#000000" points="665.7915,-132.3501 662.6032,-122.2464 658.7949,-132.1331 665.7915,-132.3501"/>
<text text-anchor="middle" x="672.1031" y="-142.8" font-family="Times,serif" font-size="14.00" fill="#000000">c2</text>
</g>
<!-- n8&#45;&gt;n4 -->
<g id="edge45" class="edge">
<title>n8&#45;&gt;n4</title>
<path fill="none" stroke="#000000" d="M807.7139,-364.9404C828.9649,-368.7823 857.3468,-377.632 872.4962,-398 897.173,-431.1773 903.6121,-551.9432 877.4962,-584 865.5304,-598.6878 822.0744,-607.9411 784.0576,-613.3828"/>
<polygon fill="#000000" stroke="#000000" points="783.4578,-609.9321 774.0226,-614.7515 784.4038,-616.8679 783.4578,-609.9321"/>
<text text-anchor="middle" x="903.6031" y="-486.8" font-family="Times,serif" font-size="14.00" fill="#000000">c34</text>
</g>
<!-- n8&#45;&gt;n4 -->
<g id="edge52" class="edge">
<title>n8&#45;&gt;n4</title>
<path fill="none" stroke="#000000" d="M807.9438,-364.6069C832.1895,-368.2669 867.0811,-377.0362 889.4962,-398 923.2049,-429.5262 922.5324,-452.1218 917.4962,-498 916.839,-503.9867 904.9702,-574.7684 894.4962,-584 878.1434,-598.413 826.6368,-607.9177 784.0437,-613.522"/>
<polygon fill="#000000" stroke="#000000" points="783.4751,-610.066 773.9943,-614.7952 784.355,-617.0105 783.4751,-610.066"/>
<text text-anchor="middle" x="928.6031" y="-486.8" font-family="Times,serif" font-size="14.00" fill="#000000">c35</text>
</g>
<!-- n8&#45;&gt;n5 -->
<g id="edge12" class="edge">
<title>n8&#45;&gt;n5</title>
<path fill="none" stroke="#000000" d="M776.7281,-380.1253C773.5895,-390.857 768.0386,-403.8973 758.4962,-412 750.6873,-418.6308 733.6206,-424.6937 713.9952,-429.8765"/>
<polygon fill="#000000" stroke="#000000" points="713.0263,-426.5111 704.1847,-432.3487 714.7368,-433.2989 713.0263,-426.5111"/>
<text text-anchor="middle" x="778.6031" y="-400.8" font-family="Times,serif" font-size="14.00" fill="#000000">c38</text>
</g>
<!-- n8&#45;&gt;n5 -->
<g id="edge25" class="edge">
<title>n8&#45;&gt;n5</title>
<path fill="none" stroke="#000000" d="M753.3589,-364.1623C725.6627,-367.5402 682.5598,-376.1487 652.2823,-398 644.0473,-403.9432 637.2044,-412.5548 631.8802,-420.9617"/>
<polygon fill="#000000" stroke="#000000" points="628.703,-419.463 626.7048,-429.8678 634.7553,-422.9801 628.703,-419.463"/>
<text text-anchor="middle" x="662.6031" y="-400.8" font-family="Times,serif" font-size="14.00" fill="#000000">c40</text>
</g>
<!-- n8&#45;&gt;n9 -->
<g id="edge7" class="edge">
<title>n8&#45;&gt;n9</title>
<path fill="none" stroke="#000000" d="M753.1656,-344.6173C747.1886,-339.4066 741.6479,-333.1452 738.2823,-326 735.2003,-319.4567 734.041,-311.8767 733.8794,-304.6278"/>
<polygon fill="#000000" stroke="#000000" points="737.3854,-304.5235 734.2488,-294.4036 730.3899,-304.2707 737.3854,-304.5235"/>
<text text-anchor="middle" x="747.6031" y="-314.8" font-family="Times,serif" font-size="14.00" fill="#000000">c12</text>
</g>
<!-- n8&#45;&gt;n9 -->
<g id="edge20" class="edge">
<title>n8&#45;&gt;n9</title>
<path fill="none" stroke="#000000" d="M773.0413,-343.7169C768.9922,-334.1476 763.7495,-322.3088 758.4962,-312 756.985,-309.0345 755.3388,-305.9723 753.655,-302.944"/>
<polygon fill="#000000" stroke="#000000" points="756.5931,-301.0314 748.5879,-294.0912 750.5179,-304.5087 756.5931,-301.0314"/>
<text text-anchor="middle" x="777.7101" y="-314.8" font-family="Times,serif" font-size="14.00" fill="#000000">c18a</text>
</g>
<!-- n9&#45;&gt;n7 -->
<g id="edge22" class="edge">
<title>n9&#45;&gt;n7</title>
<path fill="none" stroke="#000000" d="M712.2441,-257.842C706.9887,-252.7203 702.1729,-246.6943 699.2823,-240 696.3793,-233.2767 695.6277,-225.561 695.9256,-218.235"/>
<polygon fill="#000000" stroke="#000000" points="699.4082,-218.5829 696.9307,-208.2818 692.4436,-217.8795 699.4082,-218.5829"/>
<text text-anchor="middle" x="705.1031" y="-228.8" font-family="Times,serif" font-size="14.00" fill="#000000">c1</text>
</g>
<!-- n10&#45;&gt;n1 -->
<g id="edge11" class="edge">
<title>n10&#45;&gt;n1</title>
<path fill="none" stroke="#000000" d="M232.5669,-638.4527C232.7849,-648.523 231.4801,-660.7795 225.4962,-670 221.2047,-676.6126 215.2468,-682.1436 208.6936,-686.7265"/>
<polygon fill="#000000" stroke="#000000" points="206.8,-683.7824 200.1552,-692.0345 210.4958,-689.7273 206.8,-683.7824"/>
<text text-anchor="middle" x="236.941" y="-658.8" font-family="Times,serif" font-size="14.00" fill="#000000">i5</text>
</g>
<!-- n10&#45;&gt;n1 -->
<g id="edge32" class="edge">
<title>n10&#45;&gt;n1</title>
<path fill="none" stroke="#000000" d="M243.5743,-638.169C249.0408,-648.1506 252.818,-660.4128 246.4962,-670 238.1223,-682.6994 224.2389,-690.9359 210.1472,-696.2712"/>
<polygon fill="#000000" stroke="#000000" points="208.7985,-693.0316 200.4234,-699.5206 211.0171,-699.6707 208.7985,-693.0316"/>
<text text-anchor="middle" x="255.941" y="-658.8" font-family="Times,serif" font-size="14.00" fill="#000000">i6</text>
</g>
<!-- n10&#45;&gt;n1 -->
<g id="edge36" class="edge">
<title>n10&#45;&gt;n1</title>
<path fill="none" stroke="#000000" d="M255.376,-638.0918C265.3804,-647.6088 272.9786,-659.4585 265.4962,-670 258.6126,-679.6978 233.7029,-688.543 210.1059,-695.0389"/>
<polygon fill="#000000" stroke="#000000" points="208.9039,-691.7363 200.1297,-697.6747 210.692,-698.5041 208.9039,-691.7363"/>
<text text-anchor="middle" x="274.941" y="-658.8" font-family="Times,serif" font-size="14.00" fill="#000000">i7</text>
</g>
<!-- n11&#45;&gt;n7 -->
<g id="edge47" class="edge">
<title>n11&#45;&gt;n7</title>
<path fill="none" stroke="#000000" d="M673.1199,-122.2121C677.9859,-133.8366 684.3884,-149.1313 689.8801,-162.2503"/>
<polygon fill="#000000" stroke="#000000" points="686.7715,-163.8887 693.8615,-171.7616 693.2286,-161.1857 686.7715,-163.8887"/>
<text text-anchor="middle" x="692.1031" y="-142.8" font-family="Times,serif" font-size="14.00" fill="#000000">c3</text>
</g>
<!-- n12 -->
<g id="node12" class="node">
<title>n12</title>
<g id="a_node12"><a xlink:title="CAPEC&#45;507:Physical Theft; &#10; CAPEC&#45;439:Manipulation During Distribution; &#10; CAPEC&#45;440:Hardware Integrity Attack; &#10; insideTrustedBoundary">
<polygon fill="#ff0000" stroke="#000000" points="656.3075,-36 588.6849,-36 588.6849,0 656.3075,0 656.3075,-36"/>
<text text-anchor="middle" x="622.4962" y="-13.8" font-family="Times,serif" font-size="14.00" fill="#000000">actuation</text>
</a>
</g>
</g>
<!-- n11&#45;&gt;n12 -->
<g id="edge14" class="edge">
<title>n11&#45;&gt;n12</title>
<path fill="none" stroke="#000000" d="M638.1656,-86.6173C632.1886,-81.4066 626.6479,-75.1452 623.2823,-68 620.2003,-61.4567 619.041,-53.8767 618.8794,-46.6278"/>
<polygon fill="#000000" stroke="#000000" points="622.3854,-46.5235 619.2488,-36.4036 615.3899,-46.2707 622.3854,-46.5235"/>
<text text-anchor="middle" x="633.6031" y="-56.8" font-family="Times,serif" font-size="14.00" fill="#000000">c19</text>
</g>
<!-- n12&#45;&gt;n5 -->
<g id="edge49" class="edge">
<title>n12&#45;&gt;n5</title>
<path fill="none" stroke="#000000" d="M607.5703,-36.2164C595.4983,-52.8243 580.4962,-78.5776 580.4962,-104 580.4962,-362 580.4962,-362 580.4962,-362 580.4962,-383.0135 590.1055,-404.6403 599.6597,-420.9498"/>
<polygon fill="#000000" stroke="#000000" points="596.961,-423.2393 605.2057,-429.8934 602.9101,-419.5502 596.961,-423.2393"/>
<text text-anchor="middle" x="590.6031" y="-228.8" font-family="Times,serif" font-size="14.00" fill="#000000">c32</text>
</g>
<!-- n12&#45;&gt;n11 -->
<g id="edge24" class="edge">
<title>n12&#45;&gt;n11</title>
<path fill="none" stroke="#000000" d="M633.5879,-36.0912C636.9116,-41.7514 640.4738,-48.0689 643.4962,-54 647.1078,-61.0873 650.7144,-68.8977 653.9317,-76.1967"/>
<polygon fill="#000000" stroke="#000000" points="650.8646,-77.9229 658.0413,-85.7169 657.2913,-75.1486 650.8646,-77.9229"/>
<text text-anchor="middle" x="660.6031" y="-56.8" font-family="Times,serif" font-size="14.00" fill="#000000">c20</text>
</g>
<!-- n13&#45;&gt;n4 -->
<g id="edge16" class="edge">
<title>n13&#45;&gt;n4</title>
<path fill="none" stroke="#000000" d="M1010.3633,-552.3651C1016.819,-562.6535 1021.319,-575.1535 1013.4962,-584 998.5498,-600.9023 865.1311,-611.6223 783.9012,-616.6421"/>
<polygon fill="#000000" stroke="#000000" points="783.5485,-613.157 773.7783,-617.255 783.9716,-620.1442 783.5485,-613.157"/>
<text text-anchor="middle" x="1024.1031" y="-572.8" font-family="Times,serif" font-size="14.00" fill="#000000">c9</text>
</g>
<!-- n13&#45;&gt;n4 -->
<g id="edge29" class="edge">
<title>n13&#45;&gt;n4</title>
<path fill="none" stroke="#000000" d="M973.0777,-552.2209C957.2206,-564.7668 937.1319,-579.8861 927.4962,-584 902.2189,-594.792 834.7844,-605.411 783.9005,-612.2867"/>
<polygon fill="#000000" stroke="#000000" points="783.4119,-608.8208 773.9618,-613.6109 784.3365,-615.7595 783.4119,-608.8208"/>
<text text-anchor="middle" x="957.6031" y="-572.8" font-family="Times,serif" font-size="14.00" fill="#000000">c37</text>
</g>
<!-- n14&#45;&gt;n4 -->
<g id="edge30" class="edge">
<title>n14&#45;&gt;n4</title>
<path fill="none" stroke="#000000" d="M580.1906,-552.2585C570.9359,-562.0381 563.9771,-574.0791 571.795,-584 582.8348,-598.0094 623.0466,-607.1957 659.0154,-612.7804"/>
<polygon fill="#000000" stroke="#000000" points="658.6154,-616.2593 669.0201,-614.2611 659.6403,-609.3347 658.6154,-616.2593"/>
<text text-anchor="middle" x="582.3468" y="-572.8" font-family="Times,serif" font-size="14.00" fill="#000000">c11</text>
</g>
<!-- n14&#45;&gt;n4 -->
<g id="edge39" class="edge">
<title>n14&#45;&gt;n4</title>
<path fill="none" stroke="#000000" d="M603.3974,-552.2191C604.8301,-562.7151 608.2598,-575.4756 616.2823,-584 627.7326,-596.1665 643.4646,-604.2212 659.2751,-609.5537"/>
<polygon fill="#000000" stroke="#000000" points="658.5063,-612.9781 669.0919,-612.5347 660.5403,-606.28 658.5063,-612.9781"/>
<text text-anchor="middle" x="626.6031" y="-572.8" font-family="Times,serif" font-size="14.00" fill="#000000">c36</text>
</g>
<!-- n14&#45;&gt;n5 -->
<g id="edge38" class="edge">
<title>n14&#45;&gt;n5</title>
<path fill="none" stroke="#000000" d="M577.1452,-515.8376C567.6365,-506.6952 560.4018,-495.1972 566.2823,-484 568.4133,-479.9423 571.2318,-476.2525 574.4577,-472.918"/>
<polygon fill="#000000" stroke="#000000" points="576.8979,-475.4322 582.0623,-466.1813 572.2561,-470.1925 576.8979,-475.4322"/>
<text text-anchor="middle" x="576.6031" y="-486.8" font-family="Times,serif" font-size="14.00" fill="#000000">c29</text>
</g>
<!-- n14&#45;&gt;n5 -->
<g id="edge42" class="edge">
<title>n14&#45;&gt;n5</title>
<path fill="none" stroke="#000000" d="M619.5915,-515.8909C623.6273,-510.5282 627.3716,-504.374 629.4962,-498 631.8001,-491.0884 631.5009,-483.4767 630.0293,-476.3219"/>
<polygon fill="#000000" stroke="#000000" points="633.2858,-474.9743 627.2012,-466.301 626.5489,-476.8757 633.2858,-474.9743"/>
<text text-anchor="middle" x="641.6031" y="-486.8" font-family="Times,serif" font-size="14.00" fill="#000000">c17</text>
</g>
</g>
</svg>
